<?xml version="1.0" encoding="utf-8"?>
<!-- Generator: Adobe Illustrator 27.5.0, SVG Export Plug-In . SVG Version: 6.00 Build 0)  -->
<svg version="1.1" xmlns="http://www.w3.org/2000/svg" xmlns:xlink="http://www.w3.org/1999/xlink" x="0px" y="0px"
	 viewBox="0 0 3710 3710" style="enable-background:new 0 0 3710 3710;" xml:space="preserve">
<g id="Background">
	<g>
		<g>
			<rect style="fill:#FFFFFF;" width="3710" height="3710"/>
		</g>
	</g>
</g>
<g id="Illustration">
	<g>
		<path style="fill:#F4F7FA;" d="M1664.938,486.839c-360.932,6.375-919.364,143.608-1080.102,496.271
			c-56.139,123.172-52.338,304.249-44.738,666.403c2.234,106.446,5.939,261.594,31.956,454.098
			c54.045,399.891,90.836,672.122,230.081,830.637c348.904,397.192,1609.227,385.715,2147.421-329.361
			c293.588-390.078,338.754-944.978,70.302-1403.574C2724.3,696.406,2148.142,478.303,1664.938,486.839z"/>
		<g>
			<defs>
				<rect id="SVGID_1_" x="1115.122" y="551.281" width="2105.275" height="2312.639"/>
			</defs>
			<clipPath id="SVGID_00000031920416010057400990000011604982924328858025_">
				<use xlink:href="#SVGID_1_"  style="overflow:visible;"/>
			</clipPath>
			<g style="clip-path:url(#SVGID_00000031920416010057400990000011604982924328858025_);">
				<g>
					<g>
						
							<linearGradient id="SVGID_00000107567712723737633960000012910970443205146010_" gradientUnits="userSpaceOnUse" x1="-3997.0295" y1="-3465.5938" x2="-3284.283" y2="1090.906" gradientTransform="matrix(-0.583 -0.8125 -0.8125 0.583 -1862.4246 659.3145)">
							<stop  offset="0" style="stop-color:#AA80F9"/>
							<stop  offset="0.9964" style="stop-color:#6165D7"/>
						</linearGradient>
						<path style="fill:url(#SVGID_00000107567712723737633960000012910970443205146010_);" d="M1355.295,3211.8
							c-23.587-11.147-65.074-56.19-71.048-72.39c-39.755-107.813-127.299-304.834-83.172-418.01
							c7.536-19.329,101.516-9.129,119.708-23.222c61.497-8.041,83.33-7.016,138.038-43.38
							c161.515-107.357-12.437-463.351,322.948-460.187c245.664,2.318,409.205,140.121,497.251-213.928
							c88.046-354.049,566.808-896.221,854.309-536.36c164.998,206.527-143.309,432.076-105.609,684.218
							c35.824,239.6-106.653,381.214-365.999,434.139c-259.346,52.925-173.024,186.049-172.762,402.814
							c0.314,260.381-375.638,184.86-546.232,135.188C1805.352,3060.681,1428.562,3051.509,1355.295,3211.8z"/>
						<g>
							<defs>
								<path id="SVGID_00000158019157399519708290000010166455943367668915_" d="M1154.969,2673.547
									c0.198,179.33-6.989,361.82-7.766,542.412c94.495,39.264,206.606,83.147,266.681-29.215
									c83.522-156.218,392.182-126.975,529.231-86.277c169.623,50.371,546.381,125.173,545.874-135.015
									c-0.422-216.605-86.569-349.902,172.752-402.785c259.321-52.883,401.759-194.53,365.983-434.143
									c-37.649-252.155,270.553-477.575,105.607-684.209c-287.411-360.05-766.474,182.645-854.213,536.245
									c-87.74,353.6-252.632,217.641-497.086,213.714c-333.733-5.362-165.868,358.649-321.305,457.662
									C1338.874,2729.556,1276.11,2687.873,1154.969,2673.547z"/>
							</defs>
							<clipPath id="SVGID_00000145753568565150810800000013024167898154985113_">
								<use xlink:href="#SVGID_00000158019157399519708290000010166455943367668915_"  style="overflow:visible;"/>
							</clipPath>
							<g style="clip-path:url(#SVGID_00000145753568565150810800000013024167898154985113_);">
								<path style="fill:#FCFDFE;" d="M1242.38,2940.333l-0.491-3.48c217.237-30.733,426.515-94.424,622.021-189.302
									c187.869-91.173,363.32-211.217,521.476-356.795c307.086-282.661,544.071-657.106,685.333-1082.852l3.336,1.105
									c-141.451,426.313-378.765,801.268-686.287,1084.333c-158.41,145.812-334.146,266.048-522.323,357.37
									C1669.609,2845.75,1459.981,2909.549,1242.38,2940.333z"/>
								<path style="fill:#FCFDFE;" d="M2502.101,3072.879c-92.483-67.425-226.774-131.652-378.124-180.846
									c-145.96-47.439-294.986-76.032-408.87-78.443l0.075-3.514c114.212,2.419,263.607,31.072,409.879,78.616
									c151.696,49.305,286.334,113.71,379.112,181.349L2502.101,3072.879z"/>
								<path style="fill:#FCFDFE;" d="M1407.926,2915.013l-1.438-3.206c116.406-52.174,201.948-161.142,254.249-323.878
									c38.313-119.212,58.231-263.987,59.197-430.304l3.515,0.021c-0.97,166.676-20.942,311.807-59.365,431.36
									C1611.463,2752.73,1525.28,2862.415,1407.926,2915.013z"/>
								<path style="fill:#FCFDFE;" d="M2430.098,2351.295l-1.6-3.13c117.878-60.285,323.876-114.24,635.908-28.895l-0.927,3.391
									C2752.543,2237.613,2547.424,2291.288,2430.098,2351.295z"/>
								<path style="fill:#FCFDFE;" d="M2779.665,1927.787l-3.254-1.322c43.707-107.773,98.411-337.693-26.315-666.649l3.288-1.246
									c42.066,110.953,67.945,226.377,74.834,333.794C2836.143,1715.955,2819.809,1828.807,2779.665,1927.787z"/>
							</g>
						</g>
					</g>
				</g>
				<g>
					<g>
						<defs>
							<path id="SVGID_00000003806412325203057470000011012955910019537307_" d="M1936.758,3507.737
								c-131.219-19.297-262.307-41.61-393.154-66.929c-2.128,1.925-45.14-283.301,90.344-432.883
								c267.914-289.779,87.454-549.852,35.978-703.957c-82.384-217.307-40.158-481.426,199.184-431.955
								c233.177,42.605,268.547-437.44,228.301-807.258c-34.348-179.993,135.48-398.385,304.955-448.295
								c173.01-55.296,345.664,57.888,398.576,416.664c80.101,415.407-223.06,665.915-335.319,874.184
								c-110.457,204.453,146.497,369.874-60.323,551.026c-173.964,160.963-393.217,276.673-313.01,478.864
								C2174.692,3137.099,2154.964,3300.53,1936.758,3507.737z"/>
						</defs>
						<clipPath id="SVGID_00000093884379408244031170000001966125253284755598_">
							<use xlink:href="#SVGID_00000003806412325203057470000011012955910019537307_"  style="overflow:visible;"/>
						</clipPath>
						
							<linearGradient id="SVGID_00000156574821763689939420000000567397528707254961_" gradientUnits="userSpaceOnUse" x1="603.0178" y1="-1308.6613" x2="-339.1555" y2="1369.0966" gradientTransform="matrix(-0.8674 -0.4976 -0.4976 0.8674 2274.7078 2110.0093)">
							<stop  offset="0" style="stop-color:#FFC444"/>
							<stop  offset="0.9964" style="stop-color:#F36F56"/>
						</linearGradient>
						
							<path style="clip-path:url(#SVGID_00000093884379408244031170000001966125253284755598_);fill:url(#SVGID_00000156574821763689939420000000567397528707254961_);" d="
							M1936.758,3507.737c-131.219-19.297-262.307-41.61-393.154-66.929c-2.128,1.925-45.14-283.301,90.344-432.883
							c267.914-289.779,87.454-549.852,35.978-703.957c-81.557-217.145-38.661-452.286,182.348-455.763
							c245.125-8.655,289.567-414.378,245.138-783.45c-34.348-179.993,135.48-398.385,304.955-448.295
							c173.01-55.296,345.664,57.888,398.576,416.664c80.101,415.407-223.06,665.915-335.319,874.184
							c-110.457,204.453,146.497,369.874-60.323,551.026c-173.964,160.963-393.217,276.673-313.01,478.864
							C2174.692,3137.099,2154.964,3300.53,1936.758,3507.737z"/>
						<g style="clip-path:url(#SVGID_00000093884379408244031170000001966125253284755598_);">
							<path style="fill:#FCFDFE;" d="M1760.372,3524.599l-3.513-0.024c-0.04-2.529,125.3-602.261,341.52-1186.263
								c29.868-94.592,62.306-189.958,93.677-282.183c84.019-247.011,170.9-502.43,212.163-756.787
								c46.133-284.374,29.689-540.506-50.269-783.034l3.336-1.102c80.14,243.077,96.628,499.755,50.403,784.699
								c-41.311,254.647-128.24,510.208-212.307,757.356c-31.364,92.208-63.796,187.555-93.68,282.191
								C1894.924,2897.958,1761.611,3507.694,1760.372,3524.599z"/>
							<path style="fill:#FCFDFE;" d="M2347.418,1577.916l-2.615-2.351c146.311-162.561,322.829-393.564,417.66-517.668
								c70.767-92.608,76.334-99.308,79.011-98.891l-0.542,3.474l0.271-1.737l0.59,1.613c-3.556,2.167-34.168,42.229-76.536,97.676
								C2670.395,1184.174,2493.822,1415.25,2347.418,1577.916z"/>
							<path style="fill:#FCFDFE;" d="M2393.201,1355.454c-30.396-187.085-107.578-309.991-166.97-380.152
								c-65.77-77.688-125.67-110.845-131.199-111.128c-0.004,0,0.309,0.016,0.676-0.23l-1.957-2.921
								c0.872-0.582,2.019-0.608,5.588,0.944c16.146,7.016,76.492,44.774,139.876,123.548
								c79.876,99.275,134.322,227.004,157.452,369.377L2393.201,1355.454z"/>
							<path style="fill:#FCFDFE;" d="M1973.275,2719.919l-3.491-0.415c20.654-173.493-19.763-360.089-120.131-554.603
								c-52.332-101.418-119.069-200.774-198.356-295.308c-5.462-6.513-7.704-9.197-8.313-10.249l3.041-1.761
								c0.481,0.829,3.619,4.572,7.965,9.751c79.455,94.733,146.337,194.304,198.787,295.954
								C1953.472,2358.439,1994.012,2545.716,1973.275,2719.919z"/>
							<path style="fill:#FCFDFE;" d="M2032.533,2537.084l-2.99-1.85c157.118-253.839,488.109-271.323,490.872-270.572l1.315,1.647
								l-1.208,1.73l-0.553-1.635l-0.189,1.701c-0.003,0-0.01,0-0.017,0c-1.459,0-83.473,3.446-187.759,40.326
								C2239.762,2341.051,2112.925,2407.2,2032.533,2537.084z"/>
							<path style="fill:#FCFDFE;" d="M1782.272,3426.76l-3.511-0.13c2.778-75.603-24.223-204.447-168.64-388.917
								c-7.59-9.694-7.587-9.715-7.431-10.805l3.48,0.501l-1.74-0.251l1.639-0.578c0.356,0.709,3.208,4.354,6.82,8.967
								C1757.959,3220.853,1785.073,3350.571,1782.272,3426.76z"/>
							<path style="fill:#FCFDFE;" d="M1815.626,3284.407l-3.377-0.978c18.752-64.702,74.817-128.346,166.635-189.166
								c72.068-47.736,143.133-78.333,166.486-88.386c3.494-1.505,5.804-2.5,6.569-2.893l1.606,3.126
								c-0.872,0.448-3.1,1.406-6.786,2.995c-23.285,10.024-94.13,40.525-165.935,88.089
								C1889.721,3157.539,1834.139,3220.529,1815.626,3284.407z"/>
						</g>
					</g>
				</g>
			</g>
		</g>
		<g>
			
				<linearGradient id="SVGID_00000105417474484362132530000008550198433567303861_" gradientUnits="userSpaceOnUse" x1="1606.8192" y1="1998.0565" x2="1622.261" y2="1097.2695">
				<stop  offset="0" style="stop-color:#444B8C"/>
				<stop  offset="0.9964" style="stop-color:#26264F"/>
			</linearGradient>
			<path style="fill:url(#SVGID_00000105417474484362132530000008550198433567303861_);" d="M2393.621,690.831l-1128.79,41.822
				c-37.518,1.389-74.758-4.218-110.224-16.537L822.992,600.414c-59.435-20.644-105.903,12.552-105.903,74.053v2095.986
				c0,61.501,46.571,132.788,106.006,159.347l315.415,141.26c46.362,20.718,96.843,29.429,147.461,25.331l1107.822-89.787
				c61.482-4.979,110.212-58.693,110.212-119.986V797.691C2504.007,736.399,2455.104,688.553,2393.621,690.831z"/>
			
				<linearGradient id="SVGID_00000090993880897169833140000014316502210148650168_" gradientUnits="userSpaceOnUse" x1="717.0894" y1="1876.7167" x2="2504.0073" y2="1876.7167">
				<stop  offset="0" style="stop-color:#40447E"/>
				<stop  offset="0.9964" style="stop-color:#3C3B6B"/>
			</linearGradient>
			<path style="fill:url(#SVGID_00000090993880897169833140000014316502210148650168_);" d="M2393.621,721.716l-1128.79,41.822
				c-37.518,1.389-74.758-4.218-110.224-16.537L822.992,631.3c-59.435-20.644-105.903,12.552-105.903,74.053v2095.986
				c0,61.501,46.571,132.788,106.006,159.347l315.415,141.26c46.362,20.718,96.843,29.429,147.461,25.331l1107.822-89.788
				c61.482-4.978,110.212-58.693,110.212-119.986V828.577C2504.007,767.285,2455.104,719.439,2393.621,721.716z"/>
			
				<linearGradient id="SVGID_00000043457208634817291750000004996976955567280053_" gradientUnits="userSpaceOnUse" x1="757.0205" y1="1905.2729" x2="2450.7659" y2="1905.2729">
				<stop  offset="0" style="stop-color:#FF9085"/>
				<stop  offset="1" style="stop-color:#FB6FBB"/>
			</linearGradient>
			<path style="fill:url(#SVGID_00000043457208634817291750000004996976955567280053_);" d="M2450.766,920.926v1957.861
				c0,40.769-35.008,76.527-76.976,79.89l-1048.632,83.219l-42.793,3.398c-48.527,3.844-97.292-4.083-142.108-23.095L1102.096,3006
				l-11.807-5.01l-260.046-109.986c-39.361-16.746-73.222-62.012-73.222-101.098V814.749c0-22.273,11.624-38.538,28.097-45.951
				c12.457-5.628,28.65-6.177,45.601-0.446l271.139,91.661l53.515,18.085c35.038,11.874,71.988,17.192,108.949,15.751l60.805-2.401
				l64.155-2.54l984.5-38.813C2415.751,848.448,2450.766,880.158,2450.766,920.926z"/>
			<g style="opacity:0.6;">
				<path style="fill:#FFFFFF;" d="M1592.247,2596.201c0,20.752-16.129,38.655-36.991,39.973l-119.574,7.65
					c-20.899,1.32-36.435-14.445-36.435-35.221v-99.782c0-20.776,15.934-38.669,36.832-39.966l119.346-7.507
					c20.86-1.295,36.822,14.437,36.822,35.188V2596.201z"/>
				<path style="fill:#FFFFFF;" d="M1851.799,2580.008c0,20.715-16.894,38.566-37.684,39.88l-120.748,7.623
					c-20.827,1.316-37.896-14.424-37.896-35.164v-99.61c0-20.74,17.265-38.628,38.094-39.921l120.712-7.482
					c20.791-1.29,37.522,14.472,37.522,35.187V2580.008z"/>
				<path style="fill:#FFFFFF;" d="M2108.024,2563.757c0,20.685-16.428,38.542-37.155,39.851l-120.887,7.606
					c-20.762,1.312-38.286-14.399-38.286-35.106v-99.452c0-20.707,17.7-38.535,38.46-39.823l119.545-7.458
					c20.722-1.286,38.323,14.351,38.323,35.036V2563.757z"/>
				<path style="fill:#FFFFFF;" d="M2364.248,2547.694c0,20.646-16.38,38.442-37.034,39.747l-120.804,7.584
					c-20.689,1.307-38.49-14.373-38.49-35.043v-99.275c0-20.67,18.415-38.522,39.106-39.806l119.802-7.433
					c20.654-1.282,37.42,14.417,37.42,35.064V2547.694z"/>
				<path style="fill:#FFFFFF;" d="M1592.247,2832.714c0,20.752-16.129,38.669-36.991,40.018l-119.574,7.827
					c-20.899,1.352-36.435-14.394-36.435-35.169v-99.781c0-20.776,15.934-38.695,36.832-40.024l119.683-7.7
					c20.862-1.326,36.485,14.412,36.485,35.164V2832.714z"/>
				<path style="fill:#FFFFFF;" d="M1851.799,2816.097c0,20.714-16.894,38.596-37.684,39.942l-120.748,7.801
					c-20.827,1.348-37.896-14.373-37.896-35.113v-99.609c0-20.74,17.043-38.633,37.871-39.957l120.691-7.665
					c20.79-1.322,37.767,14.4,37.767,35.114V2816.097z"/>
				<path style="fill:#FFFFFF;" d="M2108.024,2799.509c0,20.685-16.428,38.544-37.155,39.885l-120.887,7.778
					c-20.762,1.343-38.286-14.353-38.286-35.06v-99.452c0-20.707,17.727-38.563,38.487-39.883l120.241-7.661
					c20.727-1.318,37.601,14.362,37.601,35.047V2799.509z"/>
				<path style="fill:#FFFFFF;" d="M2364.248,2783.01c0,20.647-16.38,38.467-37.034,39.803l-120.804,7.752
					c-20.689,1.339-38.49-14.33-38.49-35v-99.275c0-20.67,17.98-38.506,38.669-39.822l120.013-7.621
					c20.653-1.313,37.646,14.353,37.646,35V2783.01z"/>
			</g>
			
				<linearGradient id="SVGID_00000055674954439609113060000007819295551985275064_" gradientUnits="userSpaceOnUse" x1="538.4587" y1="3037.3325" x2="540.119" y2="3037.3325">
				<stop  offset="0" style="stop-color:#AA80F9"/>
				<stop  offset="0.9964" style="stop-color:#6165D7"/>
			</linearGradient>
			<path style="opacity:0.3;fill:url(#SVGID_00000055674954439609113060000007819295551985275064_);" d="M540.119,3028.41
				c-0.516,11.701-0.756,17.844-0.756,17.844S536.892,3038.533,540.119,3028.41z"/>
			
				<linearGradient id="SVGID_00000002356258283632813970000001120738746398400661_" gradientUnits="userSpaceOnUse" x1="757.0205" y1="1884.8942" x2="1090.2891" y2="1884.8942">
				<stop  offset="0" style="stop-color:#FF9085"/>
				<stop  offset="1" style="stop-color:#FB6FBB"/>
			</linearGradient>
			<path style="opacity:0.3;fill:url(#SVGID_00000002356258283632813970000001120738746398400661_);" d="M1090.289,3000.99
				l-260.046-109.986c-39.361-16.746-73.222-62.012-73.222-101.098V814.749c0-22.273,11.624-38.538,28.097-45.951
				c0.069,23.301-0.382,47.632-0.142,52.025c3.638,68.428,8.852,136.788,14.411,205.114
				c12.388,151.955,27.675,304.152,83.44,447.426c48.114,123.679,63.788,239.191,55.104,371.826
				c-7.584,115.785-29.515,230.164-48.564,344.475C852.958,2408.06,921.14,2799.308,1090.289,3000.99z"/>
			<path style="opacity:0.3;fill:#FFFFFF;" d="M2450.766,2734.793v143.995c0,40.768-34.566,76.526-76.535,79.89l-1048.192,83.219
				c-34.051-42.211-81.3-111.01-113.138-205.653c-48.364-143.771-33.497-264.927-27.05-313.008
				c32.624-243.302,172.541-272.404,278.229-517.818c162.068-376.327,24.465-749.238,8.576-790.422
				c-58.243-150.962-142.523-257.827-200.959-321.438c19.673-0.775,39.348-1.552,59.021-2.325
				c24.201-0.951,48.403-1.903,59.019-2.325l5.099,3.123c0,0,237.981,155.217,284.309,690.529
				c46.362,535.313,95.829,665.067,468.169,921.826C2285.754,2599.858,2384.214,2668.321,2450.766,2734.793z"/>
		</g>
		<g>
			
				<linearGradient id="SVGID_00000174571217645369270990000012619881366684894889_" gradientUnits="userSpaceOnUse" x1="5663.5176" y1="2352.8408" x2="5576.854" y2="2177.9375" gradientTransform="matrix(-0.9839 -0.1785 -0.1785 0.9839 6593.1602 461.4586)">
				<stop  offset="0" style="stop-color:#AB316D"/>
				<stop  offset="1" style="stop-color:#792D3D"/>
			</linearGradient>
			<path style="fill:url(#SVGID_00000174571217645369270990000012619881366684894889_);" d="M704.262,1652.397
				c0,0,11.839-21.584,19.737-27.986c7.899-6.404,7.18-33.857,10.742-54.98c3.562-21.123-11.669,7.661-15.165,14.161
				c-3.494,6.5-16.981,46.786-36.446,56.148L704.262,1652.397z"/>
			
				<linearGradient id="SVGID_00000139270383989868957370000002905034393469615252_" gradientUnits="userSpaceOnUse" x1="5590.6929" y1="2476.2417" x2="5714.9575" y2="2982.5049" gradientTransform="matrix(-0.9839 -0.1785 -0.1785 0.9839 6593.1602 461.4586)">
				<stop  offset="0" style="stop-color:#FFC444"/>
				<stop  offset="0.9964" style="stop-color:#F36F56"/>
			</linearGradient>
			<path style="fill:url(#SVGID_00000139270383989868957370000002905034393469615252_);" d="M688.827,1630.072
				c8.112,5.126,16.222,10.254,24.334,15.38c-31.849,46.2-70.074,118.242-55.352,196.129
				c14.902,78.843,57.245,115.082,51.394,175.782c-6.482,67.255-48.007,163.594-97.753,144.272
				c-59.342-23.05-92.354-230.856-47.239-349.945C597.378,1724.144,651.302,1664.653,688.827,1630.072z"/>
			
				<linearGradient id="SVGID_00000031204125907085873750000008389216365817199000_" gradientUnits="userSpaceOnUse" x1="4407.5415" y1="1648.5898" x2="4397.6118" y2="1529.4309" gradientTransform="matrix(-0.9967 0.0822 0.0822 0.9967 4992.4023 -122.9818)">
				<stop  offset="0" style="stop-color:#444B8C"/>
				<stop  offset="0.9964" style="stop-color:#26264F"/>
			</linearGradient>
			<path style="fill:url(#SVGID_00000031204125907085873750000008389216365817199000_);" d="M762.91,1863.657
				c7.783-16.481,11.188-16.484,12.968-25.116c4.058-19.672-8.571-44.149-18.689-44.205c-6.522-0.035-6.772,10.109-20.113,26.293
				c-16.345,19.824-26.673,17.579-36.136,34.653c-2.214,3.994-12.177,21.971-5.362,34.979c8.698,16.603,41.169,18.343,54.338,4.967
				C756.162,1888.885,753.321,1883.961,762.91,1863.657z"/>
			
				<linearGradient id="SVGID_00000019677803013571785970000015916013756568541117_" gradientUnits="userSpaceOnUse" x1="4372.1792" y1="1472.9152" x2="4381.6704" y2="1824.0789" gradientTransform="matrix(-0.9967 0.0822 0.0822 0.9967 4992.4023 -122.9818)">
				<stop  offset="0" style="stop-color:#AB316D"/>
				<stop  offset="1" style="stop-color:#792D3D"/>
			</linearGradient>
			<path style="fill:url(#SVGID_00000019677803013571785970000015916013756568541117_);" d="M739.127,1881.881
				c0,0,6.669,30.71,3.27,55.932c-3.073,22.795-44.429,47.566-52.292,54.556c-7.861,6.988,21.77,13.481,48.66,9.176
				c26.887-4.303,100.109-30.065,110.961-43.566c10.854-13.5-13.266-6.311-33.779-8.222c-20.513-1.91-41.006-35.61-42.102-53.077
				C772.747,1879.211,739.127,1881.881,739.127,1881.881z"/>
			<g>
				
					<linearGradient id="SVGID_00000044883155781739842840000003627708076398296732_" gradientUnits="userSpaceOnUse" x1="-1775.3774" y1="941.3207" x2="-1681.7203" y2="1040.0402" gradientTransform="matrix(0.9582 -0.2859 0.2859 0.9582 2099.72 418.7449)">
					<stop  offset="0" style="stop-color:#AB316D"/>
					<stop  offset="1" style="stop-color:#792D3D"/>
				</linearGradient>
				<path style="fill:url(#SVGID_00000044883155781739842840000003627708076398296732_);" d="M748.588,1904.673
					c0,0,20.921,8.481,38.803-6.676c16.01-13.573-9.505-53.127-26.188-53.164c-5.566-0.013-13.568,4.204-18.193,10.169
					c-2.732,3.524-2.834,5.823-7.411,11.494c-4.219,5.229-6.127,5.745-6.718,8.242c-0.742,3.123,0.832,8.265,12.307,16.852
					c-5.62-0.871-10.398,0.741-12.172,4.053c-0.282,0.529-0.855,2.172-0.622,3.844
					C729.239,1905.542,737.254,1908.127,748.588,1904.673z"/>
			</g>
			
				<linearGradient id="SVGID_00000170979233604694513420000001395005330840218018_" gradientUnits="userSpaceOnUse" x1="4826.666" y1="701.8978" x2="4768.7729" y2="608.704" gradientTransform="matrix(-0.892 0.452 0.452 0.892 5252.9028 -919.28)">
				<stop  offset="0" style="stop-color:#AB316D"/>
				<stop  offset="1" style="stop-color:#792D3D"/>
			</linearGradient>
			<path style="fill:url(#SVGID_00000170979233604694513420000001395005330840218018_);" d="M1253.464,1804.07
				c0,0,12.175-3.394,5.127-26.57c-5.525-18.167-4.067-24.721,0.759-22.018c4.826,2.704,6.886,13.354,6.886,13.354
				s14.162-15.786,18.349-34.544c4.186-18.758,10.44-4.274,13.05,4.474c2.611,8.748-4.484,37.951-9.904,43.946
				c-5.42,5.994-11.297,29.998-11.297,29.998L1253.464,1804.07z"/>
			
				<linearGradient id="SVGID_00000067199278224504086010000004455628616071830719_" gradientUnits="userSpaceOnUse" x1="-1343.9453" y1="3220.6018" x2="-1406.8779" y2="3013.0942" gradientTransform="matrix(0.9999 -0.0148 0.0148 0.9999 2341.6506 -6.0882)">
				<stop  offset="0" style="stop-color:#444B8C"/>
				<stop  offset="0.9964" style="stop-color:#26264F"/>
			</linearGradient>
			<path style="fill:url(#SVGID_00000067199278224504086010000004455628616071830719_);" d="M982.694,3134.431
				c-6.063,13.316-4.095,18.908-2.421,21.345c4.908,7.149,16.022-0.053,45.653,2.599c3.475,0.313,10.11,1.017,18.303-1.162
				c7.019-1.868,15.242-5.867,14.832-7.75c-0.15-0.686-1.413-0.926-1.892-1.013c-8.245-1.513-59.995-15.789-59.995-15.789
				L982.694,3134.431z"/>
			
				<linearGradient id="SVGID_00000122720513380004568420000011996577574930744710_" gradientUnits="userSpaceOnUse" x1="-2756.3054" y1="2071.5254" x2="-2756.3054" y2="1738.1749" gradientTransform="matrix(0.9761 -0.2175 0.2175 0.9761 3241.1943 571.3373)">
				<stop  offset="0" style="stop-color:#AB316D"/>
				<stop  offset="1" style="stop-color:#792D3D"/>
			</linearGradient>
			<path style="fill:url(#SVGID_00000122720513380004568420000011996577574930744710_);" d="M970.827,3108.48l9.356,22.902
				c1.435,3.514,4.775,5.893,8.566,6.068c3.846,0.177,7.995-1.044,8.377-6.988c0.522-8.127-4.389-28.53-4.389-28.53L970.827,3108.48
				z"/>
			
				<linearGradient id="SVGID_00000011013221100436416610000002225161263626459306_" gradientUnits="userSpaceOnUse" x1="-1776.8381" y1="3136.4663" x2="-1776.8381" y2="2803.0869" gradientTransform="matrix(0.9999 -0.0148 0.0148 0.9999 2341.6506 -6.0882)">
				<stop  offset="0" style="stop-color:#AB316D"/>
				<stop  offset="1" style="stop-color:#792D3D"/>
			</linearGradient>
			<polygon style="fill:url(#SVGID_00000011013221100436416610000002225161263626459306_);" points="625.251,3079.643 
				613.84,3113.798 595.768,3111.447 599.043,3080.03 			"/>
			
				<linearGradient id="SVGID_00000116951645364699739170000001281484208042871186_" gradientUnits="userSpaceOnUse" x1="-1753.6594" y1="3149.0679" x2="-1816.5911" y2="2941.5632" gradientTransform="matrix(0.9999 -0.0148 0.0148 0.9999 2341.6506 -6.0882)">
				<stop  offset="0" style="stop-color:#444B8C"/>
				<stop  offset="0.9964" style="stop-color:#26264F"/>
			</linearGradient>
			<path style="fill:url(#SVGID_00000116951645364699739170000001281484208042871186_);" d="M608.77,3132.574
				c-9.003-10.083-16.75-8.924-18.522-15.979c-1.393-5.544,1.829-12.484,6.909-15.231c7.14-3.859,16.079,1.594,18.098,2.825
				c13.718,8.369,10.442,22.165,23.31,27.74c2.59,1.122,6.676,2.273,11.059,6.151c1.861,1.647,6.472,5.726,5.503,8.654
				c-1.12,3.386-9.13,3.499-16.745,3.607c-9.138,0.13-13.706,0.198-18.178-2.419C614.007,3144.297,615.719,3140.356,608.77,3132.574
				z"/>
			
				<linearGradient id="SVGID_00000088129328975406458880000018075331721847490200_" gradientUnits="userSpaceOnUse" x1="-244.209" y1="3301.1406" x2="-274.8262" y2="3990.03" gradientTransform="matrix(0.9823 0.187 -0.187 0.9823 1564.3835 -737.8535)">
				<stop  offset="0" style="stop-color:#311944"/>
				<stop  offset="1" style="stop-color:#893976"/>
			</linearGradient>
			<path style="fill:url(#SVGID_00000088129328975406458880000018075331721847490200_);" d="M633.378,2373.164
				c-8.566,67.852-9.046,126.978-6.331,175.723c2.92,52.438,7.827,62.177,5.768,97.81c-4.481,77.537-30.792,84.683-48.619,170.358
				c-19.684,94.602-5.999,174.309-0.485,204.76c4.823,26.62,10.801,48.439,15.479,63.673c7.57,8.97,21.39,8.103,35.928,7.407
				c18.519-85.705,37.532-166.116,56.051-251.821c36.792-127.555,73.583-255.105,110.376-382.658
				C745.489,2429.997,689.433,2401.583,633.378,2373.164z"/>
			
				<linearGradient id="SVGID_00000047772294222343113000000012566650794646835886_" gradientUnits="userSpaceOnUse" x1="-244.209" y1="3301.1404" x2="-274.8262" y2="3990.0295" gradientTransform="matrix(0.9823 0.187 -0.187 0.9823 1564.3835 -737.8535)">
				<stop  offset="0" style="stop-color:#311944"/>
				<stop  offset="1" style="stop-color:#893976"/>
			</linearGradient>
			<path style="opacity:0.3;fill:url(#SVGID_00000047772294222343113000000012566650794646835886_);" d="M635.119,3092.895
				c18.519-85.705,37.532-166.116,56.051-251.821c36.792-127.555,73.583-255.105,110.376-382.658
				c-56.057-28.419-112.112-56.833-168.168-85.253c-0.567,4.493-1.007,8.843-1.507,13.263
				c71.743,84.681,79.177,144.155,72.381,182.894c-8.242,46.985-37.615,66.38-43.107,135.499
				c-3.926,49.42,9.438,60.292,2.64,104.386c-8.756,56.779-38.043,84.95-54.966,115.934
				c-16.355,29.945-27.356,74.232-15.037,141.531c1.894,7.046,3.735,13.372,5.408,18.819
				C606.761,3094.457,620.581,3093.592,635.119,3092.895z"/>
			
				<linearGradient id="SVGID_00000157274945472508969140000018424149362951021488_" gradientUnits="userSpaceOnUse" x1="-1101.907" y1="2738.2795" x2="-1781.1066" y2="2707.4063" gradientTransform="matrix(0.9999 -0.0148 0.0148 0.9999 2341.6506 -6.0882)">
				<stop  offset="0" style="stop-color:#311944"/>
				<stop  offset="1" style="stop-color:#893976"/>
			</linearGradient>
			<path style="fill:url(#SVGID_00000157274945472508969140000018424149362951021488_);" d="M731.885,2452.554
				c2.254,32.366,9.049,81.243,31.675,135.429c30.332,72.64,61.778,89.356,76.344,150.375c15.211,63.719-8.576,89.509-8.132,148.569
				c0.415,55.313,22.038,133.785,120.659,229.608c15.486-1.855,30.971-3.711,46.456-5.567
				c-13.819-47.415-32.494-121.442-43.484-214.433c-5.505-46.582-7.045-80.687-7.703-93.458
				c-3.992-77.439-18.785-208.887-66.674-445.438C831.312,2389.275,781.599,2420.913,731.885,2452.554z"/>
			
				<linearGradient id="SVGID_00000084517260775601039390000000263222610452744856_" gradientUnits="userSpaceOnUse" x1="930.1641" y1="2066.2114" x2="1005.0361" y2="2371.2446">
				<stop  offset="0" style="stop-color:#FFC444"/>
				<stop  offset="0.9964" style="stop-color:#F36F56"/>
			</linearGradient>
			<path style="fill:url(#SVGID_00000084517260775601039390000000263222610452744856_);" d="M1304.61,1795.613
				c-37.521,74.193-63.549,130.927-86.856,173.652c-31.76,58.197-58.489,90.425-102.269,105.514
				c-47.959,16.524-97.352,20.618-131.628,66.181c-47.725,63.401-36.378,167.394-32.754,200.645
				c7.225,66.034,24.858,85.568,9.944,120.019c-20.12,46.468-73.608,63.986-107.998,75.246c-2.896,0.935-8.89,2.866-17.255,5.118
				c-2.602,0.731-5.44,1.462-8.479,2.193c-4.769,1.198-10.033,2.427-15.736,3.625c-3.216,0.673-6.549,1.317-10.001,1.959
				c-0.934,0.147-1.871,0.323-2.807,0.498c-3.361,0.584-6.843,1.17-10.41,1.695c-0.82,0.117-1.639,0.234-2.456,0.351
				c-6.786,0.995-13.891,1.813-21.202,2.427c-0.731,0.03-1.462,0.088-2.193,0.176c-12.166,0.935-24.889,1.258-37.726,0.614
				c-5.703-0.263-11.464-0.731-17.167-1.462c-15.996-1.931-31.906-5.615-46.848-11.726c-1.054-0.44-2.136-0.907-3.187-1.346
				c-16.496-7.105-31.732-17.313-44.598-31.438c-27.434-30.121-32.023-64.893-39.597-122.299
				c-4.124-31.349-4.038-56.879,14.708-203.658c14.682-114.784,18.192-126.979,28.545-143.208
				c39.391-61.793,113.087-80.363,155.375-90.423c134.29-31.906,206.172,7.253,307.122-6.376
				c66.853-9.007,74.896-51.09,181.198-161.75C1270.365,1787.191,1294.577,1790.261,1304.61,1795.613z"/>
			<g style="opacity:0.3;">
				
					<linearGradient id="SVGID_00000153698988234857996280000002529814440681144454_" gradientUnits="userSpaceOnUse" x1="872.0572" y1="2166.9734" x2="1046.0833" y2="2431.7959">
					<stop  offset="0" style="stop-color:#FFC444"/>
					<stop  offset="0.9964" style="stop-color:#F36F56"/>
				</linearGradient>
				<path style="fill:url(#SVGID_00000153698988234857996280000002529814440681144454_);" d="M1217.754,1969.265
					c-31.76,58.197-58.489,90.425-102.269,105.514c-47.959,16.524-97.352,20.618-131.628,66.181
					c-47.725,63.401-36.378,167.394-32.754,200.645c7.225,66.034,24.858,85.568,9.944,120.019
					c-20.12,46.468-73.608,63.986-107.998,75.246c-2.896,0.935-8.89,2.866-17.255,5.118c-2.602,0.701-5.44,1.462-8.479,2.193
					c-4.769,1.198-10.033,2.427-15.736,3.625c-3.187,0.644-6.52,1.317-10.001,1.959c-0.934,0.147-1.871,0.323-2.807,0.498
					c-3.361,0.584-6.843,1.14-10.41,1.695c-0.82,0.117-1.639,0.234-2.456,0.351c-6.786,0.965-13.891,1.785-21.202,2.427
					c-0.731,0.03-1.462,0.088-2.193,0.176c-12.166,0.907-24.889,1.228-37.726,0.614c-5.703-0.293-11.435-0.79-17.167-1.462
					c-15.996-1.959-31.875-5.645-46.848-11.726c-1.054-0.44-2.136-0.907-3.187-1.346c-8.482-3.684-16.613-8.158-24.275-13.568
					c9.682-20.325,23.044-40.708,41.907-58.723c40.125-38.339,64.749-27.636,89.021-57.846
					c56.061-69.835-33.485-179.618,15.879-234.89c39.54-44.276,118.762,1.638,161.78-50.709
					c28.542-34.713,1.111-63.928,26.32-99.724C1007.546,1969.675,1099.577,2004.916,1217.754,1969.265z"/>
			</g>
		</g>
		<g>
			<g>
				<path style="fill:#D8DEE8;" d="M2502.061,1088.942c14.048,7.132,31.698,0.583,39.421-14.628
					c7.723-15.211,2.595-33.325-11.453-40.458c-0.728-0.37-1.471-0.68-2.216-0.977c2.61-8.417,4.578-16.9,5.898-25.386
					c0.805-0.002,1.613-0.016,2.434-0.089c16.028-1.429,28.748-16.156,28.413-32.897c-0.335-16.74-13.601-29.152-29.628-27.724
					c-0.838,0.075-1.661,0.207-2.479,0.353c-1.674-8.295-3.968-16.4-6.862-24.242c0.737-0.432,1.47-0.877,2.188-1.379
					c13.712-9.606,18.097-28.568,9.792-42.351c-8.304-13.783-26.153-17.167-39.866-7.561c-0.703,0.493-1.364,1.024-2.017,1.564
					c-5.417-5.987-11.356-11.536-17.783-16.6c0.452-0.741,0.894-1.491,1.294-2.279c7.723-15.211,17.815-31.828,3.657-38.739
					c-32.752-15.989-46.807-2.302-54.531,12.91c-0.4,0.788-0.745,1.588-1.076,2.39c-7.881-2.201-15.865-3.722-23.896-4.562
					c0.051-0.846,0.089-1.693,0.073-2.551c-0.336-16.739,4.631-25.798-11.457-26.111c-35.083-0.682-46.92,14.546-46.584,31.285
					c0.018,0.875,0.091,1.731,0.177,2.58c-8.04,2.292-15.936,5.222-23.621,8.766c-0.365-0.747-0.744-1.489-1.178-2.21
					c-8.304-13.783-26.153-17.167-39.866-7.56c-13.713,9.607-18.097,28.568-9.792,42.351c0.425,0.706,0.892,1.367,1.365,2.018
					c-6.073,6.073-11.76,12.668-17.015,19.742c-0.679-0.427-1.369-0.843-2.097-1.212c-14.048-7.133-31.698-0.584-39.421,14.628
					c-7.723,15.212-2.595,33.325,11.453,40.458c0.728,0.37,1.471,0.68,2.216,0.977c-2.61,8.417-4.578,16.9-5.898,25.386
					c-0.805,0.002-1.614,0.016-2.434,0.088c-16.028,1.43-28.749,16.158-28.413,32.898c0.335,16.74,13.601,29.152,29.629,27.723
					c0.837-0.075,1.66-0.206,2.478-0.352c1.674,8.296,3.968,16.4,6.862,24.243c-0.737,0.432-1.471,0.877-2.187,1.379
					c-13.713,9.607-18.096,28.568-9.792,42.351c8.304,13.783,35.798,20.186,49.51,10.579c0.703-0.492-8.281-4.042-7.628-4.582
					c5.417,5.987,11.356,11.536,17.783,16.6c-0.451,0.741-0.894,1.491-1.294,2.28c-7.723,15.211-2.595,33.325,11.453,40.457
					c14.048,7.132,31.698,0.584,39.421-14.628c0.4-0.788,0.745-1.589,1.076-2.39c7.881,2.2,15.865,3.722,23.895,4.561
					c-0.05,0.846-0.089,1.693-0.072,2.551c0.336,16.739,13.601,29.152,29.629,27.723c16.028-1.429,28.749-16.157,28.413-32.897
					c-0.018-0.875-0.091-1.73-0.177-2.58c8.04-2.292,15.936-5.222,23.621-8.766c0.365,0.746,0.744,1.489,1.178,2.209
					c8.304,13.783,26.153,17.168,39.865,7.561c13.713-9.607,18.097-28.568,9.792-42.352c-0.426-0.706-0.892-1.366-1.365-2.017
					c6.073-6.073,11.76-12.668,17.015-19.742C2500.644,1088.156,2501.333,1088.573,2502.061,1088.942z M2326.935,1091.164
					c-51.006-25.897-69.623-91.663-41.582-146.892c28.041-55.23,92.122-79.008,143.128-53.111
					c51.006,25.897,69.623,91.663,41.582,146.892C2442.022,1093.283,2377.941,1117.061,2326.935,1091.164z"/>
				<path style="fill:#D8DEE8;" d="M2536.145,1007.404c16.028-1.429,28.748-16.157,28.413-32.897
					c-0.335-16.74-13.601-29.153-29.628-27.723c-0.838,0.075-1.661,0.207-2.479,0.352c-1.674-8.296-3.968-16.399-6.862-24.242
					c0.737-0.431,1.47-0.877,2.188-1.379c13.712-9.607,30.677-32.82,21.003-45.678c-18.362-24.403-37.364-13.84-51.076-4.234
					c-0.703,0.493-1.364,1.024-2.017,1.563c-5.417-5.987-11.357-11.535-17.783-16.599c0.452-0.741,0.894-1.491,1.294-2.279
					c4.203-8.279,4.574-17.407,1.798-25.166c-13.245,23.311-26.311,46.721-39.143,70.258
					c40.691,29.818,53.646,88.578,28.211,138.674c-21.553,42.452-64.398,66.289-106.232,63.302
					c-1.866,4.839-3.698,9.705-5.697,14.498c-5.423,13.007-11.583,25.746-17.752,38.469c3.88,0.731,7.776,1.307,11.683,1.716
					c-0.05,0.846-0.089,1.694-0.072,2.551c0.336,16.74,10.499,30.962,39.547,29.422c16.069-0.852,18.83-17.855,18.495-34.595
					c-0.018-0.874-0.09-1.73-0.177-2.58c8.04-2.292,15.936-5.222,23.621-8.766c0.365,0.747,0.744,1.489,1.178,2.209
					c8.304,13.783,37.114,19.639,50.826,10.032c13.713-9.608,7.135-31.039-1.169-44.822c-0.426-0.706-0.892-1.366-1.365-2.018
					c6.073-6.073,11.76-12.668,17.014-19.741c0.68,0.426,1.369,0.843,2.097,1.211c14.048,7.134,31.698,0.584,39.421-14.628
					c7.723-15.21,2.595-33.325-11.453-40.457c-0.728-0.37-1.471-0.68-2.216-0.977c2.61-8.417,4.578-16.9,5.898-25.385
					C2534.516,1007.491,2535.324,1007.477,2536.145,1007.404z"/>
				<path style="fill:#FFFFFF;" d="M2517.17,1090.66c14.048,7.132,31.698,0.583,39.421-14.628
					c7.723-15.211,2.596-33.325-11.453-40.457c-0.728-0.37-1.47-0.68-2.216-0.977c2.61-8.417,4.578-16.9,5.898-25.386
					c0.805-0.002,1.613-0.016,2.435-0.089c16.028-1.429,28.748-16.157,28.413-32.897c-0.336-16.74-13.601-29.153-29.629-27.724
					c-0.838,0.075-1.66,0.207-2.479,0.353c-1.674-8.296-3.968-16.4-6.862-24.242c0.737-0.431,1.471-0.877,2.188-1.379
					c13.712-9.607,18.097-28.568,9.792-42.351c-8.304-13.783-26.153-17.168-39.865-7.561c-0.703,0.492-1.364,1.024-2.017,1.563
					c-5.416-5.987-11.356-11.536-17.783-16.6c0.452-0.741,0.894-1.492,1.294-2.279c7.723-15.211,2.596-33.325-11.452-40.458
					c-14.048-7.133-31.698-0.583-39.421,14.628c-0.4,0.788-0.745,1.589-1.077,2.39c-7.881-2.201-15.865-3.722-23.895-4.562
					c0.05-0.846,0.089-1.693,0.072-2.551c-0.336-16.74-13.601-29.152-29.629-27.723c-16.028,1.428-28.749,16.157-28.413,32.896
					c0.017,0.875,0.09,1.73,0.177,2.58c-8.04,2.292-15.935,5.222-23.621,8.766c-0.365-0.747-0.744-1.489-1.178-2.21
					c-8.305-13.782-26.153-17.167-39.866-7.56c-13.713,9.608-18.097,28.569-9.792,42.351c0.425,0.706,0.892,1.367,1.365,2.018
					c-6.072,6.073-11.76,12.668-17.015,19.742c-0.679-0.426-1.368-0.843-2.097-1.212c-14.048-7.133-31.697-0.583-39.42,14.628
					c-7.723,15.211-2.596,33.325,11.452,40.458c0.728,0.37,1.471,0.68,2.216,0.977c-2.61,8.417-4.578,16.9-5.897,25.386
					c-0.805,0.002-1.614,0.016-2.434,0.088c-16.028,1.43-28.749,16.157-28.413,32.898c0.335,16.74,13.601,29.151,29.629,27.723
					c0.837-0.074,1.66-0.206,2.478-0.352c1.674,8.296,3.968,16.4,6.862,24.243c-0.737,0.431-1.471,0.877-2.188,1.379
					c-13.712,9.607-18.097,28.568-9.792,42.351c8.305,13.783,26.153,17.167,39.865,7.561c0.703-0.493,1.364-1.024,2.017-1.564
					c5.416,5.988,11.356,11.536,17.783,16.6c-0.452,0.741-0.895,1.491-1.294,2.279c-7.723,15.211-2.596,33.325,11.453,40.458
					c14.048,7.133,31.698,0.583,39.421-14.628c0.4-0.788,0.745-1.588,1.076-2.39c7.881,2.2,15.866,3.722,23.896,4.561
					c-0.05,0.846-0.089,1.693-0.073,2.551c0.336,16.739,13.601,29.152,29.629,27.723s28.749-16.157,28.413-32.897
					c-0.017-0.875-0.09-1.73-0.177-2.58c8.04-2.292,15.936-5.222,23.621-8.765c0.365,0.746,0.745,1.489,1.179,2.208
					c8.304,13.783,26.152,17.168,39.865,7.561c13.713-9.608,18.097-28.568,9.793-42.352c-0.426-0.705-0.892-1.366-1.365-2.017
					c6.073-6.073,11.76-12.668,17.015-19.741C2515.753,1089.874,2516.442,1090.29,2517.17,1090.66z M2342.045,1092.882
					c-51.006-25.897-69.624-91.662-41.582-146.892c28.041-55.229,92.121-79.007,143.127-53.111
					c51.006,25.897,69.623,91.663,41.582,146.892C2457.132,1095.001,2393.052,1118.779,2342.045,1092.882z"/>
			</g>
			<g>
				<path style="fill:#D8DEE8;" d="M2035.193,1508.936c27.519,13.972,62.092,1.143,77.221-28.654
					c15.128-29.797,5.084-65.28-22.435-79.252c-1.426-0.724-2.881-1.332-4.34-1.915c5.113-16.488,8.968-33.105,11.553-49.728
					c1.577-0.004,3.16-0.031,4.769-0.174c31.396-2.799,56.315-31.649,55.658-64.441c-0.657-32.792-26.643-57.107-58.039-54.308
					c-1.642,0.147-3.253,0.406-4.856,0.691c-3.28-16.25-7.773-32.125-13.442-47.488c1.444-0.845,2.881-1.719,4.285-2.702
					c26.861-18.818,35.449-55.962,19.182-82.96c-16.268-26.999-51.231-33.629-78.092-14.811c-1.377,0.965-2.672,2.006-3.951,3.063
					c-10.61-11.729-22.245-22.598-34.835-32.517c0.885-1.452,1.751-2.921,2.535-4.465c15.129-29.798,34.898-62.347,7.164-75.886
					c-64.158-31.32-91.69-4.509-106.819,25.288c-0.783,1.544-1.459,3.111-2.109,4.682c-15.438-4.31-31.079-7.291-46.808-8.935
					c0.099-1.656,0.175-3.316,0.142-4.997c-0.658-32.791,9.071-50.536-22.444-51.149c-68.724-1.336-91.911,28.493-91.254,61.283
					c0.034,1.714,0.177,3.39,0.347,5.054c-15.749,4.489-31.216,10.229-46.271,17.171c-0.715-1.463-1.458-2.916-2.308-4.329
					c-16.268-26.999-51.231-33.629-78.093-14.809c-26.862,18.82-35.449,55.962-19.182,82.96c0.833,1.384,1.746,2.677,2.673,3.953
					c-11.896,11.897-23.036,24.815-33.329,38.672c-1.331-0.835-2.682-1.651-4.107-2.375c-27.519-13.972-62.092-1.143-77.221,28.654
					c-15.129,29.797-5.084,65.28,22.434,79.252c1.426,0.724,2.882,1.332,4.341,1.914c-5.113,16.488-8.968,33.105-11.553,49.728
					c-1.577,0.005-3.16,0.031-4.768,0.173c-31.398,2.801-56.316,31.651-55.659,64.443c0.658,32.792,26.643,57.105,58.04,54.306
					c1.64-0.146,3.253-0.404,4.855-0.69c3.279,16.251,7.773,32.125,13.442,47.489c-1.444,0.845-2.881,1.718-4.285,2.702
					c-26.861,18.818-35.449,55.962-19.182,82.961c16.268,26.999,70.125,39.542,96.985,20.723c1.377-0.965-16.222-7.919-14.943-8.975
					c10.61,11.728,22.246,22.598,34.835,32.517c-0.884,1.451-1.751,2.921-2.535,4.465c-15.129,29.797-5.084,65.28,22.435,79.252
					c27.519,13.972,62.092,1.143,77.221-28.654c0.784-1.544,1.459-3.111,2.108-4.682c15.438,4.311,31.079,7.291,46.809,8.936
					c-0.098,1.656-0.175,3.316-0.141,4.997c0.658,32.791,26.643,57.105,58.039,54.306c31.397-2.799,56.316-31.651,55.658-64.441
					c-0.034-1.714-0.178-3.389-0.348-5.054c15.75-4.489,31.217-10.228,46.271-17.17c0.716,1.462,1.459,2.916,2.308,4.326
					c16.268,26.999,51.23,33.63,78.093,14.81c26.862-18.82,35.449-55.962,19.182-82.962c-0.833-1.382-1.746-2.675-2.674-3.951
					c11.895-11.896,23.036-24.815,33.329-38.672C2032.417,1507.397,2033.767,1508.213,2035.193,1508.936z M1692.141,1513.289
					c-99.916-50.729-136.384-179.557-81.454-287.744c54.929-108.189,180.456-154.768,280.371-104.038
					c99.916,50.729,136.384,179.557,81.455,287.745C1917.583,1517.44,1792.057,1564.018,1692.141,1513.289z"/>
				<path style="fill:#D8DEE8;" d="M2101.96,1349.214c31.396-2.8,56.315-31.651,55.658-64.442
					c-0.657-32.791-26.643-57.106-58.039-54.307c-1.642,0.146-3.253,0.406-4.856,0.69c-3.279-16.251-7.773-32.124-13.442-47.488
					c1.444-0.844,2.881-1.719,4.285-2.703c26.861-18.818,60.093-64.29,41.142-89.477c-35.969-47.803-73.192-27.112-100.053-8.293
					c-1.377,0.965-2.672,2.006-3.95,3.062c-10.61-11.729-22.246-22.597-34.836-32.517c0.885-1.452,1.751-2.921,2.535-4.464
					c8.234-16.218,8.96-34.097,3.522-49.298c-25.945,45.665-51.541,91.521-76.677,137.626
					c79.71,58.41,105.086,173.515,55.263,271.648c-42.221,83.158-126.149,129.852-208.097,124.001
					c-3.656,9.48-7.245,19.012-11.16,28.401c-10.623,25.479-22.69,50.434-34.774,75.356c7.6,1.432,15.232,2.56,22.886,3.362
					c-0.098,1.658-0.175,3.318-0.141,4.998c0.658,32.791,20.566,60.652,77.468,57.633c31.477-1.669,36.887-34.977,36.229-67.768
					c-0.034-1.713-0.177-3.389-0.347-5.054c15.749-4.489,31.216-10.229,46.27-17.171c0.716,1.463,1.459,2.916,2.309,4.327
					c16.268,27,72.702,38.471,99.563,19.651c26.862-18.82,13.978-60.802-2.29-87.802c-0.833-1.383-1.746-2.676-2.673-3.953
					c11.895-11.896,23.036-24.814,33.329-38.671c1.332,0.836,2.681,1.652,4.107,2.373c27.519,13.974,62.092,1.143,77.221-28.654
					c15.128-29.796,5.084-65.28-22.435-79.251c-1.426-0.724-2.881-1.332-4.341-1.914c5.113-16.488,8.968-33.106,11.553-49.728
					C2098.769,1349.383,2100.352,1349.356,2101.96,1349.214z"/>
				<path style="fill:#FFFFFF;" d="M2064.791,1512.302c27.519,13.972,62.092,1.143,77.221-28.655
					c15.129-29.797,5.085-65.279-22.435-79.252c-1.426-0.724-2.881-1.332-4.34-1.914c5.113-16.488,8.967-33.105,11.552-49.729
					c1.578-0.004,3.16-0.031,4.769-0.174c31.396-2.799,56.315-31.649,55.658-64.441c-0.657-32.792-26.642-57.107-58.039-54.308
					c-1.641,0.147-3.253,0.406-4.856,0.691c-3.28-16.251-7.773-32.125-13.442-47.488c1.444-0.845,2.881-1.718,4.285-2.702
					c26.861-18.818,35.449-55.962,19.181-82.961c-16.268-26.999-51.231-33.629-78.092-14.81c-1.377,0.965-2.672,2.006-3.951,3.063
					c-10.609-11.728-22.246-22.597-34.835-32.517c0.885-1.451,1.751-2.922,2.535-4.465c15.129-29.797,5.085-65.28-22.434-79.252
					c-27.519-13.972-62.092-1.143-77.221,28.654c-0.784,1.543-1.459,3.111-2.109,4.682c-15.438-4.31-31.079-7.29-46.808-8.935
					c0.098-1.657,0.174-3.316,0.141-4.997c-0.658-32.791-26.643-57.105-58.04-54.306c-31.397,2.798-56.315,31.651-55.658,64.44
					c0.035,1.715,0.178,3.389,0.347,5.054c-15.749,4.49-31.216,10.229-46.271,17.171c-0.715-1.463-1.458-2.916-2.307-4.329
					c-16.268-26.999-51.231-33.629-78.093-14.809c-26.862,18.821-35.449,55.962-19.182,82.961c0.833,1.383,1.746,2.677,2.673,3.953
					c-11.895,11.897-23.036,24.814-33.33,38.672c-1.331-0.835-2.681-1.651-4.107-2.375c-27.519-13.973-62.091-1.143-77.22,28.654
					c-15.129,29.797-5.085,65.28,22.434,79.251c1.426,0.724,2.881,1.332,4.341,1.915c-5.113,16.488-8.968,33.105-11.553,49.728
					c-1.577,0.005-3.161,0.031-4.768,0.173c-31.397,2.801-56.316,31.651-55.658,64.443c0.657,32.792,26.643,57.104,58.039,54.306
					c1.64-0.146,3.253-0.404,4.854-0.69c3.28,16.251,7.773,32.125,13.442,47.489c-1.444,0.845-2.882,1.718-4.285,2.702
					c-26.861,18.818-35.449,55.962-19.182,82.96c16.268,26.999,51.231,33.629,78.092,14.811c1.377-0.965,2.672-2.006,3.951-3.064
					c10.61,11.729,22.246,22.598,34.835,32.518c-0.884,1.451-1.752,2.921-2.535,4.465c-15.129,29.797-5.084,65.28,22.435,79.252
					c27.519,13.972,62.092,1.143,77.221-28.655c0.784-1.543,1.459-3.111,2.109-4.681c15.438,4.31,31.079,7.29,46.808,8.935
					c-0.098,1.657-0.175,3.317-0.141,4.997c0.658,32.79,26.643,57.105,58.039,54.306c31.396-2.799,56.316-31.651,55.658-64.441
					c-0.034-1.714-0.178-3.389-0.348-5.054c15.75-4.489,31.217-10.229,46.271-17.171c0.716,1.462,1.458,2.916,2.309,4.326
					c16.268,26.999,51.23,33.631,78.092,14.811c26.862-18.82,35.449-55.962,19.182-82.962c-0.834-1.382-1.747-2.676-2.674-3.952
					c11.896-11.896,23.036-24.814,33.33-38.672C2062.015,1510.762,2063.365,1511.578,2064.791,1512.302z M1721.74,1516.655
					c-99.915-50.729-136.384-179.556-81.454-287.745c54.93-108.188,180.455-154.767,280.371-104.038
					c99.916,50.729,136.384,179.557,81.455,287.745C1947.181,1520.805,1821.656,1567.384,1721.74,1516.655z"/>
			</g>
		</g>
		<g>
			<g>
				<g>
					<path style="fill:#FFFFFF;" d="M907.415,2175.634c-1.18,0-2.379-0.253-3.518-0.786c-6.176-2.886-12.288-5.84-18.165-8.777
						c-4.111-2.054-5.776-7.052-3.722-11.162c2.054-4.111,7.048-5.778,11.161-3.721c5.749,2.873,11.728,5.761,17.772,8.589
						c4.163,1.943,5.96,6.896,4.013,11.058C913.544,2173.856,910.545,2175.634,907.415,2175.634z"/>
				</g>
				<g>
					<path style="fill:#FFFFFF;" d="M1372.609,2267.376c-7.461,0-14.849-0.058-22.164-0.169c-4.593-0.072-8.26-4.486-8.191-9.081
						c0.068-4.549,3.779-8.827,8.314-8.827c0.044,0,0.086,0,0.13,0c7.429,0,14.945,0.209,22.525,0.132
						c5.593,0,11.223-0.132,16.9-0.132c0.029,0,0.06,0,0.091,0c4.553,0,8.267,4.338,8.317,8.901c0.049,4.595-3.635,8.698-8.23,8.746
						C1384.358,2267.011,1378.481,2267.393,1372.609,2267.376z M1449.636,2265.524c-4.413,0-8.09-3.468-8.303-7.923
						c-0.219-4.589,3.323-8.488,7.913-8.706c12.904-0.617,26.153-1.404,39.377-2.343c4.6-0.334,8.561,3.126,8.886,7.711
						c0.325,4.582-3.128,8.563-7.71,8.888c-13.351,0.946-26.728,1.739-39.76,2.362
						C1449.904,2265.521,1449.769,2265.524,1449.636,2265.524z M1291.164,2265.095c-0.159,0-0.318-0.003-0.479-0.013
						c-13.361-0.757-26.744-1.712-39.778-2.833c-4.579-0.396-7.97-4.426-7.575-9.005c0.395-4.579,4.483-7.929,9.001-7.575
						c12.873,1.111,26.094,2.054,39.294,2.801c4.587,0.26,8.095,4.189,7.835,8.777
						C1299.21,2261.674,1295.542,2265.095,1291.164,2265.095z M1548.434,2257.979c-4.208,0-7.82-3.181-8.265-7.458
						c-0.474-4.572,2.845-8.66,7.416-9.135c12.828-1.332,26.021-2.844,39.213-4.485c4.571-0.601,8.717,2.668,9.284,7.227
						c0.567,4.559-2.668,8.715-7.227,9.281c-13.304,1.657-26.611,3.181-39.551,4.523
						C1549.011,2257.966,1548.721,2257.979,1548.434,2257.979z M1192.532,2255.792c-0.367,0-0.739-0.023-1.113-0.075
						c-13.268-1.774-26.548-3.776-39.47-5.95c-4.531-0.763-7.586-5.053-6.824-9.586c0.762-4.53,5.05-7.572,9.583-6.824
						c12.742,2.145,25.834,4.12,38.917,5.872c4.554,0.608,7.752,4.793,7.143,9.349
						C1200.208,2252.757,1196.637,2255.792,1192.532,2255.792z M1646.7,2245.24c-4.034,0-7.576-2.938-8.212-7.048
						c-0.702-4.54,2.409-8.79,6.949-9.492c12.885-1.992,25.994-4.143,38.966-6.395c4.535-0.812,8.833,2.246,9.62,6.772
						c0.785,4.527-2.247,8.833-6.774,9.619c-13.073,2.271-26.284,4.439-39.268,6.447
						C1647.552,2245.208,1647.123,2245.24,1646.7,2245.24z M1094.992,2238.468c-0.603,0-1.214-0.068-1.826-0.205
						c-13.039-2.918-26.099-6.106-38.817-9.472c-4.442-1.176-7.089-5.729-5.913-10.171c1.173-4.439,5.719-7.097,10.17-5.914
						c12.514,3.315,25.365,6.451,38.196,9.323c4.483,1.004,7.304,5.453,6.299,9.934
						C1102.236,2235.836,1098.799,2238.468,1094.992,2238.468z M999.498,2212.12c-0.869,0-1.753-0.14-2.622-0.426
						c-12.737-4.231-25.415-8.751-37.684-13.44c-4.291-1.638-6.441-6.447-4.801-10.74c1.641-4.293,6.446-6.441,10.742-4.8
						c12.038,4.598,24.483,9.037,36.985,13.187c4.361,1.449,6.722,6.158,5.274,10.519
						C1006.233,2209.91,1002.985,2212.12,999.498,2212.12z"/>
				</g>
				<g>
					<path style="fill:#FFFFFF;" d="M1744.362,2227.865c-3.883,0-7.355-2.729-8.148-6.684c-0.903-4.504,2.016-8.888,6.52-9.791
						c6.462-1.297,12.959-2.629,19.493-3.997c4.494-0.936,8.907,1.947,9.846,6.441c0.939,4.498-1.943,8.904-6.441,9.846
						c-6.579,1.375-13.122,2.72-19.626,4.023C1745.454,2227.813,1744.903,2227.865,1744.362,2227.865z"/>
				</g>
			</g>
			<g>
				<path style="fill:#FFFFFF;" d="M1757.512,2274.038c-1.17,0-2.358-0.25-3.489-0.773c-4.169-1.927-5.986-6.873-4.057-11.042
					l23.012-49.742c-15.866-10.041-32.179-19.943-36.087-21.603c-3.745-0.813-6.55-4.143-6.55-8.131
					c0-4.595,3.724-8.319,8.319-8.319c2.701,0,5.762,0,49.407,27.934c3.503,2.242,4.811,6.723,3.066,10.499l-26.067,56.348
					C1763.662,2272.248,1760.654,2274.038,1757.512,2274.038z"/>
			</g>
			<g>
				<path style="fill:#FFFFFF;" d="M895.948,2206.872c-2.128,0-4.259-0.813-5.882-2.437c-3.656-3.653-10.197-18.988-19.446-45.576
					c-0.733-2.109-0.588-4.426,0.403-6.428c0.993-1.999,2.748-3.52,4.87-4.211l43.259-14.142c4.366-1.433,9.066,0.955,10.493,5.323
					c1.427,4.364-0.955,9.063-5.323,10.49l-35.151,11.494c5.147,14.22,10.847,28.58,12.929,31.567
					c2.977,3.266,2.887,8.329-0.27,11.484C900.206,2206.06,898.076,2206.872,895.948,2206.872z"/>
			</g>
		</g>
		<g>
			
				<linearGradient id="SVGID_00000121962801514517878910000015290823105768060326_" gradientUnits="userSpaceOnUse" x1="-767.119" y1="2961.7961" x2="-751.1469" y2="3249.2974" gradientTransform="matrix(1 0 0 1 3288.6833 0)">
				<stop  offset="0" style="stop-color:#311944"/>
				<stop  offset="1" style="stop-color:#893976"/>
			</linearGradient>
			<path style="fill:url(#SVGID_00000121962801514517878910000015290823105768060326_);" d="M2561.574,3064.027
				c0,0,1.998,15.893,0.657,21.217c-1.342,5.325-47.55,9.172-63.235,7.321c-15.684-1.852,9.343-17.872,19.337-20.88
				C2528.326,3068.679,2561.574,3064.027,2561.574,3064.027z"/>
			
				<linearGradient id="SVGID_00000018956947042112440210000009584149443715713212_" gradientUnits="userSpaceOnUse" x1="-750.3694" y1="3053.9951" x2="-726.452" y2="3053.9951" gradientTransform="matrix(1 0 0 1 3288.6833 0)">
				<stop  offset="0" style="stop-color:#FFC444"/>
				<stop  offset="0.9964" style="stop-color:#F36F56"/>
			</linearGradient>
			<path style="fill:url(#SVGID_00000018956947042112440210000009584149443715713212_);" d="M2538.314,3037.514l4.87,31.885
				c0,0,12.42,5.583,18.39,0.066l0.657-33.376L2538.314,3037.514z"/>
			
				<linearGradient id="SVGID_00000029733668704251933730000007635189017664011708_" gradientUnits="userSpaceOnUse" x1="-478.026" y1="2945.7378" x2="-462.0542" y2="3233.2327" gradientTransform="matrix(1 0 0 1 3288.6833 0)">
				<stop  offset="0" style="stop-color:#311944"/>
				<stop  offset="1" style="stop-color:#893976"/>
			</linearGradient>
			<path style="fill:url(#SVGID_00000029733668704251933730000007635189017664011708_);" d="M2798.806,3036.09
				c0,0-9.805,7.276-7.191,15.989c2.613,8.713,25.491,43.627,41.796,53.536c16.304,9.91,11.193-10.735,6.448-23.594
				c-4.745-12.859-16.868-41.183-21.602-45.931C2813.527,3031.343,2798.806,3036.09,2798.806,3036.09z"/>
			
				<linearGradient id="SVGID_00000039112226685504339470000015687062671679532967_" gradientUnits="userSpaceOnUse" x1="-507.5137" y1="3039.2473" x2="-459.9467" y2="3039.2473" gradientTransform="matrix(1 0 0 1 3288.6833 0)">
				<stop  offset="0" style="stop-color:#FFC444"/>
				<stop  offset="0.9964" style="stop-color:#F36F56"/>
			</linearGradient>
			<path style="fill:url(#SVGID_00000039112226685504339470000015687062671679532967_);" d="M2781.17,3001.059
				c4.74,13.211,9.298,24.073,12.864,32.085c7.889,17.723,12.2,24.374,17.083,30.14c4.258,5.022,14.34,15.738,17.05,13.954
				c2.752-1.809-4.624-14.838-18.84-52.995c-2.065-5.538-8.584-23.184-8.584-23.184l0,0H2781.17z"/>
			
				<linearGradient id="SVGID_00000155838437853338216400000004435559498852146338_" gradientUnits="userSpaceOnUse" x1="-757.2644" y1="3254.8838" x2="-765.2507" y2="2946.0923" gradientTransform="matrix(1 0 0 1 3288.6833 0)">
				<stop  offset="0" style="stop-color:#311944"/>
				<stop  offset="1" style="stop-color:#893976"/>
			</linearGradient>
			<path style="fill:url(#SVGID_00000155838437853338216400000004435559498852146338_);" d="M2441.544,2449.028
				c-3.382,33.207-6.626,84.746-1.775,147.299c6.323,81.498,22.619,133.068,43.055,219.963
				c12.49,53.104,29.318,131.264,44.548,229.015c3.534,2.022,13.93,7.341,27.314,5.355c7.494-1.113,13.099-4.092,16.409-6.233
				c39.958-122.098,28.156-197.763,8.873-244.904c-8.219-20.095-18.184-35.948-23.512-66.836
				c-7.048-40.866,1.667-63.711,14.095-158.373c8.859-67.47,7.326-77.899,1.431-88.017
				C2548.422,2445.84,2476.358,2446.631,2441.544,2449.028z"/>
			
				<linearGradient id="SVGID_00000131368146868179888910000001257759419435989153_" gradientUnits="userSpaceOnUse" x1="-585.6523" y1="3020.5955" x2="-593.6385" y2="2711.804" gradientTransform="matrix(1 0 0 1 3288.6833 0)">
				<stop  offset="0" style="stop-color:#311944"/>
				<stop  offset="1" style="stop-color:#893976"/>
			</linearGradient>
			<path style="fill:url(#SVGID_00000131368146868179888910000001257759419435989153_);" d="M2579.081,2463.227
				c24.478,126.413,48.503,192.807,66.683,230.361c4.484,9.26,19.443,39.14,33.585,81.977c12.52,37.917,17.737,65.811,20.409,78.087
				c8.439,38.749,29.297,95.327,85.418,169.535c0.7,0.411,10.269,5.823,19.418,0.999c4.63-2.444,6.938-6.338,7.855-8.152
				c-7.336-70.949-15.759-130.568-23.07-176.581c-1.534-9.65-8.289-51.873-18.883-107.656c-4.147-21.832-10.221-53.817-17.498-86.67
				c-9.061-40.913-22.954-96.571-44.367-163.266C2665.448,2475.648,2622.264,2469.44,2579.081,2463.227z"/>
			
				<linearGradient id="SVGID_00000011748473303735176280000011566905628497880974_" gradientUnits="userSpaceOnUse" x1="-97.7119" y1="2784.4727" x2="-555.9028" y2="2135.3689" gradientTransform="matrix(1 0 0 1 3288.6833 0)">
				<stop  offset="0" style="stop-color:#311944"/>
				<stop  offset="1" style="stop-color:#893976"/>
			</linearGradient>
			<path style="fill:url(#SVGID_00000011748473303735176280000011566905628497880974_);" d="M2558.228,1963.213
				c-13.882-12.832-40.44-27.624-53.76-62.011c-4.01-10.351-18.216-47.027,2.74-75.081c12.437-16.653,35.54-27.962,55.902-23.958
				c17.401,3.421,20.122,15.54,49.69,39.93c11.51,9.494,30.009,24.753,50.598,33.237c35.275,14.538,56.468,0.858,91.882,2.418
				c43.507,1.919,94.046,26.198,118.396,61.507c43.219,62.665-19.388,126.236,27.951,199.65
				c15.512,24.052,23.156,18.66,59.895,65.219c36.788,46.621,55.182,69.928,51.909,98.494
				c-4.542,39.644-47.243,77.514-87.453,80.088c-39.279,2.517-64.249-28.387-84.246-14.869c-14.233,9.618-6.095,28.33-21.212,50.816
				c-19.486,28.991-57.787,34.768-63.972,35.698c-57.414,8.661-134.827-58.663-167.706-138.424
				C2529.552,2172.097,2633.699,2032.976,2558.228,1963.213z"/>
			<path style="fill:#FFFFFF;" d="M2322.641,2003.144c-0.39-40.148,90.81-72.233,132.54-82.569
				c64.912-16.082,116.892-5.984,129.518-3.313c80.953,17.153,131.371,65.729,150.347,86.146
				c-15.539,10.118-58.419,40.99-79.656,99.56c-6.608,18.223-26.127,80.52,1.789,138.871c16.085,33.623,44.54,58.865,66.15,78.04
				c32.415,28.756,49.201,33.176,60.068,58.938c11.834,28.055-0.09,41.733,14.606,60.94c15.783,20.625,34.276,11.038,61.029,31.897
				c27.405,21.363,17.652,38.947,42.592,62.557c36.239,34.304,84.278,23.163,86.515,38.599
				c1.925,13.278-32.218,31.293-61.226,38.599c-57.446,14.469-107.552-9.817-122.452-17.303
				c-41.252-20.724-34.127-34.138-65.578-49.939c-52.665-26.454-88.656,2.985-208.608,6.016
				c-64.957,1.643-97.802,2.011-115.797-19.965c-16.433-20.075-7.794-42.094,2.067-136.99c4.693-45.165,6.387-90.596,9.846-135.87
				c9.785-128.073,10.084-139.344,1.397-157.052C2396.672,2036.875,2322.991,2039.174,2322.641,2003.144z"/>
			<g style="opacity:0.2;">
				
					<linearGradient id="SVGID_00000140719851052254265190000010466069570237901221_" gradientUnits="userSpaceOnUse" x1="1205.5186" y1="2292.5552" x2="1638.9319" y2="2292.5552" gradientTransform="matrix(-1 0 0 1 4193.7358 0)">
					<stop  offset="0.0036" style="stop-color:#E38DDD"/>
					<stop  offset="1" style="stop-color:#9571F6"/>
				</linearGradient>
				<path style="fill:url(#SVGID_00000140719851052254265190000010466069570237901221_);" d="M2901.625,2534.212
					c-24.939-23.61-15.187-41.194-42.592-62.557c-26.753-20.86-45.245-11.272-61.029-31.897
					c-14.696-19.207-2.771-32.885-14.606-60.94c-10.867-25.762-27.654-30.182-60.068-58.938
					c-21.61-19.175-50.066-44.417-66.15-78.04c-27.917-58.351-8.397-120.648-1.789-138.871
					c21.237-58.569,64.117-89.442,79.656-99.56c-1.496-1.612-3.261-3.448-5.147-5.381c-102.378,14.069-162.07,73.225-169.452,90.742
					c-17.064,40.491,9.95,55.366,10.648,172.146c0.332,55.818-5.688,77.858,12.422,101.156c20.714,26.646,44.583,18.4,74.536,53.24
					c23.014,26.764,19.329,43.735,40.818,55.012c23.107,12.124,37.825-2.007,63.888,3.551c43.541,9.285,52.849,59.489,81.634,86.957
					c21.767,20.77,62.012,35.292,141.381,19.705c1.836-2.673,2.723-5.283,2.367-7.726
					C2985.903,2557.375,2937.864,2568.515,2901.625,2534.212z"/>
			</g>
			<path style="fill:#FFFFFF;" d="M2591.503,2120.271c-10.883,23.111,39.126,76.938,94.709,102.496
				c11.324,5.21,92.652,42.603,128.898,6.646c29.951-29.714,10.62-91.153,3.719-113.088
				c-33.885-107.708-137.951-162.497-181.563-182.258c-32.547,81.382-13.379,117.647-5.834,128.972
				c7.882,11.828,29.878,36.675,53.24,58.564c16.433,15.395,26.666,22.886,25.289,25.289c-1.712,2.989-20.974-2.657-95.791-39.073
				C2605.498,2109.223,2595.221,2112.379,2591.503,2120.271z"/>
			
				<linearGradient id="SVGID_00000085230090651438534500000005458694759198554292_" gradientUnits="userSpaceOnUse" x1="1870.0635" y1="1886.0256" x2="1166.5596" y2="3013.7014" gradientTransform="matrix(-1 0 0 1 4193.7358 0)">
				<stop  offset="0" style="stop-color:#40447E"/>
				<stop  offset="0.9964" style="stop-color:#3C3B6B"/>
			</linearGradient>
			<path style="fill:url(#SVGID_00000085230090651438534500000005458694759198554292_);" d="M2278.456,1987.495l36.709,182.815
				c1.177,5.858,5.717,10.459,11.56,11.713l273.719,58.743c9.809,2.105,18.88-5.826,18.103-15.827L2604.1,2039.01
				c-0.501-6.453-5.072-11.849-11.357-13.399c-43.419-10.716-210.542-50.849-298.687-56.064
				C2284.211,1968.964,2276.515,1977.826,2278.456,1987.495z"/>
			
				<linearGradient id="SVGID_00000052814801876270324770000014031768794528726949_" gradientUnits="userSpaceOnUse" x1="1694.6949" y1="1814.4287" x2="1457.8951" y2="2405.2798" gradientTransform="matrix(-1 0 0 1 4193.7358 0)">
				<stop  offset="0" style="stop-color:#FFC444"/>
				<stop  offset="0.9964" style="stop-color:#F36F56"/>
			</linearGradient>
			<path style="fill:url(#SVGID_00000052814801876270324770000014031768794528726949_);" d="M2551.469,1853.978
				c0,0,5.164,41.276,20.397,50.734c15.235,9.452,39.863,21.806,42.576,25.159c2.713,3.349-94.375,13.788-142.489-10.491l0,0
				c15.856-3.307,20.167-4.523,20.167-4.523c4.303-1.217,12.33-3.479,20.378-8.065c5.478-3.119,14.306-9.213,22.404-20.719
				l-0.177-22.855L2551.469,1853.978z"/>
			
				<linearGradient id="SVGID_00000134955927834959940350000008275119205242697381_" gradientUnits="userSpaceOnUse" x1="1674.5133" y1="1806.3402" x2="1437.7139" y2="2397.1904" gradientTransform="matrix(-1 0 0 1 4193.7358 0)">
				<stop  offset="0" style="stop-color:#FFC444"/>
				<stop  offset="0.9964" style="stop-color:#F36F56"/>
			</linearGradient>
			<path style="fill:url(#SVGID_00000134955927834959940350000008275119205242697381_);" d="M2553.787,1868.597
				c0,0-9.933,13.634-25.511,7.952c-13.948-5.087-5.623-41.111,5.44-45.22c3.69-1.37,10.467-0.765,14.997,2.061
				c3.186,1.988,11.694,12.556,6.817,24.4c3.523-1.021,6.625-0.094,7.401,1.651c0.986,2.213-1.998,5.227-2.674,5.91
				C2557.915,1867.718,2555.089,1868.38,2553.787,1868.597z"/>
			
				<linearGradient id="SVGID_00000029727231913915395300000013929322465246649759_" gradientUnits="userSpaceOnUse" x1="1603.9559" y1="2103.9966" x2="1915.5812" y2="2103.9966" gradientTransform="matrix(-1 0 0 1 4193.7358 0)">
				<stop  offset="0.0036" style="stop-color:#E38DDD"/>
				<stop  offset="1" style="stop-color:#9571F6"/>
			</linearGradient>
			<path style="opacity:0.3;fill:url(#SVGID_00000029727231913915395300000013929322465246649759_);" d="M2524.953,2145.56
				c-29.396-8.288-53.776,12.295-77.198-3.993c-23.991-16.684-8.333-45.181-33.275-73.205c-26.668-29.963-60.5-15.286-85.184-42.592
				c-9.163-10.139-17.406-26.657-17.533-54.821c-6.184-0.597-12.107-1.071-17.707-1.403c-9.844-0.583-17.542,8.282-15.6,17.947
				l36.71,182.815c1.176,5.859,5.716,10.46,11.559,11.714l263.055,56.452C2571.207,2173.313,2546.421,2151.611,2524.953,2145.56z"/>
			
				<linearGradient id="SVGID_00000147201214793105266500000001714706318031632550_" gradientUnits="userSpaceOnUse" x1="1945.9819" y1="1915.1392" x2="1709.1818" y2="2505.991" gradientTransform="matrix(-1 0 0 1 4193.7358 0)">
				<stop  offset="0" style="stop-color:#FFC444"/>
				<stop  offset="0.9964" style="stop-color:#F36F56"/>
			</linearGradient>
			<path style="fill:url(#SVGID_00000147201214793105266500000001714706318031632550_);" d="M2295.877,2084.75
				c0,0-17.46-16.139-19.36-34.886c-1.899-18.748,11.277-33.75,24.042-37.574c12.765-3.824,19.578,1.816,11.009,20.276
				C2302.998,2051.028,2289.404,2063.01,2295.877,2084.75z"/>
		</g>
	</g>
</g>
</svg>
