<svg width="350" height="350" viewBox="0 0 350 350" fill="none" xmlns="http://www.w3.org/2000/svg">
<g clip-path="url(#clip0_1_311)">
<path fill-rule="evenodd" clip-rule="evenodd" d="M227.64 90.0213C228.819 92.9862 229.581 94.6564 230.225 96.4882C236.409 113.629 238.761 131.44 236.996 149.464C234.193 176.883 219.156 195.621 194.097 206.549C192.883 207.024 191.75 207.559 190.675 208.013C190.505 208.756 190.232 209.299 190.239 209.799C188.065 234.83 173.637 249.679 150.774 257.258C136.974 261.918 122.761 262.563 108.459 259.429C106.173 258.999 103.881 258.069 101.905 256.875C99.4663 255.466 98.8683 252.554 100.305 250.755C101.999 248.773 103.77 249.57 105.724 250.624C107.134 251.406 108.662 252.026 110.206 252.286C127.706 255.278 144.62 253.138 160.206 244.334C171.981 237.7 179.431 227.662 181.593 214.012C181.8 213.049 181.626 211.932 181.687 210.491C179.429 210.7 177.473 211.006 175.495 211.171C162.693 212.598 150.587 210.696 139.363 204.362C131.364 199.886 124.905 193.81 121.986 184.747C118.125 172.396 124.468 160.312 136.738 156.392C146.897 153.159 156.422 155.035 165.117 160.762C176.919 168.509 184.363 179.513 188.26 193.003C188.786 194.997 189.29 196.85 189.94 199.182C191.831 198.457 193.427 198.137 194.877 197.338C214.288 187.364 226.408 171.944 228.842 149.951C230.629 132.066 228.46 114.513 221.959 97.636C221.588 96.7875 221.197 95.9658 220.787 95.1711C220.56 94.634 220.134 94.1995 219.422 93.3087C218.92 94.6754 218.294 95.7037 218.108 96.8062C217.322 100.937 216.756 105.105 215.97 109.235C215.599 111.44 214.339 112.997 211.752 112.47C209.606 112.018 208.924 110.407 209.038 108.385C209.152 106.364 209.486 104.379 209.739 102.336C210.507 94.7251 211.294 87.0875 212.101 79.423C212.072 79.2367 212.07 79.0701 212.094 78.9231C212.164 76.622 212.455 74.358 214.78 73.2076C217.245 72.0353 219.301 73.2886 221.321 74.7624C224.251 77.0244 227.121 79.3672 230.147 81.3279C237.389 85.9939 244.748 90.4983 251.968 95.0246C255.919 97.4133 257.187 99.5769 255.676 101.817C254.283 103.895 251.666 104.089 247.817 101.899C242.617 98.8468 237.454 95.5739 232.253 92.5214C231.144 91.8358 229.895 91.172 227.64 90.0213ZM181.179 202.197C181.33 186.213 166.056 166.771 151.313 163.563C146.94 162.6 142.661 162.695 138.482 164.35C130.301 167.417 126.648 175.645 130.311 183.518C131.754 186.8 133.917 190.112 136.567 192.417C149.636 203.688 164.918 205.309 181.179 202.197Z" fill="url(#paint0_linear_1_311)"/>
</g>
<defs>
<linearGradient id="paint0_linear_1_311" x1="202.35" y1="58.6884" x2="276.157" y2="112.555" gradientUnits="userSpaceOnUse">
<stop stop-color="#8A2387"/>
<stop offset="0.527" stop-color="#E94057"/>
<stop offset="1" stop-color="#F27121"/>
</linearGradient>
<clipPath id="clip0_1_311">
<rect width="250" height="250" fill="white" transform="translate(147.38) rotate(36.1229)"/>
</clipPath>
</defs>
</svg>
