<?xml version="1.0" encoding="utf-8"?>
<!-- Generator: Adobe Illustrator 27.5.0, SVG Export Plug-In . SVG Version: 6.00 Build 0)  -->
<svg version="1.1" xmlns="http://www.w3.org/2000/svg" xmlns:xlink="http://www.w3.org/1999/xlink" x="0px" y="0px"
	 viewBox="0 0 500 500" style="enable-background:new 0 0 500 500;" xml:space="preserve">
<g id="Circle">
	
		<circle id="Circle_00000036942462286814921580000000037606309747622839_" style="fill:#FF95FB;stroke:#FF95FB;stroke-width:1.5;stroke-linecap:round;stroke-linejoin:round;stroke-miterlimit:10;" cx="255.49" cy="232.289" r="173.99"/>
</g>
<g id="Arrow_00000013878788202218345020000006069591977478627722_">
	<g id="Arrow">
		<path style="fill:#303030;" d="M453.266,69.808c-0.216-6.346-7.202-10.097-12.611-6.771l-84.323,51.848
			c-5.439,3.344-5.206,11.326,0.419,14.347l23.874,12.82l-90.057,167.81h-87.595c-12.213,0-23.808,5.368-31.711,14.679l-100,117.833
			c-8.036,9.469-6.874,23.659,2.595,31.694c9.468,8.035,23.658,6.873,31.693-2.595l98.986-116.64h88.054
			c15.322,0,29.402-8.424,36.647-21.924l91.006-169.581l24.2,12.996c5.626,3.021,12.409-1.194,12.192-7.576L453.266,69.808z"/>
		<path style="fill:#00826F;" d="M447.475,56.616c-0.216-6.346-7.202-10.097-12.611-6.771l-84.323,51.848
			c-5.439,3.344-5.206,11.326,0.419,14.347l23.874,12.82l-90.057,167.81h-87.595c-12.213,0-23.808,5.368-31.711,14.679l-100,117.833
			c-8.036,9.469-6.874,23.659,2.595,31.694c9.469,8.035,23.658,6.873,31.693-2.595l98.986-116.64h88.054
			c15.322,0,29.402-8.424,36.647-21.924l91.006-169.581l24.2,12.996c5.626,3.021,12.409-1.194,12.192-7.576L447.475,56.616z"/>
	</g>
</g>
<g id="Character">
	<g id="Character_00000118376033922914594110000000472890575589409466_">
		<g id="Legs_00000009562579114614062660000015261140545501675676_">
			<g id="Leg_00000029737108303132517460000005184859411958644923_">
				<g>
					<path style="fill:#FFC4B0;" d="M135.47,336.312c8.466-1.345,17.706-5.075,18.66-5.566c0.542-13.995,1.476-44.384,2.13-49.233
						c0.936-6.935,4.35-20.622,6.133-32.17c0,0,43.333,39.779,54.738,45.842c11.405,6.063,36.122-1.014,51.127-34.254l-44.18-38.22
						l-14.434-0.29c-14.399-11.779-36.594-32.645-55.214-36.684c-19.496-4.23-29.947,10.345-31.878,30.387
						c-2.144,22.257-0.229,64.582-0.282,65.42c-0.814,12.825-0.92,22.99-4.742,27.688c-5.058,6.218-11.218,9.821-17.065,14.598
						c-8.896,7.269-29.747,19.632-27.097,22.891c2.651,3.259,14.042,0.29,22.178-1.426S128.065,337.488,135.47,336.312z"/>
				</g>
				<g>
					<path style="fill:#303030;" d="M156.221,285.3c2.559,0.562,2.266,5.462,1.453,13.794c-0.524,5.364,0.347,8.799,1.5,19.676
						c0.366,3.459,3.41,11-4.501,14.655c-3.4,1.571-28.501,6.507-43.395,9.721c-15.03,3.243-30.082,6.811-35.899,8.137
						c-7.664,1.746-5.315-6.96-0.661-10.849c6.491-5.424,14.463-9.764,23.325-16.603c12.971-10.011,16.963-12.651,18.986-17.208
						c1.169-2.632,0.671-13.364,1.169-17.72c0.211-1.84,1.256-4.128,4.051-4.651c0.146,1.07,0.242,2.171,0.291,3.301
						c0,0,1.582,4.976,15.322,5.443c13.287,0.452,17.597-3.154,17.597-3.154L156.221,285.3z"/>
					<g>
						<g>
							<path style="fill:#FFFFFF;" d="M75.829,338.039c6.268-4.943,22.074-14.317,31.611-24.239
								c5.016-5.218,4.341-9.527,14.214-10.252c6.107-0.448,10.274,4.124,11.563,4.761c2.397,1.184,6.019,3.034,10.883,2.867
								c6.958-0.238,13.173-7.667,13.173-7.667l0.399-4.416c2.874,0,2.32,2.821,2.319,5.822c-0.001,3.703-0.402,6.124,0.205,9.589
								c0.875,5.002,2.495,6.943,2.476,16.707c0.393,5.441-7.549,8.047-15.748,9.857c-10.545,2.329-46.174,10.196-46.174,10.196
								c-7.561,1.669-19.269,4.255-23.835,5.263c-4.566,1.008-8.851-1.915-9.203-3.5C66.442,347.301,67.486,344.618,75.829,338.039z
								"/>
							<g>
								<path style="fill:#303030;" d="M76.359,338.57c2.534-1.993,5.238-3.776,7.894-5.598c3.519-2.415,7.032-4.839,10.462-7.378
									c3.6-2.666,7.132-5.444,10.421-8.489c1.449-1.341,2.894-2.717,4.14-4.253c0.932-1.148,1.748-2.377,2.6-3.584
									c0.715-1.013,1.493-2.012,2.485-2.77c1.193-0.911,2.616-1.428,4.068-1.751c2.039-0.453,4.235-0.686,6.294-0.247
									c1.783,0.38,3.423,1.171,4.938,2.17c0.998,0.658,1.892,1.461,2.889,2.116c1.259,0.826,2.819,1.412,4.226,1.926
									c2.124,0.776,4.374,1.216,6.638,1.227c2.025,0.009,3.947-0.466,5.791-1.289c2.916-1.301,5.518-3.372,7.728-5.658
									c0.408-0.422,1.03-0.923,1.096-1.535c0.12-1.106,0.201-2.217,0.301-3.324c0.031-0.346,0.063-0.692,0.094-1.037
									c-0.25,0.25-0.5,0.5-0.75,0.75c0.506,0.01,1.002,0.093,1.28,0.553c0.273,0.449,0.301,1.038,0.322,1.548
									c0.068,1.661-0.017,3.355-0.069,5.015c-0.056,1.803-0.162,3.608-0.026,5.41c0.106,1.402,0.348,2.79,0.669,4.158
									c0.458,1.955,1.056,3.872,1.422,5.849c0.565,3.049,0.717,6.214,0.665,9.309c-0.043,2.581-2.451,4.233-4.52,5.287
									c-3.077,1.568-6.516,2.424-9.865,3.189c-3.829,0.874-7.672,1.697-11.507,2.544c-4.96,1.095-9.921,2.191-14.881,3.286
									c-4.509,0.996-9.018,1.991-13.527,2.987c-2.309,0.51-4.618,1.02-6.927,1.53c-5.45,1.203-10.901,2.407-16.351,3.61
									c-2.499,0.552-4.996,1.11-7.496,1.655c-1.666,0.363-3.355,0.228-4.959-0.344c-1.145-0.408-2.422-1.076-3.18-2.061
									c-0.518-0.672-0.581-1.875-0.662-2.771c-0.084-0.935-0.069-1.878,0.158-2.792c0.566-2.277,2.261-4.084,3.917-5.652
									C73.479,340.885,74.911,339.714,76.359,338.57c0.757-0.598-0.311-1.653-1.061-1.061c-2.575,2.035-5.291,4.174-7.153,6.919
									c-1.226,1.807-1.77,3.879-1.594,6.055c0.085,1.047,0.165,2.362,0.661,3.306c0.565,1.074,1.728,1.871,2.771,2.422
									c1.5,0.794,3.191,1.25,4.891,1.273c1.409,0.02,2.775-0.35,4.14-0.651c6.368-1.406,12.737-2.812,19.105-4.218
									c2.371-0.523,4.742-1.047,7.113-1.57c4.257-0.94,8.515-1.88,12.772-2.82c5.193-1.147,10.387-2.293,15.58-3.44
									c4.179-0.923,8.359-1.846,12.538-2.769c3.116-0.688,6.239-1.404,9.233-2.525c2.652-0.994,5.61-2.341,7.185-4.826
									c0.729-1.15,0.895-2.364,0.884-3.696c-0.015-1.861-0.06-3.72-0.236-5.574c-0.227-2.392-0.702-4.717-1.321-7.035
									c-0.703-2.633-1.258-5.228-1.256-7.973c0.002-1.913,0.113-3.826,0.132-5.74c0.014-1.412,0.232-2.968-0.206-4.339
									c-0.423-1.327-1.516-1.937-2.865-1.964c-0.432-0.009-0.714,0.352-0.75,0.75c-0.133,1.472-0.266,2.944-0.399,4.416
									c0.073-0.177,0.146-0.354,0.22-0.53c-1.172,1.396-2.564,2.655-4.005,3.765c-2.809,2.165-6.048,3.771-9.661,3.688
									c-2.052-0.047-4.063-0.487-5.984-1.199c-1.257-0.465-2.629-0.996-3.759-1.727c-0.894-0.578-1.695-1.3-2.573-1.902
									c-1.352-0.927-2.815-1.705-4.378-2.213c-1.889-0.613-3.82-0.712-5.784-0.499c-1.724,0.187-3.436,0.508-5.036,1.194
									c-2.354,1.009-3.897,2.85-5.321,4.906c-0.767,1.108-1.526,2.219-2.401,3.245c-1.197,1.405-2.552,2.686-3.909,3.935
									c-3.033,2.793-6.267,5.364-9.573,7.825c-5.751,4.281-11.816,8.116-17.577,12.378c-0.5,0.37-0.995,0.747-1.485,1.132
									C74.54,338.105,75.608,339.16,76.359,338.57z"/>
							</g>
						</g>
						<g>
							
								<path style="fill:none;stroke:#303030;stroke-width:1.5;stroke-linecap:round;stroke-linejoin:round;stroke-miterlimit:10;" d="
								M124.202,320.225c-7.199-4.583-14.585-8.953-19.426-4.684"/>
							
								<path style="fill:none;stroke:#303030;stroke-width:1.5;stroke-linecap:round;stroke-linejoin:round;stroke-miterlimit:10;" d="
								M115.582,327.043c-7.2-4.583-14.289-8.924-19.13-4.655"/>
							
								<path style="fill:none;stroke:#303030;stroke-width:1.5;stroke-linecap:round;stroke-linejoin:round;stroke-miterlimit:10;" d="
								M106.529,333.958c-7.2-4.584-14.293-8.957-19.134-4.687"/>
						</g>
						
							<path style="fill:none;stroke:#303030;stroke-width:1.5;stroke-linecap:round;stroke-linejoin:round;stroke-miterlimit:10;" d="
							M155.321,315.541c-12.266,4.896-16.323,16.459-14.293,25.603"/>
						
							<path style="fill:#FFFFFF;stroke:#303030;stroke-width:1.5;stroke-linecap:round;stroke-linejoin:round;stroke-miterlimit:10;" d="
							M72.398,359.374c4.225-0.142,26.627-5.209,26.627-5.209s37.297-8.25,45.829-10.136c8.532-1.887,16.117-3.322,17.834-5.885
							c1.012-1.51,1.426-2.157-0.014-6.931c-1.164,2.745-4.879,3.823-19.456,7.047c-14.577,3.224-50.135,11.171-57.88,12.802
							c-5.394,1.136-13.648,3.486-17.683,1.701C66.641,354.219,65.954,359.59,72.398,359.374z"/>
					</g>
				</g>
				<path style="fill:#303030;" d="M208.993,291c18.701,16.178,54.214-34.326,72.221-68.045h-45.152l-3.079,6.168
					c-42.545-34.417-66.678-50.805-86.07-50.767c-12.199,0.023-27.044,8.084-27.688,39.573c-0.359,17.566-1.449,31.36-0.853,49.474
					c20.121,15.923,46.038,3.981,46.038,3.981s1.037-8.397,2.677-16.933C167.088,254.451,190.292,274.822,208.993,291z"/>
				<g>
					<g>
						<path style="fill:#F55571;" d="M165.88,215.184c1.498,4.359,2.551,8.844,2.841,13.453c0.306,4.853-0.116,9.721-0.631,14.545
							c-0.383,3.58-0.828,7.152-1.256,10.727c-0.076,0.638,0.924,0.632,1,0c0.706-5.896,1.52-11.798,1.861-17.73
							c0.258-4.485,0.131-8.977-0.71-13.399c-0.508-2.672-1.257-5.29-2.14-7.861C166.637,214.313,165.67,214.573,165.88,215.184
							L165.88,215.184z"/>
					</g>
				</g>
			</g>
			<g id="Leg_00000026879729975206574760000000502075499358563462_">
				<g>
					<path style="fill:#FFC4B0;" d="M137.484,356.691c7.111-7.278,32.396-25.854,42.18-48.26c6.522,0.006,43.493,1.288,55.817,1.304
						c13.959,0.019,32.766-0.451,42.354-5.986c16.638-9.605,17.607-38.899,10.014-70.549l-33.479-3.02l-21.609,24.746
						c0,0-57.449,3.994-67.35,9.343c-8.643,4.669-16.282,17.885-21.786,27.052c-11.992,19.971-22.01,37.158-32.284,49.787
						c-7.263,8.927-12.973,10.783-19.012,10.32c-8.719-0.668-40.843-8.03-47.619-7.863s-5.354,4.35,0.586,8.867
						c5.94,4.517,33.797,23.34,39.653,27.606c5.856,4.266,13.218,9.62,18.739,10.122c5.521,0.502,10.373-3.848,15.727-12.13
						C124.768,369.75,130.373,363.969,137.484,356.691z"/>
				</g>
				<g>
					<path style="fill:#303030;" d="M135.541,358.683c2.135,3.176,3.11,4.467-3.458,12.025c-0.676,0.778-4.449,0.902-5.034,1.807
						c-0.69,1.065-1.418,2.107-2.199,3.108c-1.579,2.025-2.996,4.017-4.409,6.183c-2.73,4.184-4.795,8.979-8.413,12.511
						c-2.185,2.133-4.338,4.281-7.573,3.229c-3.643-1.185-7.185-3.878-10.153-6.206c-12.799-10.038-26.165-19.409-39.901-28.148
						c-3.616-2.301-7.11-4.768-10.474-7.417c-2.242-1.765-5.603-3.729-6.16-6.809c-1.001-5.541,4.355-5.473,8.225-4.873
						c11.601,1.799,23.015,3.316,33.82,5.226c5.081,0.898,14.096,3.561,18.614,0.224c3.406-2.516,4.167-6.76,5.369-8.584
						c1.606-2.437,6.884-5.452,10.131-3.132l-2.587,3.281c0,0-1.859,5.722,5.742,13.01c9.341,8.958,15.834,7.284,15.834,7.284
						L135.541,358.683z"/>
					<g>
						<g>
							<path style="fill:#FFFFFF;" d="M52.914,343.057c7.876,1.303,25.849,4.762,33.013,5.802c7.163,1.039,12.444-2.999,20.1,3.277
								c6.197,5.079,5.888,10.334,6.285,11.716c0.74,2.569,1.624,5.02,5.698,7.682c4.043,2.643,10.754,0.895,10.754,0.895
								l3.011-2.151c1.659,3.318,0.884,5.469-1.29,7.067c-2.176,1.599-4.363,4.855-7.067,9.525
								c-2.208,3.814-4.388,7.129-8.726,13.396c-3.757,3.956-10.497,0.624-17.357-4.215c-8.825-6.225-38.64-27.258-38.64-27.258
								c-6.327-4.464-16.124-11.375-19.945-14.07c-3.821-2.695-4.548-7.831-3.613-9.159
								C38.514,340.765,42.432,341.323,52.914,343.057z"/>
							<g>
								<path style="fill:#303030;" d="M52.715,343.78c6.356,1.053,12.686,2.261,19.025,3.408c3.275,0.592,6.55,1.181,9.832,1.733
									c2.91,0.489,5.778,1.002,8.742,0.808c3.321-0.217,6.665-0.895,9.938,0.053c3.933,1.139,7.534,4.276,9.489,7.841
									c0.665,1.214,1.127,2.516,1.411,3.87c0.171,0.816,0.221,1.659,0.413,2.47c0.793,3.339,2.769,5.94,5.566,7.883
									c2.811,1.953,6.323,2.142,9.624,1.707c0.713-0.094,1.525-0.152,2.209-0.398c0.336-0.121,0.629-0.397,0.916-0.602
									c0.498-0.356,0.996-0.711,1.494-1.067c0.26-0.186,0.52-0.372,0.781-0.558c-0.342-0.09-0.684-0.179-1.026-0.269
									c0.641,1.312,1.142,2.908,0.479,4.312c-0.564,1.195-1.74,1.82-2.659,2.701c-2.403,2.305-4.139,5.337-5.806,8.185
									c-1.366,2.333-2.766,4.639-4.251,6.898c-0.908,1.382-1.834,2.751-2.767,4.116c-0.95,1.39-1.776,3.113-3.337,3.895
									c-2.758,1.382-6.289-0.171-8.777-1.447c-2.718-1.393-5.215-3.15-7.705-4.906c-3.441-2.428-6.882-4.855-10.324-7.283
									c-4.155-2.931-8.31-5.862-12.465-8.794c-3.474-2.451-6.948-4.901-10.422-7.352c-1.61-1.135-3.219-2.271-4.829-3.406
									c-5.248-3.703-10.497-7.405-15.745-11.108c-2.051-1.447-4.399-2.744-5.715-4.956c-0.639-1.074-1.095-2.296-1.242-3.541
									c-0.106-0.902-0.067-1.649,0.404-2.282c1.106-1.488,2.541-2.541,4.369-2.926c2.318-0.488,4.83-0.127,7.145,0.195
									C49.231,343.201,50.973,343.492,52.715,343.78c0.944,0.156,1.35-1.289,0.399-1.446c-3.235-0.535-6.511-1.172-9.797-1.27
									c-2.089-0.063-4.273,0.179-6.066,1.339c-0.865,0.56-1.605,1.28-2.24,2.086c-0.657,0.835-0.979,1.582-0.99,2.66
									c-0.029,2.718,1.323,5.546,3.298,7.374c0.898,0.831,1.968,1.493,2.966,2.198c1.16,0.818,2.32,1.637,3.48,2.455
									c2.814,1.986,5.629,3.971,8.444,5.956c2.701,1.905,5.402,3.811,8.102,5.716c3.123,2.203,6.246,4.406,9.369,6.609
									c4.289,3.025,8.577,6.051,12.866,9.076c3.822,2.696,7.643,5.392,11.465,8.088c1.946,1.372,3.873,2.778,5.885,4.052
									c3.019,1.913,6.515,3.923,10.178,4.086c1.41,0.062,2.867-0.242,4.05-1.038c1.535-1.034,2.448-2.853,3.473-4.354
									c1.734-2.541,3.445-5.1,5.049-7.726c1.775-2.908,3.377-5.93,5.418-8.667c0.8-1.073,1.69-2.117,2.75-2.942
									c1.14-0.887,2.15-1.913,2.478-3.374c0.37-1.647-0.148-3.282-0.868-4.757c-0.167-0.341-0.714-0.492-1.026-0.269
									c-0.758,0.542-1.516,1.083-2.274,1.625c-0.18,0.128-0.367,0.251-0.541,0.386c-0.179,0.139-0.25,0.106-0.027,0.067
									c-0.23,0.04-0.458,0.106-0.688,0.152c-2.752,0.546-6.007,0.736-8.606-0.488c-1.696-0.799-3.34-2.185-4.437-3.707
									c-0.845-1.172-1.36-2.501-1.75-3.883c-0.213-0.755-0.258-1.552-0.402-2.321c-0.247-1.32-0.662-2.597-1.235-3.812
									c-1.728-3.66-5.054-6.826-8.71-8.525c-3.233-1.503-6.584-1.449-10.052-1.104c-1.684,0.167-3.372,0.328-5.065,0.248
									c-1.322-0.063-2.63-0.301-3.935-0.512c-3.055-0.495-6.102-1.038-9.148-1.584c-6.556-1.176-13.102-2.413-19.667-3.542
									c-0.581-0.1-1.163-0.199-1.745-0.295C52.169,342.177,51.763,343.622,52.715,343.78z"/>
							</g>
						</g>
						<g>
							
								<path style="fill:none;stroke:#303030;stroke-width:1.5;stroke-linecap:round;stroke-linejoin:round;stroke-miterlimit:10;" d="
								M97.433,365.215c-1.462-8.408-4.342-16.345-10.758-17.047"/>
							
								<path style="fill:none;stroke:#303030;stroke-width:1.5;stroke-linecap:round;stroke-linejoin:round;stroke-miterlimit:10;" d="
								M86.587,363.437c-1.462-8.409-4.342-16.345-10.758-17.047"/>
							
								<path style="fill:none;stroke:#303030;stroke-width:1.5;stroke-linecap:round;stroke-linejoin:round;stroke-miterlimit:10;" d="
								M75.378,361.404c-1.462-8.409-4.341-16.346-10.758-17.047"/>
						</g>
						
							<path style="fill:none;stroke:#303030;stroke-width:1.5;stroke-linecap:round;stroke-linejoin:round;stroke-miterlimit:10;" d="
							M124.31,385.353c-11.881-5.768-25.613-1.272-31.003,6.389"/>
						
							<path style="fill:#FFFFFF;stroke:#303030;stroke-width:1.5;stroke-linecap:round;stroke-linejoin:round;stroke-miterlimit:10;" d="
							M33.603,353.299c2.951,3.027,21.787,16.171,21.787,16.171s31.221,22.008,38.363,27.043c7.142,5.034,10.37,7.671,14.18,7.626
							c1.818-0.021,3.871,0.307,7.158-4.447c-4.243-0.284-5.974,0.328-18.177-8.274c-12.202-8.602-42.028-29.529-48.451-34.153
							c-4.473-3.221-11.77-7.738-13.169-11.923C33.534,345.572,29.103,348.682,33.603,353.299z"/>
					</g>
				</g>
				<path style="fill:#F55571;" d="M302.829,224.263l-64.951-1.307c-4.522,8.697-7.109,15.135-6.711,25.842
					c0,0-27.712,3.615-44.917,6.386c-6.76,1.089-18.657,3.735-24.813,9.086c-6.757,5.873-13.041,16.075-24.292,34.401
					c-8.802,14.337-18.947,29.672-18.947,29.672s10.138,20.264,31.108,24.537c19.309-16.952,27.031-24.329,39.714-40.664
					c5.96,0.031,30.049-0.171,42.535-0.147c24.275,0.046,42.662,0.966,55.98-8.155c13.068-8.95,19.394-19.833,20.525-35.226
					C308.944,256.649,307.283,247.283,302.829,224.263z"/>
				
					<path style="fill:#F55571;stroke:#303030;stroke-width:1.5;stroke-linecap:round;stroke-linejoin:round;stroke-miterlimit:10;" d="
					M189.02,312.216c2.014-3.421,4.22-9.832,4.22-9.832"/>
			</g>
		</g>
		<g id="Head_00000034072117388751455310000010250376990648541863_">
			<g id="Hair_00000072987068424253634440000001483935455096696986_">
				<path style="fill:#00826F;" d="M265.091,117.423c1.236,15.248,15.006,26.574,30.757,25.297
					c15.751-1.277,27.517-14.672,26.281-29.92c-1.236-15.247-15.006-26.573-30.757-25.297
					C272.182,85.851,255.48,98.635,265.091,117.423z"/>
			</g>
			<path style="fill:#00826F;" d="M307.87,101.651c-4.955-1.297-9.314-3.18-12.197-7.562c-2.87-4.363-4.239-9.73,0.217-13.638
				c2.188-1.919,6.548-3.054,10.047-0.333c1.368-5.036,7.541-6.461,11.925-4.239c3.981,2.018,4.698,7.156,2.943,10.049
				c2.943,0.372,5.342,3.309,5.856,5.645c0.608,2.761-0.41,6.428-2.544,8.447C319.329,104.552,313.855,103.218,307.87,101.651z"/>
			<g>
				<g>
					<path style="fill:#00826F;" d="M315.999,77.368c2.126,0.05,4.183,1.196,5.283,3.031c1.169,1.951,1.125,4.452-0.003,6.406
						c-0.249,0.431-0.013,0.958,0.448,1.102c3.172,0.991,5.592,3.998,5.691,7.351c0.103,3.475-2.053,6.791-5.382,7.901
						c-1.913,0.638-3.952,0.573-5.82-0.182c-0.895-0.361-1.284,1.089-0.399,1.446c3.871,1.563,8.546,0.335,11.09-2.984
						c2.46-3.21,2.696-7.772,0.392-11.13c-1.252-1.825-3.059-3.188-5.173-3.849c0.149,0.367,0.299,0.734,0.448,1.102
						c1.392-2.41,1.442-5.514,0.003-7.92c-1.371-2.292-3.926-3.711-6.578-3.774C315.033,75.845,315.033,77.345,315.999,77.368
						L315.999,77.368z"/>
				</g>
			</g>
			<g>
				<g>
					<path style="fill:#00826F;" d="M297.692,74.114c1.684,0.452,3.267,1.268,4.591,2.407c0.642,0.553,1.243,1.172,1.748,1.853
						c0.545,0.736,1.098,1.562,1.069,2.513c-0.029,0.965,1.471,0.965,1.5,0c0.034-1.133-0.489-2.165-1.128-3.068
						c-0.59-0.833-1.267-1.603-2.034-2.277c-1.538-1.352-3.368-2.344-5.347-2.874C297.157,72.417,296.759,73.864,297.692,74.114
						L297.692,74.114z"/>
				</g>
			</g>
			<g>
				<path style="fill:#FFC4B0;" d="M263.425,118.372c0.36-2.58,1.307-8.065,4.772-13.49c2.423-3.795,8.028-10.924,18.501-10.323
					c1.806,7.601,6.611,9.134,12.47,14.281c4.315,3.791,4.045,11.478,4.045,11.478c-1.028,2.455,0.283,9.538,0.283,9.538
					l0.257,5.618l-1.362,24.171l8.48,2.746l-38.216,5.948l-4.664-15.424l11.249,1.348l2.82-9.149
					C270.857,143.533,260.956,136.094,263.425,118.372z"/>
			</g>
			<g>
				<g>
					<g>
						<path style="fill:#FFFFFF;" d="M292.091,117.379c-0.399-1.69-2.854-3.329-4.842-3.657c-1.988-0.328-4.168,0.479-4.987,2.911
							C282.712,119.199,288.982,120.541,292.091,117.379z"/>
					</g>
					<path style="fill:#D48983;" d="M283.435,114.127c-0.439,0.167-0.677,0.436-1.038,0.682c-0.628,0.428-0.323-0.359-0.191-0.69
						c0.384-0.959,1.027-1.815,1.846-2.447c1.272-0.981,3.173-1.497,4.757-1.237c1.386,0.228,2.745,0.848,3.659,1.915
						c0.839,0.98,1.255,2.311,1.123,3.595c-0.04,0.392-0.173,0.836-0.536,0.99c-0.203,0.086-0.436,0.06-0.65,0.004
						c-1.085-0.284-1.848-1.221-2.739-1.902C287.924,113.706,285.485,113.35,283.435,114.127z"/>
					<path style="fill:#303030;" d="M286.343,119.162c1.252,0.827,2.977,0.441,3.851-0.864c0.875-1.305,0.569-3.033-0.684-3.86
						c-1.252-0.827-2.977-0.441-3.851,0.864C284.785,116.607,285.091,118.335,286.343,119.162z"/>
					<polygon style="fill:#FFFFFF;" points="289.641,114.272 287.927,116.8 290.741,115.386 					"/>
					
						<path style="fill:none;stroke:#303030;stroke-width:1.5;stroke-linecap:round;stroke-linejoin:round;stroke-miterlimit:10;" d="
						M281.462,116.131c1.41-3.172,3.997-2.905,5.985-2.577c1.988,0.328,3.84,2.316,4.645,3.826"/>
					
						<path style="fill:none;stroke:#303030;stroke-width:1.5;stroke-linecap:round;stroke-linejoin:round;stroke-miterlimit:10;" d="
						M279.855,112.492c1.246,1.171,2.648,1.021,4.009,1.036"/>
				</g>
				<g>
					<g>
						<path style="fill:#FFFFFF;" d="M265.932,114.681c2.653,1.788,6.788,1.345,8.12-0.4c-0.222-1.566-1.586-2.97-3.329-3.426
							c-0.452-0.115-2.552-0.377-3.888-0.121C266.555,111.53,266.152,112.373,265.932,114.681z"/>
					</g>
					<path style="fill:#D48983;" d="M273.343,109.435c-0.608-0.661-1.311-1.252-2.133-1.614c-0.822-0.361-1.774-0.478-2.627-0.195
						c-0.853,0.283-1.579,0.999-1.753,1.88c-0.04,0.201-0.05,0.417,0.034,0.604c0.124,0.278,0.431,0.434,0.732,0.476
						c0.301,0.042,0.607-0.009,0.91-0.03c2.103-0.15,4.105,1.136,5.361,2.83c0.24,0.324,0.721,0.751,1.074,0.299
						c0.256-0.327,0.073-1.098-0.009-1.457C274.69,111.173,274.069,110.224,273.343,109.435z"/>
					<path style="fill:#303030;" d="M270.626,115.965c0.878-0.017,1.728-0.546,2.161-1.384c0.574-1.113,0.116-2.548-1.023-3.206
						c-1.225-0.707-2.894-0.089-3.43,1.214c-0.324,0.789-0.183,1.749,0.354,2.412c0.193,0.239,0.432,0.438,0.689,0.605
						C269.77,115.861,270.201,115.973,270.626,115.965z"/>
					<polygon style="fill:#FFFFFF;" points="271.817,111.208 270.77,113.217 272.89,112.101 					"/>
					
						<path style="fill:none;stroke:#303030;stroke-width:1.5;stroke-linecap:round;stroke-linejoin:round;stroke-miterlimit:10;" d="
						M267.596,110.712c1.532-0.196,2.522-0.016,3.127,0.142c1.74,0.456,3.102,1.861,3.325,3.429"/>
					
						<path style="fill:none;stroke:#303030;stroke-width:1.5;stroke-linecap:round;stroke-linejoin:round;stroke-miterlimit:10;" d="
						M265.495,110.056c0.302,0.354,0.51,0.552,0.999,0.702c0.414,0.127,1,0.163,1.421,0.047"/>
				</g>
				<path style="fill:none;stroke:#303030;stroke-width:1.5;stroke-linecap:round;stroke-linejoin:round;stroke-miterlimit:10;" d="
					M273.424,103.707c-1.713-0.315-4.313-0.175-6.364,1.528"/>
				<g>
					<path style="fill:#303030;" d="M282.06,145.116c6.711,1.3,14.683-2.206,16.781-5.488c-1.172,5.045-5.823,9.616-18.276,10.087
						L282.06,145.116z"/>
				</g>
				<path style="fill:none;stroke:#303030;stroke-width:1.5;stroke-linecap:round;stroke-linejoin:round;stroke-miterlimit:10;" d="
					M273.871,123.583c-1.639-0.929-3.214-2.049-2.682-3.818c0.552-1.836,3.466-3.275,6.808-10.978"/>
				<path style="fill:none;stroke:#303030;stroke-width:1.5;stroke-linecap:round;stroke-linejoin:round;stroke-miterlimit:10;" d="
					M283.164,128.912c-2.179,2.235-7.215,2.834-9.99,1.147"/>
				<path style="fill:none;stroke:#303030;stroke-width:1.5;stroke-linecap:round;stroke-linejoin:round;stroke-miterlimit:10;" d="
					M284.379,105.467c3.759-1.011,7.719,1.58,10.498,5.079"/>
			</g>
			<path style="fill:none;stroke:#00826F;stroke-width:1.5;stroke-linecap:round;stroke-linejoin:round;stroke-miterlimit:10;" d="
				M287.25,92.069c-1.736,2.646-1.791,11.837,4.288,19.018c3.295,3.893,9.231,6.381,14.249,7.297"/>
			<g>
				<g>
					
						<path style="fill:#FFC4B0;stroke:#303030;stroke-width:1.5;stroke-linecap:round;stroke-linejoin:round;stroke-miterlimit:10;" d="
						M301.456,122.558c1.792-2.818,4.644-5.188,8.038-5.74c3.394-0.551,7.242,1.121,8.38,4.214c1.125,3.058-0.692,6.641-3.59,8.362
						c-2.897,1.721-7.028,2.163-10.919,0.562"/>
					<g>
						
							<path style="fill:none;stroke:#303030;stroke-width:1.5;stroke-linecap:round;stroke-linejoin:round;stroke-miterlimit:10;" d="
							M314.388,122.429c-1.637-1.133-3.898-1.393-5.783-0.664c-1.885,0.729-3.332,2.424-3.699,4.333"/>
						
							<path style="fill:none;stroke:#303030;stroke-width:1.5;stroke-linecap:round;stroke-linejoin:round;stroke-miterlimit:10;" d="
							M310.871,124.726c-0.681-0.542-1.572-0.801-2.458-0.873c-0.886-0.072-1.798,0.078-2.633,0.268"/>
					</g>
				</g>
				<g>
					<path style="fill:#303030;" d="M307.826,132.58c-0.411,1.877-2.265,3.065-4.142,2.654c-1.877-0.411-3.065-2.265-2.654-4.142
						c0.411-1.877,2.265-3.065,4.142-2.654C307.048,128.849,308.236,130.704,307.826,132.58z"/>
				</g>
			</g>
		</g>
		<g id="Arm_00000132802374193080106410000012410262535368177540_">
			<g id="Arm_00000116195000539693581990000000873276818153966774_">
				<g>
					<path style="fill:#FFC4B0;" d="M223.864,72.356c1.073-5.975-1.046-8.655,1.324-18.293c-0.183-2.341-0.103-3.964-0.131-6.31
						c-0.023-1.99-0.18-4.588,1.822-5.733c0.308-0.176,0.648-0.291,0.999-0.346c1.139-0.18,2.387,0.265,2.999,1.243
						c-0.134-1.457,0.982-2.922,2.423-3.18c1.441-0.258,2.996,0.728,3.376,2.142c-0.011-1.022,1.015-3.368,3.707-3.389
						c2.534-0.02,2.702,3.253,2.817,3.256c0,0,2.166-5.742,2.588-6.913c0.803-2.224,1.183-3.543,2.15-4.73
						c1.116-1.369,3.306-0.976,3.692,0.842c0.412,1.941-0.47,4.03-1.13,6.508c-0.601,2.254-1.307,4.479-1.964,6.716
						c-0.361,1.23-0.717,2.463-1.042,3.704c-0.278,1.061-0.901,2.286-0.957,3.365c-0.017,0.317-0.158,1.329,0.016,1.58
						c0.923,1.334,3.21-2.013,3.611-2.529c0.935-1.202,2.383-3.128,4.005-3.333c1.51-0.191,2.9,0.242,2.724,1.426
						c-0.295,1.988-2.563,5.089-3.405,6.864c-0.816,1.718-1.486,3.507-2.302,5.226c-1.481,3.118-3.674,5.614-5.798,8.236
						c-3.626,4.475-3.653,11.33-4.234,16.821c-0.599,5.666-1.855,23.398-1.691,23.724c0.002,0.004,6.361,13.98,16.368,27.433
						c4.224,5.678,5.914,7.658,11.227,12.576l-22.654,28.463c0,0,0.026-5.359-4.397-13.587
						c-8.593-15.984-19.327-35.025-22.874-42.699c-1.969-4.26-2.467-8.417-0.756-17.361
						C218.414,93.441,222.43,80.343,223.864,72.356z"/>
				</g>
				
					<path style="fill:#FFFFFF;stroke:#303030;stroke-width:1.5;stroke-linecap:round;stroke-linejoin:round;stroke-miterlimit:10;" d="
					M268.161,148.718c-5.345-4.541-16.391-18.748-16.391-18.748s-7.364,0.399-13.092,8.071c-5.728,7.671-6.855,14.319-6.855,14.319
					s3.932,6.232,7.162,12.376c3.23,6.144,4.665,13.297,4.225,18.411L268.161,148.718z"/>
				<g>
					
						<path style="fill:none;stroke:#303030;stroke-width:1.5;stroke-linecap:round;stroke-linejoin:round;stroke-miterlimit:10;" d="
						M236.865,43.096c0.041,1.883,0.242,3.763,0.6,5.612c0.366,1.892,0.818,3.386,2.198,3.456c1.38,0.07,2.5-1.054,2.835-2.483
						c0.484-2.069,0.729-5.245,0.703-7.936"/>
					
						<path style="fill:none;stroke:#303030;stroke-width:1.5;stroke-linecap:round;stroke-linejoin:round;stroke-miterlimit:10;" d="
						M230.562,44.523c0.041,1.883,0.242,3.763,0.6,5.612c0.366,1.892,0.818,3.386,2.198,3.456c1.38,0.07,2.5-1.054,2.835-2.483
						c0.485-2.069,0.729-5.245,0.703-7.937"/>
					
						<path style="fill:none;stroke:#303030;stroke-width:1.5;stroke-linecap:round;stroke-linejoin:round;stroke-miterlimit:10;" d="
						M224.827,51.486c0.366,1.892,0.818,3.386,2.198,3.456c1.38,0.07,2.5-1.054,2.835-2.483c0.484-2.069,0.729-5.245,0.703-7.937"/>
				</g>
				<path style="fill:none;stroke:#303030;stroke-width:1.5;stroke-linecap:round;stroke-linejoin:round;stroke-miterlimit:10;" d="
					M240.487,52.054c-4.243,2.622-5.058,7.186-5.421,10.788"/>
				<g>
					
						<path style="fill:none;stroke:#303030;stroke-width:1.5;stroke-linecap:round;stroke-linejoin:round;stroke-miterlimit:10;" d="
						M239.464,109.254c0,1.846-1.365,4.962-3.429,7.162"/>
				</g>
			</g>
		</g>
		<g id="Chest_00000032644324049653483780000008945677773560362163_">
			
				<path id="Chest_00000042714921375346279900000000560035325908270724_" style="fill:#FFFFFF;stroke:#303030;stroke-width:1.5;stroke-linecap:round;stroke-linejoin:round;stroke-miterlimit:10;" d="
				M277.758,152.546c-3.613,0.022-5.927-1.063-9.596-3.828c0,0-20.095,12.07-25.83,29.085c-4.446,13.188-0.106,19.703-6.591,39.466
				c-1.363,4.155-5.451,9.892-3.307,13.606c2.266,3.925,8.149,8.755,31.285,16.408c19.51,6.454,39.751,6.324,44.92,3.252
				c8.251-4.905,5.221-19.113,4.456-24.096c-0.765-4.983,4.682-15.891,9.976-28.933c5.293-13.042,1.217-30.287-5.738-34.507
				l-13.359-4.324c0,0,0.937-8.328-1.045-8.57c0,0-10.003,4.49-22.175-1.346C279.253,148.258,277.758,152.546,277.758,152.546z"/>
			
				<path style="fill:#FFFFFF;stroke:#303030;stroke-width:1.5;stroke-linecap:round;stroke-linejoin:round;stroke-miterlimit:10;" d="
				M301.012,160.764c-7.92,4.73-22.009,2.001-23.26-3.835"/>
		</g>
		<g id="Laptop">
			
				<path style="fill:#FFFFFF;stroke:#303030;stroke-width:1.5;stroke-linecap:round;stroke-linejoin:round;stroke-miterlimit:10;" d="
				M257.014,257.76h-31.695v6.217h33.99c0.715,0,1.294-0.579,1.294-1.294v-1.334C260.603,259.367,258.996,257.76,257.014,257.76z"/>
			<g id="Device_00000041977327252372864230000011507634921549395610_">
				<path style="fill:#00826F;" d="M225.087,264.629l-76.311-0.009c-1.866,0-3.566-1.503-3.797-3.357l-6.367-51.201
					c-0.23-1.854,1.096-3.356,2.962-3.356l76.311,0.01c1.867,0,3.566,1.503,3.797,3.356l6.367,51.201
					C228.28,263.127,226.954,264.629,225.087,264.629z"/>
				<g id="Stickers">
					<g id="Stickers_00000047763331341427852450000010386062640573783684_">
						<g>
							<path style="fill:#303030;" d="M187.724,236.408c0.494,3.445-1.886,6.238-5.315,6.237c-3.429,0-6.609-2.794-7.102-6.239
								c-0.494-3.445,1.886-6.238,5.315-6.237C184.05,230.169,187.23,232.962,187.724,236.408z"/>
							<path style="fill:#FF95FB;" d="M180.769,233.995l0.362,2.469c0.06,0.412-0.362,0.739-0.739,0.572l-2.123-0.94
								c-0.161-0.071-0.272-0.221-0.296-0.397l-0.339-2.545c-0.055-0.418,0.381-0.74,0.756-0.558l2.1,1.016
								C180.641,233.685,180.745,233.827,180.769,233.995z"/>
							<path style="fill:#FF95FB;" d="M181.488,238.768l0.314,1.68c0.089,0.476-0.464,0.824-0.842,0.529l-2.275-1.773
								c-0.104-0.081-0.173-0.201-0.19-0.334l-0.131-0.983c-0.056-0.423,0.391-0.746,0.767-0.553l2.092,1.075
								C181.362,238.482,181.459,238.613,181.488,238.768z"/>
							<path style="fill:#FF95FB;" d="M181.73,234.102l0.371,2.612c0.051,0.36,0.445,0.548,0.765,0.366l1.99-1.134
								c0.195-0.111,0.303-0.332,0.269-0.55l-0.416-2.678c-0.057-0.364-0.462-0.546-0.78-0.35l-1.945,1.2
								C181.801,233.681,181.701,233.892,181.73,234.102z"/>
							<path style="fill:#FF95FB;" d="M182.451,238.68l0.28,1.97c0.068,0.479,0.693,0.599,0.956,0.184l1.732-2.738
								c0.07-0.11,0.098-0.241,0.078-0.368l-0.067-0.432c-0.056-0.364-0.462-0.546-0.78-0.349l-1.945,1.199
								C182.521,238.259,182.421,238.47,182.451,238.68z"/>
						</g>
					</g>
					<g>
						<path style="fill:#FFFFFF;" d="M143.71,219.581l26.458,0.004c0.809,0,1.44-0.739,1.312-1.537l-0.899-5.623
							c-0.098-0.612-0.617-1.055-1.237-1.055l-26.458-0.004c-0.809,0-1.439,0.739-1.312,1.538l0.899,5.623
							C142.571,219.138,143.09,219.581,143.71,219.581z"/>
						<g>
							<path style="fill:#303030;" d="M168.229,212.697l-2.961-0.002c-0.344,0-0.614,0.313-0.563,0.653l0.648,4.317
								c0.04,0.264,0.263,0.456,0.53,0.457l2.989,0.003c0.346,0,0.616-0.315,0.563-0.657l-0.676-4.318
								C168.717,212.888,168.495,212.697,168.229,212.697z"/>
							<path style="fill:#303030;" d="M163.165,212.716l-1.524,0.01c-0.343,0.002-0.61,0.314-0.559,0.653l0.648,4.319
								c0.04,0.265,0.265,0.458,0.534,0.457l1.552-0.009c0.344-0.002,0.612-0.317,0.559-0.657l-0.677-4.32
								C163.657,212.905,163.432,212.714,163.165,212.716z"/>
							<path style="fill:#303030;" d="M159.495,212.744l-1.159,2.92l-1.802-2.922c-0.344,0-0.614,0.313-0.563,0.653l0.648,4.317
								c0.04,0.264,0.263,0.456,0.53,0.457l2.989,0.003c0.346,0.001,0.616-0.315,0.563-0.656l-0.676-4.319
								C159.983,212.935,159.76,212.744,159.495,212.744z"/>
							<path style="fill:#303030;" d="M154.43,212.763l-1.524,0.01c-0.343,0.002-0.61,0.314-0.559,0.653l0.649,4.319
								c0.04,0.266,0.265,0.458,0.534,0.457l1.552-0.009c0.344-0.002,0.612-0.317,0.559-0.656l-0.677-4.32
								C154.923,212.952,154.698,212.761,154.43,212.763z"/>
							<path style="fill:#303030;" d="M150.76,212.791l-2.961-0.002c-0.344,0-0.614,0.313-0.563,0.653l0.648,4.317
								c0.04,0.264,0.263,0.457,0.53,0.457l2.989,0.003c0.346,0,0.616-0.315,0.563-0.656l-0.676-4.319
								C151.249,212.981,151.026,212.791,150.76,212.791z"/>
							<path style="fill:#FFFFFF;" d="M150.12,214.29l-1.325-0.001c-0.154,0-0.275,0.14-0.252,0.292l0.29,1.932
								c0.018,0.118,0.117,0.204,0.237,0.204l1.338,0.001c0.155,0,0.275-0.141,0.252-0.294l-0.303-1.932
								C150.339,214.375,150.239,214.29,150.12,214.29z"/>
							<path style="fill:#303030;" d="M145.696,212.809l-1.524,0.01c-0.343,0.002-0.61,0.314-0.559,0.653l0.648,4.319
								c0.04,0.266,0.265,0.458,0.534,0.457l1.552-0.009c0.344-0.002,0.612-0.316,0.559-0.657l-0.677-4.32
								C146.188,212.999,145.964,212.808,145.696,212.809z"/>
						</g>
					</g>
					<g>
						<path style="fill:#FFFFFF;" d="M166.646,219.688c0.161,2.686,2.462,4.801,5.141,4.723c2.679-0.078,4.72-2.319,4.559-5.005
							c-0.161-2.686-2.462-4.801-5.141-4.723S166.486,217.001,166.646,219.688z"/>
						<path style="fill:#00826F;" d="M168.042,219.647c0.114,1.913,1.753,3.419,3.661,3.364c1.908-0.055,3.361-1.651,3.247-3.564
							c-0.114-1.913-1.754-3.419-3.661-3.364C169.382,216.138,167.928,217.734,168.042,219.647z"/>
					</g>
				</g>
			</g>
		</g>
		<g id="Arm_00000125572118356770828160000009968888078371543947_">
			<g id="Arm_00000011020296056746749020000009517796215966711718_">
				<g>
					<path style="fill:#FFC4B0;" d="M329.146,238.841c0.585-5.626,1.478-24.949,1.629-32.136
						c0.461-22.006,5.319-31.192-11.705-41.212c-17.544,7.649-16.762,32.207-16.762,32.207c0.185,3.226-0.252,30.465-0.836,33.175
						c0,0.014-18.928,12.891-25.908,13.5c-6.938,0.605-16.265-6.385-20.753-10.732c-4.129-3.999-8.161-7.147-13.626-9.269
						c-1.63-0.633-3.234,0.31-2.607,2.305c0.547,1.738,2.459,2.682,3.836,3.897c1.76,1.552,4.077,3.657,5.121,5.702
						c0.554,1.084-0.594,1.213-1.469,1.109c-1.299-0.155-2.592-0.343-3.895-0.469c-2.587-0.25-6.475-0.184-9.046,0.196
						c-1.258,0.186-3.398,0.84-4.202,1.827c-0.903,1.108-0.503,2.433,0.717,3.211c0.809,0.515,1.824,0.675,2.791,0.606
						c-2.323,0.936-1.757,2.577-1.019,3.533c1.018,1.317,2.678,1.67,4.326,1.562c-1.895,1.187-1.328,2.808-0.706,3.56
						c1.453,1.758,5.926,1.415,9.621,2.324c1.904,0.468,3.338,1.033,5.198,1.643c4.827,1.584,8.209,5.604,13.03,7.267
						c3.791,1.307,7.888,1.752,11.89,1.592c11.898-0.474,35.793-7.096,43.006-10.382
						C324.992,250.571,328.03,249.573,329.146,238.841z"/>
				</g>
				<path style="fill:none;stroke:#303030;stroke-width:1.5;stroke-linecap:round;stroke-linejoin:round;stroke-miterlimit:10;" d="
					M248.732,243.377c-5.149-1.788-11.015-1.896-16.299-0.619"/>
				<path style="fill:none;stroke:#303030;stroke-width:1.5;stroke-linecap:round;stroke-linejoin:round;stroke-miterlimit:10;" d="
					M248.923,248.911c-4.91-1.927-9.906-1.954-13.182-1.058"/>
				<path style="fill:none;stroke:#303030;stroke-width:1.5;stroke-linecap:round;stroke-linejoin:round;stroke-miterlimit:10;" d="
					M313.094,228.165c-5.811-0.345-8.2,1.297-11.622,2.711"/>
			</g>
			
				<path style="fill:#FFFFFF;stroke:#303030;stroke-width:1.5;stroke-linecap:round;stroke-linejoin:round;stroke-miterlimit:10;" d="
				M317.347,163.216c8.783,3.632,15.037,10.088,15.643,19.771c0.605,9.684,1.009,27.631,1.009,27.631s-3.487,4.649-16.934,5.424
				c-12.288,0.708-15.577-1.204-15.577-1.204s-1.763-18.507-1.27-29.618c0.493-11.11,8.565-17.163,8.565-17.163"/>
		</g>
	</g>
</g>
</svg>
