<svg version="1.2" xmlns="http://www.w3.org/2000/svg" viewBox="0 0 5334 4000" width="5334" height="4000">
	<title>hero-img</title>
	<style>
		.s0 { fill: #bee3f7 } 
		.s1 { fill: #8fc3eb } 
		.s2 { fill: #79aad9 } 
		.s3 { fill: #ffffff } 
		.s4 { fill: #f25b19 } 
		.s5 { fill: #fbc528 } 
		.s6 { fill: #305fa0 } 
		.s7 { fill: #223566 } 
		.s8 { fill: #4a84c9 } 
		.s9 { fill: #e22b3a } 
		.s10 { fill: #8f1a1e } 
		.s11 { fill: #b82830 } 
		.s12 { fill: #f68812 } 
		.s13 { fill: #b63844 } 
		.s14 { fill: #71cec3 } 
		.s15 { fill: #e5ede2 } 
		.s16 { fill: #131e2f } 
		.s17 { fill: #131e34 } 
		.s18 { fill: #255a86 } 
		.s19 { fill: #1b3558 } 
		.s20 { fill: #f5ad74 } 
		.s21 { fill: #f17e54 } 
	</style>
	<g id="g8">
		<g id="g10">
			<path id="path14" fill-rule="evenodd" class="s0" d="m876.1 3368c-496.3-259.6-485.3-976.3-47.5-1317 106.7-83.1 526.6-281.6 575.4-727.7 112.4-1028.5 1316.8-840.4 1674.5-213.4 268.6 470.7 625.9 4.6 1082 220 565.8 267 5 839.4 554.2 1139.3 430.4 235 147.2 898.8-193.5 898.8z"/>
			<path id="path16" class="s1" d="m1962.8 2947.2h-179.9v-7h179.9v-191.2h-179.9v-6.9h179.9v-191.2h-179.9v-7h179.9v-191.1h-179.9v-7h179.9v-191.2h-179.9v-6.9h179.9v-191.2h-179.9v-7.3h179.9v-191.2h-179.9v-6.9h179.9v-191.2h-179.9v-6.9h179.9v-180h7v180h191.2v-180h6.9v180h191.2v-180h7v180h191.5v-180h6.9v180h191.2v-180h7v180h191.1v-180h7v180h191.2v-180h6.9v180h191.2v-180h7v180h191.1v-180h7v180h179.9v6.9h-179.9v191.2h179.9v6.9h-179.9v191.2h179.9v7.3h-179.9v191.2h179.9v6.9h-179.9v191.2h179.9v7h-179.9v191.1h179.9v7h-179.9v191.2h179.9v6.9h-179.9v191.2h179.9v7h-179.9v191.1h179.9v7h-179.9v179.9h-7v-179.9h-191.1v179.9h-7v-179.9h-191.2v179.9h-6.9v-179.9h-191.2v179.9h-7v-179.9h-191.1v179.9h-7v-179.9h-191.2v179.9h-6.9v-179.9h-191.5v179.9h-7v-179.9h-191.2v179.9h-6.9v-179.9h-191.2v179.9h-7v-179.9h-179.9v-7h179.9zm1387.3 191.2v-191.2h-191.2v191.2zm-198.1 0v-191.2h-191.2v191.2zm-198.1 0v-191.2h-191.2v191.2zm396.3-389.3h-191.2v191.2h191.2zm-198.1 0h-191.2v191.2h191.2zm-198.2 0h-191.2v191.1h191.2zm-198.1 198.2h-191.2v191.1h191.2zm-198.1 0h-191.6v191.2h191.6zm-198.5 0h-191.2v191.2h191.2zm-198.1 0h-191.2v191.2h191.2zm594.7-198.2h-191.2v191.2h191.2zm-198.1 0h-191.6v191.2h191.6zm-198.5 0h-191.2v191.1h191.2zm-198.1 0h-191.2v191.2h191.2zm1387.2-198.1h-191.2v191.2h191.2zm-198.1 0h-191.2v191.1h191.2zm-198.1 0h-191.2v191.2h191.2zm-198.2 0h-191.2v191.2h191.2zm594.4-198.2h-191.2v191.2h191.2zm-198.1 0h-191.2v191.2h191.2zm-198.1 0h-191.2v191.2h191.2zm-198.2 0h-191.2v191.1h191.2zm594.4-198.1h-191.2v191.2h191.2zm-198.1 0h-191.2v191.2h191.2zm-198.1 0h-191.2v191.1h191.2zm-198.2 0h-191.2v191.2h191.2zm594.4-198.1h-191.2v191.1h191.2zm-198.1 0h-191.2v191.2h191.2zm-198.1 0h-191.2v191.2h191.2zm-198.2 0h-191.2v191.2h191.2zm594.4-198.5h-191.2v191.5h191.2zm-198.1 0h-191.2v191.5h191.2zm-198.1 0h-191.2v191.5h191.2zm-198.2 0h-191.2v191.5h191.2zm594.4-198.1h-191.2v191.2h191.2zm-198.1 0h-191.2v191.2h191.2zm-198.1 0h-191.2v191.1h191.2zm-198.2 0h-191.2v191.2h191.2zm-198.1 991h-191.2v191.2h191.2zm-198.1 0h-191.6v191.2h191.6zm-198.5 0h-191.2v191.2h191.2zm-198.1 0h-191.2v191.1h191.2zm594.7-198.1h-191.2v191.2h191.2zm-198.1 0h-191.6v191.1h191.6zm-198.5 0h-191.2v191.2h191.2zm-198.1 0h-191.2v191.2h191.2zm594.7-198.1h-191.2v191.1h191.2zm-198.1 0h-191.6v191.2h191.6zm-198.5 0h-191.2v191.2h191.2zm-198.1 0h-191.2v191.1h191.2zm594.7-198.1h-191.2v191.2h191.2zm-198.1 0h-191.6v191.2h191.6zm-198.5 0h-191.2v191.1h191.2zm396.6-198.4h-191.2v191.5h191.2zm-198.1 0h-191.6v191.5h191.6zm-198.5 0h-191.2v191.5h191.2zm396.6-198.1h-191.2v191.1h191.2zm-198.1 0h-191.6v191.2h191.6zm-198.5 0h-191.2v191.2h191.2zm-389.3 0v191.2h191.2v-191.2zm0 389.3v0.4h191.1v-191.6h-191.1zm0 198.5h191.1v-191.2h-191.1zm1578.4 799.5h-191.2v191.2h191.2zm-191.2-7h191.2v-191.1h-191.2z"/>
			<path id="path18" class="s2" d="m4440.7 3021.3c0 0 70.5 11 76.8-44.2 0 0-0.3-37.2-15.3-58.2 0 0-32.9 63.5-44.5 56.9-11.3-7 41.9-68.5 41.9-68.5 0 0-32.3-65.2-53.9-78.8 0 0-10.6 79.1-19.9 69.5-9.3-9.3-2.3-92.4-2.3-92.4 0 0-45.3-50.9-78.2-26.3-33.2 24.6-31.5 51.2-25.2 59.2 6.3 8 56.8 46.5 50.5 52.2-6.3 5.6-48.5-10.7-62.8-31.3 0 0-19.3 67.8 9.9 86.8 29.6 18.6 51.2 8.3 69.2 20.3 17.9 11.9 26.9 26.2 15 24.2-12.4-2-38.6-27.6-61.2-26.6-23 1-39.6-0.6-18.3 24.6 21.3 25 69.5 57.5 94.1 44.9 24.2-12.3 24.2-12.3 24.2-12.3z"/>
			<path id="path20" class="s2" d="m4361.6 2807.9c0 0 102.4 151.6 79.1 213.4 0 0-17.9 21.6-23.9 57.9l-7.6 9.6c0 0 11.6-44.2 7.3-55.2 0 0 64.1-18.9-54.9-225.7z"/>
			<path id="path22" class="s2" d="m4416.8 3079.2c0 0-4 48.5-46.9 78.1l-4-5.7c0 0 38.9-38.9 44.6-69.1 6-30.3 6.3-3.3 6.3-3.3z"/>
			<path id="path24" class="s1" d="m4749.6 2926.2c0 0-41.3-73.4 17.6-103.3 0 0 41.2-15 71.1-7 0 0-57.2 62.8-44.9 72.8 12.7 10 58.5-74.8 58.5-74.8 0 0 85.8 8.6 110.4 27.2 0 0-83.8 44.2-69.5 50.9 14.7 6.7 103.8-35.6 103.8-35.6 0 0 75.7 28.9 61.8 76.2-13.6 46.8-43.6 56.1-55.2 52.5-11.6-3.7-75.8-44.2-79.1-34.9-3.3 9.6 31.9 49.5 60.8 57.1 0 0-67.5 49.6-100.7 24.6-32.9-24.9-30.6-53.1-51.2-68.4-20.9-15-40.2-19-32.9-6.3 7.3 12.6 46.5 31.2 54.8 56.8 8.4 25.9 17 43.9-19.6 30.6-36.9-13.3-93-53.5-89.4-85.8 3.7-32.6 3.7-32.6 3.7-32.6z"/>
			<path id="path26" class="s1" d="m5019.8 2925.9c0 0-211.1-50.9-270.2 0.3 0 0-16.7 29.3-54.2 50.9l-7.7 12.6c0 0 44.6-31.2 58.2-30.9 0 0-5.3-79.4 273.9-32.9z"/>
			<path id="path28" class="s1" d="m4695.4 2977.1c0 0-52.5 24.6-67.8 84.4l8.3 2.4c0 0 26.9-59.5 58.2-78.5 31.2-19.3 1.3-8.3 1.3-8.3z"/>
			<path id="path30" class="s1" d="m4631.6 3087.8c0 0-5-111.4 81.4-111.7 0 0 57.8 7 88.1 33.9 0 0-104.4 40.2-95.8 59.2 8.7 19.3 113.4-53.2 113.4-53.2 0 0 95.8 60.8 113.7 97.1 0 0-125 2.6-111.7 18.9 13 16.3 143 19.6 143 19.6 0 0 71.8 78.8 27.9 126-43.9 46.9-84.8 40.2-96.1 29.3-11.6-11.3-63.2-96.8-72.8-87.8-9.6 9 8.3 77.1 37.9 103.1 0 0-108.7 18.6-133-30.3-24.2-48.9-4.6-81.1-19.9-111-15.6-29.9-36.3-46.2-35.3-27 1.4 19 36.6 64.2 31.3 99.4-5.3 35.6-6 61.9-41.6 24.3-35.2-37.5-77.4-118-54.2-153.9 23.7-35.9 23.7-35.9 23.7-35.9z"/>
			<path id="path32" class="s1" d="m4949.7 3247c0 0-218.1-184.8-318.1-159.2 0 0-36.9 24.3-94.1 27.9l-16.6 10.3c0 0 71.1-10.6 87-2.3 0 0 40.6-96.7 341.8 123.3z"/>
			<path id="path34" class="s1" d="m4537.5 3115.7c0 0-76.2-2.3-129.7 59.2l8.3 7.6c0 0 66.9-54.1 115.1-58.1 48.2-4 6.3-8.7 6.3-8.7z"/>
			<path id="path36" class="s1" d="m4257.6 3213.1c17.9 56.5-12.3 106.7-39.3 139.6-5.3-0.3-8.6 0.7-14.2 1.4-50.6 5.6-72.8-3.4-123-6-11-0.3-41.9-12.3-54.2-18.3l-22.6-11c0 0-26-134.9 44.8-162.2 70.5-27.6 61.5-159.6 64.5-230.7 2-43.5 16-63.5 19.3-79.4 33.3-169.2-7.6-225.4 34.6-275 46.9-54.5 110-2 163.9-58.8 60.5-64.2 20.6-173.9 90.1-221.4 11.9-8.3 24.2-16.3 42.8-19.9 45.3-8.7 76.8 22.2 113.1-12.3 73.1-69.8 179.1-85.1 230.3 2.6 50.9 86.8-42.5 234.7-240.6 338.4-134 90.4-140 121.7-140 199.8-0.3 54.9 33.6 201.5-46.5 248.3-80.1 47.2-143.6 100.8-123 164.9z"/>
			<path id="path38" class="s3" d="m4106.7 3353.4l-3.7-1c5.7-21.3 11.3-42.5 16.9-63.5 43.6-155.6 100.1-301.2 167.9-433.1 57.5-111.7 124-215.1 197.5-307.5 59.2-74.2 123-142 190.1-200.8 41.3-35.9 83.1-68.5 125-97.1 1 1 1.7 2 2.4 3.3-41.9 28.3-83.8 60.5-125 96.8-66.9 58.5-130.7 126-189.5 200.1-73.5 92.1-139.6 195.5-197.2 306.8-67.8 132-123.9 277.3-167.5 432.5-6 21-11.6 42.2-16.9 63.5z"/>
			<path id="path40" class="s3" d="m4403.5 2666.6l-3.3-2c73.1-115.7 64.1-333.1 59.8-392.2 1.3-0.4 2.7-0.7 3.7-0.7 4.3 58.5 13.6 277.9-60.2 394.9z"/>
			<path id="path42" class="s3" d="m4199.4 3062.5l-3.3-1.6c40.2-83.8 193.4-136 238-149.6 0 1.3 0 2.3 0 3.6-45.2 14-195.5 65.9-234.7 147.6z"/>
			<path id="path44" class="s3" d="m4177.5 3120.4l-3.7-1c18.9-68.2 8.3-171.5-30.3-290.6l-0.3-0.3c1-1.3 2-2.6 2.7-4 0.3 1 0.6 2 1 3.3 38.9 119.7 49.5 223.8 30.6 292.6z"/>
			<path id="path46" class="s3" d="m4117 3314.5l-3-1.6c34.5-55.2 120-74.2 148.2-78.8 0 1.3 0.4 2.3 0.4 3.6-28 4.7-111.7 23.3-145.6 76.8z"/>
			<path id="path48" class="s3" d="m4101 3353.1c-6-60.5-28.9-121.4-70.1-185.5 1-0.7 2-1.7 3-2.3 41.5 64.8 64.8 126.3 70.8 187.4z"/>
			<path id="path50" class="s3" d="m4638.9 2385.7l-3-2c46.8-65.8 81.8-144.2 97-179.5 1 0.3 2.4 0.7 3.4 1-15 34.9-50.2 114-97.4 180.5z"/>
			<path id="path52" class="s3" d="m4538.1 2490.4l-2-3c53.6-40.9 172.2-33.5 218.4-28.9-0.9 1-1.9 2.3-2.9 3.3-47.6-4.3-162.6-10.3-213.5 28.6z"/>
			<path id="path54" class="s2" d="m4361 3343.8q-1.5 0.5-3 1c-60.9 17.9-130 26.6-209.1 20.2-15.3-2.3-30.6-4.6-46.2-6.9-8.3-38.3-9.7-75.8 38.9-84.5 75.1-13.6 91.7-141.6 76.7-189.1-18.2-58.9-58.1-197.2 58.2-219.8 96.8-18.9 162.9-11.3 183.2-130.6 20.3-119.3 94.4-186.8 202.8-167.2 113.7 20.6 225.4-121.4 313.4-59.5 153.6 107.7-25.2 355.3-233 409.5-208.1 53.9-102 138.7-107.7 237.7-8 135-186.5 85.8-240.3 133-18.3 15.9-28.6 35.9-33.9 56.2z"/>
			<path id="path56" class="s3" d="m4244.9 3364.7l-4.9-1.6c120.6-369.7 415.8-680.2 774.2-816.8 1 1.6 1.6 3 2.6 4.6-357 136-651.5 445.5-771.9 813.8z"/>
			<path id="path58" class="s3" d="m4330 3163.9l-5.3-0.6c15-127.7-62.5-243-91.1-280.6 1.4-1.3 2.7-2.3 4.4-3.3 29.5 38.9 107.3 155.2 92 284.5z"/>
			<path id="path60" class="s3" d="m4269.5 3295.6l-4.3-3c78.8-112.1 304.5-117 366.7-116.4-0.3 2-0.7 4-1.3 5.7-63.5-1-284.3 4.6-361.1 113.7z"/>
			<path id="path62" class="s3" d="m4562.1 2849.8l-4.7-2.7c50.5-86.7 26.6-221.7 14.3-274.2q2.5-1 5-2c12.3 52.8 36.9 190.5-14.6 278.9z"/>
			<path id="path64" class="s3" d="m4756.2 2687.2l-2-4.6c90.1-41.9 206.1-24.3 268.9-9.3-0.3 1.6-0.9 3.3-1.6 5-62.5-14.7-176.5-32-265.3 8.9z"/>
			<path id="path66" class="s4" d="m858.9 2201.9l672.1-666.9 24.6 9.3 323.5 316.2 587.7-637.3 59.2 21.6 323.4 316.2 595.4-566.5-134.6-131.6 418.1-200.2 58.9 79.5-128 461.7-99.4-36.2-37.2-97.1-673.2 641-70.5-26-252.9-290.2-646.9 615.3-35.9-13.3-287.6-302.8-619.6 584.1z"/>
			<path id="path68" class="s5" d="m858.9 2201.9l634.6-629.3 37.5-37.6 37.6 37.6 274.6 274.6 586-586.4 37.6-37.6 37.6 37.6 274.5 274.2 574.1-574.1-129.6-129.9 504.9-168.3-168.5 505-131.3-131.6-649.6 649.5-312.1-311.8-623.6 623.6-37.9-37.5-274.3-274.3-274.2 274.3-0.4 0.3-323.1 317.5z"/>
			<path id="path70" class="s2" d="m1059.3 3262c-12.3 38.5 8.3 72.8 26.6 95.4 3.7-0.3 6 0.3 10 0.7 34.2 4 49.5-2 83.7-4 7.4-0.4 28.6-8.3 36.9-12.3l15.7-7.7c0 0 17.6-92.1-30.6-110.7-48.2-18.6-42.2-108.7-44.2-157.2-1.4-29.9-11-43.2-13-54.2-22.9-115.7 5-153.9-23.9-187.5-31.9-37.2-74.8-1.6-111.7-40.2-41.2-43.9-14-118.7-61.5-151.3-8-5.6-16.6-10.9-29.3-13.3-30.9-5.9-52.2 15-77.1-8.6-49.9-47.5-122.3-57.8-157.2 2-34.6 58.8 29.2 159.9 164.5 230.7 91.4 61.8 95.4 83.1 95.4 136.3 0 37.6-22.9 137.6 31.6 169.5 54.9 31.9 98.1 68.5 84.1 112.4z"/>
			<path id="path72" class="s3" d="m1162 3357.7l2.7-0.6c-3.7-14.3-7.7-29.3-11.6-43.6-30-105.7-68.2-205.1-114.7-295.2-39.3-76.1-84.5-146.9-134.7-209.7-40.2-50.9-83.7-96.8-129.6-137-28.3-24.6-56.9-46.9-85.4-66.1-0.4 0.6-1 1.3-1.4 1.9 28.6 19.3 57.2 41.6 85.1 66.2 45.6 39.9 89.1 85.8 129.3 136.3 50.2 63.2 95.4 133.6 134.7 209.4 46.2 90.1 84.4 189.2 114 294.9 4.3 14.3 8 28.9 11.6 43.5z"/>
			<path id="path74" class="s3" d="m959.6 2889.3l2.3-1.6c-49.9-78.8-43.5-227.1-40.9-267.6-1 0-1.6-0.4-2.6-0.4-2.7 39.9-9 189.5 41.2 269.6z"/>
			<path id="path76" class="s3" d="m1098.9 3159.3l2.3-1c-27.3-57.2-132.3-93.1-162.6-102.1 0 0.7 0 1.7 0 2.3 31 9.7 133.7 44.9 160.3 100.8z"/>
			<path id="path78" class="s3" d="m1113.8 3198.8l2.4-0.6c-12.7-46.6-5.4-117.1 20.9-198.5-0.7-1-1.3-2-1.7-2.7-0.3 0.7-0.6 1.4-0.6 2-26.6 81.8-33.9 152.6-21 199.8z"/>
			<path id="path80" class="s3" d="m1155 3331.5l2-1.4c-23.2-37.9-81.7-50.5-101-53.8 0 1 0 1.6-0.4 2.6 19.3 3 76.5 15.7 99.4 52.6z"/>
			<path id="path82" class="s3" d="m1166 3357.4c4-41.2 19.6-82.4 47.9-126.3-0.7-0.7-1.3-1.4-2-1.7-28.6 44.2-44.2 86.1-48.5 128z"/>
			<path id="path84" class="s3" d="m799 2697.5l2-1.3c-31.9-44.9-55.8-98.4-66.1-122.3-0.7 0-1.7 0.3-2.4 0.3 10.3 23.9 34.3 78.1 66.5 123.3z"/>
			<path id="path86" class="s3" d="m867.5 2769l1.7-2c-36.6-27.9-117.7-22.9-149-19.9 0.7 1 1.4 1.6 2 2.3 32.3-3 110.7-7 145.3 19.6z"/>
			<path id="path88" class="s1" d="m988.8 3351.1c0.7 0.3 1.4 0.6 2 0.6 41.2 12.3 88.5 18.3 142.6 14 10.3-1.7 21-3.3 31.3-4.6 6-26.3 7-51.9-26.3-57.9-51.5-9-62.5-96.4-52.5-129 12.6-40.2 39.6-134.3-39.6-149.9-66.1-12.6-111.3-7.6-125-89.1-13.9-81.4-64.4-127.6-138.2-114-77.8 14-154-82.8-214.1-40.6-104.7 73.5 17.3 242.4 159.2 279.3 141.6 36.9 69.5 94.7 73.5 162.2 5.3 92.1 127 58.5 163.9 90.8 12.3 10.9 19.2 24.6 23.2 38.2z"/>
			<path id="path90" class="s3" d="m1067.6 3365.4l3.7-1c-82.5-252-283.9-464.1-528.3-557.5-0.6 1.3-1.3 2.3-1.9 3.3 243.6 92.8 444.4 303.9 526.5 555.2z"/>
			<path id="path92" class="s3" d="m1009.8 3228.4l3.6-0.3c-10.3-87.1 42.6-165.9 62.2-191.5-1-0.7-2-1.7-3-2.3-20.3 26.6-73.5 106-62.8 194.1z"/>
			<path id="path94" class="s3" d="m1051 3318.5l3-2.3c-53.9-76.5-207.8-79.8-250.3-79.1 0.3 1.3 0.6 2.3 1 3.6 43.2-0.6 193.8 3 246.3 77.8z"/>
			<path id="path96" class="s3" d="m851.2 3014l3.3-1.7c-34.2-59.1-17.9-151.2-9.6-187.1-1.3-0.3-2.3-1-3.7-1.3-8.3 36.2-24.9 129.9 10 190.1z"/>
			<path id="path98" class="s3" d="m718.9 2903.3l1.7-3.3c-61.9-28.6-140.7-16.6-183.9-6.3 0.4 1.3 0.7 2.3 1.4 3.6 42.5-10.3 120.3-21.9 180.8 6z"/>
			<path id="path100" fill-rule="evenodd" class="s6" d="m2724.1 3404.3c1178.1 0 2138.8-24.3 2138.8-54.2 0-29.9-960.7-54.2-2138.8-54.2-1178.1 0-2139.2 24.3-2139.2 54.2 0 29.9 961.1 54.2 2139.2 54.2z"/>
			<path id="path102" fill-rule="evenodd" class="s6" d="m708.3 1917.7h942.4c16.9 0 30.9 13.9 30.9 30.9v560.4c0 17-14 31-30.9 31h-942.4c-17.3 0-31-14-31-31v-560.4c0-17 13.7-30.9 31-30.9z"/>
			<path id="path104" fill-rule="evenodd" class="s7" d="m1681.6 2058.3v450.7c0 17-14 31-30.9 31h-942.4c-17.3 0-31-14-31-31v-450.7c0-17 13.7-30.9 31-30.9h942.4c16.9 0 30.9 13.9 30.9 30.9z"/>
			<path id="path106" fill-rule="evenodd" class="s8" d="m750.8 2531h857.3v-604.4h-857.3z"/>
			<path id="path108" fill-rule="evenodd" class="s6" d="m1644.4 2250.1c11.6 0 21.3-9.7 21.3-21.3 0-11.6-9.7-21.3-21.3-21.3-11.7 0-21.3 9.7-21.3 21.3 0 11.6 9.6 21.3 21.3 21.3z"/>
			<path id="path110" fill-rule="evenodd" class="s6" d="m707.3 2298.6c4.3 0 7.6-3.6 7.6-8v-84.4c0-4-3.3-7.6-7.6-7.6-4 0-7.7 3.6-7.7 7.6v84.4c0 4.4 3.7 8 7.7 8z"/>
			<path id="path112" fill-rule="evenodd" class="s6" d="m707.3 2177.3c4.3 0 7.6-3.3 7.6-7.7v-2.6c0-4.3-3.3-7.7-7.6-7.7-4 0-7.7 3.4-7.7 7.7v2.6c0 4.4 3.7 7.7 7.7 7.7z"/>
			<path id="path114" fill-rule="evenodd" class="s3" d="m796.4 1939.9h766.9c18.6 0 33.9 15.3 33.9 33.9v510c0 18.6-15.3 34.2-33.9 34.2h-766.9c-19 0-34.3-15.6-34.3-34.2v-510c0-18.6 15.3-33.9 34.3-33.9z"/>
			<path id="path116" class="s8" d="m987.2 2102.5c-1.4 0-2.4-1-2.4-2 0-1.3 1-2.3 2.4-2.3h545.5c1.3 0 2.3 1 2.3 2.3 0 1-1 2-2.3 2z"/>
			<path id="path118" class="s8" d="m1532.7 2273.4c4.6 0 8.6 3.6 8.6 8.6 0 4.7-4 8.3-8.6 8.3-4 0-7.3-2.6-8.3-6.3h-454.8c-1.3 0-2.3-1-2.3-2 0-1.3 1-2.3 2.3-2.3h454.8c1-3.7 4.3-6.3 8.3-6.3zm0 94.4c4.6 0 8.6 3.6 8.6 8.3 0 4.6-4 8.6-8.6 8.6-4 0-7.3-2.6-8.3-6.3h-696.5c-1.3 0-2.3-1-2.3-2.3 0-1.4 1-2.4 2.3-2.4h696.5c1-3.3 4.3-5.9 8.3-5.9zm-628.3-153.3c-1.3 0-2.3-1-2.3-2.3 0-1 1-2.3 2.3-2.3h620c1-3.4 4.3-6 8.3-6 4.6 0 8.6 3.6 8.6 8.3 0 4.6-4 8.6-8.6 8.6-4 0-7.3-2.6-8.3-6.3z"/>
			<path id="path120" fill-rule="evenodd" class="s9" d="m1317.3 2470.5h-55.2v-370h55.2z"/>
			<path id="path122" fill-rule="evenodd" class="s10" d="m1234.5 2470.5h-55.2v-258.3h55.2z"/>
			<path id="path124" fill-rule="evenodd" class="s5" d="m1152.1 2470.5h-55.2v-188.5h55.2z"/>
			<path id="path126" fill-rule="evenodd" class="s11" d="m1069.3 2470.5h-55.2v-370h55.2z"/>
			<path id="path128" fill-rule="evenodd" class="s5" d="m986.5 2470.5h-55.2v-257h55.2z"/>
			<path id="path130" fill-rule="evenodd" class="s12" d="m903.7 2470.5h-54.8v-94.4h54.8z"/>
			<path id="path132" class="s13" d="m877.5 2376.7c-0.4 0.7-1 0.7-1.7 0.4-0.7 0-0.7-1-0.7-1.4l82.8-162.8 82.8-113.4c0.3-0.3 1-0.3 1.7 0 0.3 0 0.3 0.3 0.3 0.3l82.1 180.2 81.4-68.5 82.5-112c0.3-0.3 1.3-0.3 1.6 0 0.7 0.3 0.7 1 0.4 1.7l-82.8 111.7c0 0.3 0 0.3 0 0.3l-82.8 69.5-0.3 0.3c-0.7 0-1.3 0-1.7-0.7l-81.7-179.8-81.5 111.7z"/>
			<path id="path134" fill-rule="evenodd" class="s13" d="m876.5 2367.8c4.6 0 8.3 3.6 8.3 8.3 0 4.6-3.7 8.6-8.3 8.6-5 0-8.7-4-8.7-8.6 0-4.7 3.7-8.3 8.7-8.3z"/>
			<path id="path136" fill-rule="evenodd" class="s13" d="m958.9 2204.9c4.7 0 8.7 4 8.7 8.6 0 4.7-4 8.3-8.7 8.3-4.6 0-8.3-3.6-8.3-8.3 0-4.6 3.7-8.6 8.3-8.6z"/>
			<path id="path138" fill-rule="evenodd" class="s13" d="m1041.7 2091.9c4.6 0 8.6 3.6 8.6 8.6 0 4.6-4 8.3-8.6 8.3-4.7 0-8.7-3.7-8.7-8.3 0-5 4-8.6 8.7-8.6z"/>
			<path id="path140" fill-rule="evenodd" class="s13" d="m1124.5 2273.4c4.6 0 8.3 3.6 8.3 8.6 0 4.7-3.7 8.3-8.3 8.3-4.7 0-8.7-3.6-8.7-8.3 0-5 4-8.6 8.7-8.6z"/>
			<path id="path142" fill-rule="evenodd" class="s13" d="m1206.9 2203.9c4.7 0 8.6 3.6 8.6 8.3 0 4.6-3.9 8.6-8.6 8.6-4.7 0-8.3-4-8.3-8.6 0-4.7 3.6-8.3 8.3-8.3z"/>
			<path id="path144" fill-rule="evenodd" class="s13" d="m1289.7 2091.9c4.6 0 8.6 3.6 8.6 8.6 0 4.6-4 8.3-8.6 8.3-4.7 0-8.7-3.7-8.7-8.3 0-5 4-8.6 8.7-8.6z"/>
			<path id="path146" fill-rule="evenodd" class="s14" d="m1532.7 2091.9c4.6 0 8.6 3.6 8.6 8.6 0 4.6-4 8.3-8.6 8.3-4.7 0-8.7-3.7-8.7-8.3 0-5 4-8.6 8.7-8.6z"/>
			<path id="path148" fill-rule="evenodd" class="s8" d="m1460.9 1991.1c60.1 0 109.3 48.9 109.3 109.4 0 60.2-49.2 109-109.3 109-60.5 0-109.4-48.8-109.4-109 0-60.5 48.9-109.4 109.4-109.4z"/>
			<path id="path150" fill-rule="evenodd" class="s15" d="m1460.9 1996.8c57.2 0 103.4 46.5 103.4 103.7 0 56.8-46.2 103.4-103.4 103.4-57.2 0-103.4-46.6-103.4-103.4 0-57.2 46.2-103.7 103.4-103.7z"/>
			<path id="path152" fill-rule="evenodd" class="s10" d="m1554.9 2143.4c-16.2 35.5-52.5 60.5-94 60.5-23 0-43.9-7.7-60.9-20l60.9-83.4z"/>
			<path id="path154" fill-rule="evenodd" class="s9" d="m1454.2 2203.5c-20.3-1.3-38.9-8.3-54.2-19.6l60.9-83.4z"/>
			<path id="path156" fill-rule="evenodd" class="s5" d="m1460.9 1996.8c57.2 0 103.4 46.5 103.4 103.7 0 15.3-3.4 29.6-9.4 42.9l-94-42.9z"/>
			<path id="path158" fill-rule="evenodd" class="s8" d="m813.3 1973.5h366.3c1 0 2 0.7 2 1.7v5.3c0 1-1 1.6-2 1.6h-366.3c-1 0-2-0.6-2-1.6v-5.3c0-1 1-1.7 2-1.7z"/>
			<path id="path160" fill-rule="evenodd" class="s8" d="m813.3 1994.5h366.3c1 0 2 1 2 1.9v5c0 1-1 2-2 2h-366.3c-1 0-2-1-2-2v-5c0-0.9 1-1.9 2-1.9z"/>
			<path id="path162" fill-rule="evenodd" class="s8" d="m813.3 2016.1h145.9c1 0 2 0.6 2 1.6v5c0 1-1 2-2 2h-145.9c-1 0-2-1-2-2v-5c0-1 1-1.6 2-1.6z"/>
			<path id="path164" fill-rule="evenodd" class="s7" d="m4026.5 2994.1c306.5 0 556.2-250 556.2-556.2 0-306.2-249.7-556.1-556.2-556.1-306.1 0-555.8 249.9-555.8 556.1 0 306.2 249.7 556.2 555.8 556.2z"/>
			<path id="path166" fill-rule="evenodd" class="s8" d="m3946.8 2994.1c306.1 0 555.8-250 555.8-556.2 0-306.2-249.7-556.1-555.8-556.1-306.5 0-556.2 249.9-556.2 556.1 0 306.2 249.7 556.2 556.2 556.2z"/>
			<path id="path168" fill-rule="evenodd" class="s3" d="m3946.8 2948.2c280.9 0 509.9-229.4 509.9-510.3 0-280.9-229-510.3-509.9-510.3-281.3 0-510.3 229.4-510.3 510.3 0 280.9 229 510.3 510.3 510.3z"/>
			<path id="path170" fill-rule="evenodd" class="s1" d="m3452.1 2437.9h14.3c0-135.6 55.2-258.6 143.9-347.7 89.1-88.8 212.1-143.9 347.8-143.9 135.6 0 258.6 55.1 347.7 143.9 88.7 89.1 143.9 212.1 143.9 347.7 0 135.6-55.2 258.6-143.9 347.7-89.1 88.8-212.1 144-347.7 144-135.7 0-258.7-55.2-347.8-144-88.7-89.1-143.9-212.1-143.9-347.7h-14.3-14.6c0 143.6 58.2 273.9 152.6 368 94 94.4 224.4 152.6 368 152.6 143.6 0 273.9-58.2 368-152.6 94.4-94.1 152.5-224.4 152.5-368 0-143.6-58.1-273.9-152.5-368-94.1-94.4-224.4-152.6-368-152.6-143.6 0-274 58.2-368 152.6-94.4 94.1-152.6 224.4-152.6 368z"/>
			<path id="path172" fill-rule="evenodd" class="s1" d="m3916.5 2040l-9.3 2.7c-1 0.3-2 0.3-2.7 0.3-4 0-6.9-3-6.9-6.7 0-3.3 1.9-6 5.3-6.6l13.3-4.3c3.3-1 5.6-1.7 7.9-1.7 4.7 0 8 3.7 8 8v75.8c0 4.3-3.6 8-8 8-3.9 0-7.6-3.7-7.6-8z"/>
			<path id="path174" fill-rule="evenodd" class="s1" d="m3954.1 2099.5l27.6-23.6c12.3-10.3 16.6-16 16.6-24.3 0-8.6-6.3-13.9-14.3-13.9-7.3 0-12.3 3.3-18 9.9-1 1.4-2.6 2.7-5.3 2.7-4 0-7.3-3.3-7.3-7.3q0-2.5 2-5c7.3-9 15.6-14.3 29.6-14.3 17.6 0 29.6 10.6 29.6 26.9 0 14.3-7.3 22-23.3 34.9l-18.3 15.3h36.3c3.9 0 6.9 3 6.9 7 0 3.7-3 7-6.9 7h-50.9c-5 0-8.3-3-8.3-7.7 0-3 1.3-5.6 4-7.6z"/>
			<path id="path176" fill-rule="evenodd" class="s1" d="m4306.8 2473.1c-1.4-1.3-2.3-3.3-2.3-5.6 0-4 3.3-7.7 7.3-7.7 2.3 0 3.9 1 5.3 2 5.6 5.7 12.3 8.7 20.6 8.7 8.6 0 15.3-5.3 15.3-13.6v-0.4c0-8.6-8-13.6-20.6-13.6h-3c-4 0-7-3-7-7 0-2 1-4 3.3-6.3l21-22.3h-32.6c-3.7 0-6.7-3.3-6.7-7 0-3.6 3-6.9 6.7-6.9h45.9c4.6 0 7.9 2.6 7.9 6.9 0 3.7-1.6 6-4.6 8.7l-21 21.9c13.7 1.7 26.3 8.7 26.3 25.3 0 16.6-12.6 28.6-31.2 28.6-13.3 0-23.3-4.7-30.6-11.7z"/>
			<path id="path178" fill-rule="evenodd" class="s1" d="m3933.1 2844.5c-6.6-7-10.9-16.3-10.9-34.3v-0.3c0-27.3 13.3-48.9 38.5-48.9 9.3 0 16.6 2.3 22.3 6.3 2.7 1.7 4 3.7 4 7 0 4-3.3 7.3-7.3 7.3-1.7 0-3-0.6-4-1.3-5-3-9.7-5-15.6-5-13.3 0-20.7 12.3-21.3 28.6 4.6-4.6 10.6-9 21.3-9 17.2 0 31.2 10.3 31.2 28.3v0.3c0 17.6-14.3 30.3-33.2 30.3-11 0-19-3.4-25-9.3zm42.6-20.6c0-9-7.3-15.7-18.3-15.7-11.3 0-18.3 7-18.3 15.7v0.3c0 9 7.3 15.9 18.6 15.9 11.3 0 18-6.9 18-16.2z"/>
			<path id="path180" fill-rule="evenodd" class="s1" d="m3545.2 2478.1c-2-1.3-3.3-3.6-3.3-6.6 0-4 3.3-7 7.3-7 1.6 0 3 0.3 4.3 1 5.3 4 10.3 5.6 16.3 5.6 13.3 0 21.3-11.6 21.9-28.2-4.6 5.3-11.6 9.6-21.2 9.6-19 0-31.6-11.3-31.6-28.6v-0.3c0-17.3 13.6-30.9 33.2-30.9 11.3 0 18.6 3.3 25.3 9.6 6.3 6.7 10.6 16.3 10.6 34.3 0 28.9-14.3 48.8-38.5 48.8-10 0-17.7-2.9-24.3-7.3zm45.9-55.2c0-9.3-7.4-16.6-18.7-16.6-11.3 0-17.9 7.3-17.9 16.6v0.4c0 9.3 7.3 15.9 18.3 15.9 11.6 0 18.3-7.3 18.3-16.3z"/>
			<path id="path182" fill-rule="evenodd" class="s1" d="m3511.9 2440.9c0 4-3.3 7.3-6.9 7.3h-24.6c-4 0-7.3-3.3-7.3-7.3v-2c0-4 3.3-7 7.3-7h24.6c3.6 0 6.9 3 6.9 7z"/>
			<path id="path184" fill-rule="evenodd" class="s1" d="m3968.4 1987.8c0 4-3 6-7 6h-3.3q-6 0-6-6v-24.6c0-4 2-8 6-8h3.3c4 0 7 4 7 8z"/>
			<path id="path186" fill-rule="evenodd" class="s1" d="m4440.7 2440.9c0 4-3 7.3-6.9 7.3h-24.6c-4 0-7-3.3-7-7.3v-2c0-4 3-7 7-7h24.6c3.9 0 6.9 3 6.9 7z"/>
			<path id="path188" fill-rule="evenodd" class="s1" d="m3968.4 2913.6c0 4-3.4 7-7.3 7h-2c-4 0-7-3-7-7v-24.6c0-4 3-7 7-7h2c3.9 0 7.3 3 7.3 7z"/>
			<path id="path190" fill-rule="evenodd" class="s1" d="m3715.7 2842.8c-2 3-1.3 7 1.7 9 3 2 7 1 9-2l10.3-16c2-2.6 1.3-6.6-1.7-8.6-3-2-7-1-9 1.6z"/>
			<path id="path192" fill-rule="evenodd" class="s1" d="m3546.9 2667.6c-3 1.7-4 5.7-2.4 8.7 1.7 3 5.7 4.3 8.7 2.6l16.6-9.3c3-2 4.3-5.6 2.6-9-1.9-3-5.6-4-8.9-2.3z"/>
			<path id="path194" fill-rule="evenodd" class="s1" d="m3552.8 2194.9c-2.6-2-6.6-1-8.6 2-2 2.7-1.3 6.6 1.7 8.6l15.9 10.7c3 2 7 1 9-2 2-2.7 1-6.7-2-8.7z"/>
			<path id="path196" fill-rule="evenodd" class="s1" d="m3728.3 2026.4c-1.6-3-5.6-4.4-8.6-2.7-3.3 2-4.3 5.7-2.6 8.6l9.3 17c1.6 3 5.6 4 8.6 2.3 3.3-1.6 4.3-5.6 2.7-8.6z"/>
			<path id="path198" fill-rule="evenodd" class="s1" d="m4200.4 2034.7c2-3 1.3-6.7-1.7-8.7-3-2-6.9-1.3-8.9 1.7l-10.3 16c-2 2.9-1.4 6.9 1.6 8.9 3 2 7 1 9-2z"/>
			<path id="path200" fill-rule="evenodd" class="s1" d="m4369.3 2210.2c3-1.7 4-5.7 2.3-8.7-1.7-3.3-5.7-4.3-8.6-2.6l-16.7 9.3c-3 1.7-4.3 5.7-2.6 8.6 2 3 5.6 4.4 8.6 2.7z"/>
			<path id="path202" fill-rule="evenodd" class="s1" d="m4363.3 2680.6c2.6 2 6.6 1.3 8.6-1.7 2-3 1-7-1.6-9l-16-10.3c-3-2-7-1.3-9 1.7-2 3-1 7 1.7 9z"/>
			<path id="path204" fill-rule="evenodd" class="s1" d="m4187.8 2849.5c1.6 2.9 5.6 3.9 8.6 2.3 3-1.7 4.3-5.7 2.7-8.7l-9.3-16.6c-2-3.3-5.7-4.3-8.7-2.6-3.3 1.6-4.3 5.6-2.6 8.6z"/>
			<path id="path206" fill-rule="evenodd" class="s7" d="m3440.5 2437.9h14.6c0-135.6 54.8-258.6 143.9-347.7 89.1-88.8 211.8-143.9 347.8-143.9 135.6 0 258.3 55.1 347.3 143.9 89.1 89.1 144 212.1 144 347.7 0 135.6-54.9 258.6-144 347.7-89 88.8-211.7 144-347.3 144-136 0-258.7-55.2-347.8-144-89.1-89.1-143.9-212.1-143.9-347.7h-14.6-14.7c0 143.6 58.5 273.9 152.6 368 94.1 94.4 224.4 152.6 368.4 152.6 143.6 0 273.9-58.2 367.9-152.6 94.1-94.1 152.6-224.4 152.6-368 0-143.6-58.5-273.9-152.6-368-94-94.4-224.3-152.6-367.9-152.6-144 0-274.3 58.2-368.4 152.6-94.1 94.1-152.6 224.4-152.6 368z"/>
			<path id="path208" fill-rule="evenodd" class="s7" d="m3904.9 2040l-9 2.7c-1 0.3-2.3 0.3-3 0.3-3.6 0-7-3-7-6.7 0-3.3 2-6 5.3-6.6l13.7-4.3c3-1 5.3-1.7 7.6-1.7h0.4c4.3 0 7.6 3.7 7.6 8v75.8c0 4.3-3.3 8-7.6 8-4.4 0-8-3.7-8-8z"/>
			<path id="path210" fill-rule="evenodd" class="s7" d="m3942.4 2099.5l27.6-23.6c12.3-10.3 17-16 17-24.3 0-8.6-6.3-13.9-14.6-13.9-7 0-12 3.3-17.7 9.9-1 1.4-3 2.7-5.6 2.7-4 0-7-3.3-7-7.3 0-1.7 0.7-3.3 1.7-5 7.3-9 15.6-14.3 29.9-14.3 17.6 0 29.6 10.6 29.6 26.9 0 14.3-7.7 22-23.3 34.9l-18.6 15.3h36.5c3.7 0 6.7 3 6.7 7 0 3.7-3 7-6.7 7h-51.1c-4.7 0-8.4-3-8.4-7.7 0-3 1.4-5.6 4-7.6z"/>
			<path id="path212" fill-rule="evenodd" class="s7" d="m4295.5 2473.1c-1.4-1.3-2.7-3.3-2.7-5.6 0-4 3.7-7.7 7.7-7.7 2.3 0 4 1 5.3 2 5.6 5.7 11.9 8.7 20.3 8.7 8.9 0 15.6-5.3 15.6-13.6v-0.4c0-8.6-8.3-13.6-20.6-13.6h-3.4c-3.6 0-6.6-3-6.6-7 0-2 0.7-4 3.3-6.3l21-22.3h-32.6c-4 0-7-3.3-7-7 0-3.6 3-6.9 7-6.9h45.9c4.3 0 7.9 2.6 7.9 6.9 0 3.7-2 6-4.6 8.7l-21.3 21.9c13.6 1.7 26.6 8.7 26.6 25.3 0 16.6-12.6 28.6-31.6 28.6-12.9 0-22.9-4.7-30.2-11.7z"/>
			<path id="path214" fill-rule="evenodd" class="s7" d="m3921.8 2844.5c-7-7-10.9-16.3-10.9-34.3v-0.3c0-27.3 12.9-48.9 38.2-48.9 9.3 0 16.6 2.3 22.6 6.3 2.3 1.7 4 3.7 4 7 0 4-3.7 7.3-7.7 7.3-1.3 0-2.6-0.6-4-1.3-4.6-3-9.3-5-15.3-5-13.2 0-20.9 12.3-21.6 28.6 4.7-4.6 11-9 21.6-9 17.3 0 31.3 10.3 31.3 28.3v0.3c0 17.6-14.6 30.3-33.2 30.3-11 0-19-3.4-25-9.3zm42.6-20.6c0-9-7.3-15.7-18.6-15.7-11 0-18 7-18 15.7v0.3c0 9 7.3 15.9 18.6 15.9 11 0 18-6.9 18-16.2z"/>
			<path id="path216" fill-rule="evenodd" class="s7" d="m3533.9 2478.1c-2.3-1.3-3.7-3.6-3.7-6.6 0-4 3.3-7 7.7-7 1.6 0 3 0.3 4.3 1 5 4 10 5.6 16.3 5.6 13.3 0 21.3-11.6 21.6-28.2-4.3 5.3-11.3 9.6-21 9.6-19.2 0-31.9-11.3-31.9-28.6v-0.3c0-17.3 13.7-30.9 33.6-30.9 11.3 0 18.6 3.3 24.9 9.6 6.7 6.7 10.7 16.3 10.7 34.3 0 28.9-14 48.8-38.3 48.8-10.3 0-17.6-2.9-24.2-7.3zm45.9-55.2c0-9.3-7.4-16.6-19-16.6-11 0-17.6 7.3-17.6 16.6v0.4c0 9.3 7 15.9 18.3 15.9 11.3 0 18.3-7.3 18.3-16.3z"/>
			<path id="path218" fill-rule="evenodd" class="s7" d="m3500.3 2440.9c0 4-3 7.3-7 7.3h-24.6c-3.6 0-7-3.3-7-7.3v-2c0-4 3.4-7 7-7h24.6c4 0 7 3 7 7z"/>
			<path id="path220" fill-rule="evenodd" class="s7" d="m3956.7 1987.8c0 4-2.6 6-6.6 6h-3.3c-4 0-6.4-2-6.4-6v-24.6c0-4 2.4-8 6.4-8h3.3c4 0 6.6 4 6.6 8z"/>
			<path id="path222" fill-rule="evenodd" class="s7" d="m4429.4 2440.9c0 4-3.3 7.3-6.9 7.3h-24.6c-4 0-7.4-3.3-7.4-7.3v-2c0-4 3.4-7 7.4-7h24.6c3.6 0 6.9 3 6.9 7z"/>
			<path id="path224" fill-rule="evenodd" class="s7" d="m3956.7 2913.6c0 4-3 7-7 7h-2.3c-3.6 0-7-3-7-7v-24.6c0-4 3.4-7 7-7h2.3c4 0 7 3 7 7z"/>
			<path id="path226" fill-rule="evenodd" class="s7" d="m3704.1 2842.8c-2 3-1 7 2 9 2.6 2 6.6 1 8.6-2l10.7-16c2-2.6 1-6.6-2-8.6-2.7-2-6.7-1-8.7 1.6z"/>
			<path id="path228" fill-rule="evenodd" class="s7" d="m3535.5 2667.6c-2.9 1.7-4.3 5.7-2.6 8.7 2 3 5.6 4.3 8.6 2.6l17-9.3c3-2 4-5.6 2.3-9-1.7-3-5.6-4-8.6-2.3z"/>
			<path id="path230" fill-rule="evenodd" class="s7" d="m3541.5 2194.9c-3-2-7-1-8.9 2-1.7 2.7-1 6.6 1.9 8.6l16 10.7c3 2 7 1 8.6-2 2-2.7 1.4-6.7-1.6-8.7z"/>
			<path id="path232" fill-rule="evenodd" class="s7" d="m3716.7 2026.4c-1.6-3-5.6-4.4-8.6-2.7-3 2-4 5.7-2.4 8.6l9.4 17c1.6 3 5.6 4 8.6 2.3 3-1.6 4-5.6 2.3-8.6z"/>
			<path id="path234" fill-rule="evenodd" class="s7" d="m4189.1 2034.7c2-3 1-6.7-2-8.7-2.7-2-6.6-1.3-8.6 1.7l-10.7 16c-2 2.9-1 6.9 2 8.9 2.7 2 6.7 1 8.7-2z"/>
			<path id="path236" fill-rule="evenodd" class="s7" d="m4357.6 2210.2c3-1.7 4.4-5.7 2.7-8.7-2-3.3-5.7-4.3-8.6-2.6l-17 9.3c-3 1.7-4 5.7-2.3 8.6 1.6 3 5.6 4.4 8.6 2.7z"/>
			<path id="path238" fill-rule="evenodd" class="s7" d="m4351.7 2680.6c2.9 2 6.9 1.3 8.9-1.7 1.7-3 1-7-2-9l-15.9-10.3c-3-2-7-1.3-8.7 1.7-2 3-1.3 7 1.7 9z"/>
			<path id="path240" fill-rule="evenodd" class="s7" d="m4176.5 2849.5c1.6 2.9 5.6 3.9 8.6 2.3 3-1.7 4-5.7 2.3-8.7l-9.3-16.6c-1.6-3.3-5.6-4.3-8.6-2.6-3 1.6-4 5.6-2.3 8.6z"/>
			<path id="path242" fill-rule="evenodd" class="s1" d="m4026.5 2451.9c0 18.2-10.6 33.9-26.2 41.2l15.9 27.6-12.9 7.3-18-30.9c-1.3 0-2.6 0.3-4.3 0.3-2 0-4.3-0.3-6.3-0.7-2.3 0.4-4.3 0.7-6.7 0.7-5.9 0-11.6-1.3-16.9-3.3l-94.8 128.3-18.9-14 95.1-128.3c-6.4-8-10-17.6-10-28.2 0-14.3 6.3-27 16.6-35.3l-216.7-376.3 12.6-7.3 216.7 376c5-1.7 10.7-2.7 16.3-2.7 2.4 0 4.4 0 6.7 0.4 2-0.4 4.3-0.4 6.3-0.4 10.3 0 19.9 3.4 27.6 9l256.9-140.3 11.4 20.6-253.7 138.3c2.3 5.7 3.3 11.6 3.3 18z"/>
			<path id="path244" fill-rule="evenodd" class="s7" d="m4005.3 2452.2c0 25.3-20.6 45.5-45.6 45.5-25.2 0-45.5-20.2-45.5-45.5 0-24.9 20.3-45.5 45.5-45.5 25 0 45.6 20.6 45.6 45.5z"/>
			<path id="path246" fill-rule="evenodd" class="s7" d="m3815.8 2609.1l139.6-188.8 18.9 14-139.6 188.8z"/>
			<path id="path248" fill-rule="evenodd" class="s7" d="m4255.3 2296.3l-307.5 167.5-11.3-20.6 307.4-167.5z"/>
			<path id="path250" fill-rule="evenodd" class="s7" d="m3982 2528.7l-281.2-487.7 12.9-7.7 280.9 488z"/>
			<path id="path252" fill-rule="evenodd" class="s6" d="m3992 2452.2c0 25.3-20.3 45.5-45.6 45.5-24.9 0-45.5-20.2-45.5-45.5 0-24.9 20.6-45.5 45.5-45.5 25.3 0 45.6 20.6 45.6 45.5z"/>
			<path id="path254" fill-rule="evenodd" class="s7" d="m3979 2452.2c0 17.9-14.6 32.6-32.6 32.6-17.9 0-32.2-14.7-32.2-32.6 0-17.6 14.3-32.2 32.2-32.2 18 0 32.6 14.6 32.6 32.2z"/>
			<path id="path256" fill-rule="evenodd" class="s6" d="m3964.7 2452.2c0 10-8.3 18.3-18.3 18.3-9.9 0-17.9-8.3-17.9-18.3 0-10 8-17.9 17.9-17.9 10 0 18.3 7.9 18.3 17.9z"/>
			<path id="path258" fill-rule="evenodd" class="s3" d="m3262.6 1496.8h557.5c9.6 0 17.6 7.7 17.6 17.6v155.6c0 9.6-8 17.6-17.6 17.6h-557.5c-9.6 0-17.6-8-17.6-17.6v-155.6c0-9.9 8-17.6 17.6-17.6z"/>
			<path id="path260" fill-rule="evenodd" class="s6" d="m3431.5 1527.4h351c3.7 0 6.7 2.7 6.7 6.3 0 3.7-3 6.7-6.7 6.7h-351c-3.7 0-6.3-3-6.3-6.7 0-3.6 2.6-6.3 6.3-6.3z"/>
			<path id="path262" fill-rule="evenodd" class="s6" d="m3431.5 1566.3h351c3.7 0 6.7 2.6 6.7 6.3 0 3.7-3 6.7-6.7 6.7h-351c-3.7 0-6.3-3-6.3-6.7 0-3.7 2.6-6.3 6.3-6.3z"/>
			<path id="path264" fill-rule="evenodd" class="s6" d="m3431.5 1605.2h351c3.7 0 6.7 2.6 6.7 6.3 0 3.6-3 6.6-6.7 6.6h-351c-3.7 0-6.3-3-6.3-6.6 0-3.7 2.6-6.3 6.3-6.3z"/>
			<path id="path266" fill-rule="evenodd" class="s6" d="m3431.5 1644.1h184.8c3.7 0 6.3 2.6 6.3 6.3 0 3.6-2.6 6.6-6.3 6.6h-184.8c-3.7 0-6.3-3-6.3-6.6 0-3.7 2.6-6.3 6.3-6.3z"/>
			<path id="path268" fill-rule="evenodd" class="s9" d="m3258 1496.8h129.9v190.8h-129.9c-7 0-13-6-13-13.3v-164.5c0-7.3 6-13 13-13z"/>
			<path id="path270" class="s3" d="m3368.3 1564.6l-61.5 60.2-4.6 5-5-5-32.6-32.6 10-10 27.6 27.6 56.2-55.5z"/>
			<path id="path272" fill-rule="evenodd" class="s3" d="m3032.6 1799h557.8c9.6 0 17.6 8 17.6 17.6v155.6c0 9.6-8 17.6-17.6 17.6h-557.8c-9.7 0-17.6-8-17.6-17.6v-155.6c0-9.6 7.9-17.6 17.6-17.6z"/>
			<path id="path274" fill-rule="evenodd" class="s6" d="m3201.8 1829.6h351c3.7 0 6.3 3 6.3 6.6 0 3.3-2.6 6.3-6.3 6.3h-351c-3.7 0-6.7-3-6.7-6.3 0-3.6 3-6.6 6.7-6.6z"/>
			<path id="path276" fill-rule="evenodd" class="s6" d="m3201.8 1868.5h351c3.7 0 6.3 3 6.3 6.6 0 3.3-2.6 6.3-6.3 6.3h-351c-3.7 0-6.7-3-6.7-6.3 0-3.6 3-6.6 6.7-6.6z"/>
			<path id="path278" fill-rule="evenodd" class="s6" d="m3201.8 1907.4h351c3.7 0 6.3 2.9 6.3 6.6 0 3.3-2.6 6.3-6.3 6.3h-351c-3.7 0-6.7-3-6.7-6.3 0-3.7 3-6.6 6.7-6.6z"/>
			<path id="path280" fill-rule="evenodd" class="s6" d="m3201.8 1946.3h184.8c3.3 0 6.3 2.9 6.3 6.6 0 3.3-3 6.3-6.3 6.3h-184.8c-3.7 0-6.7-3-6.7-6.3 0-3.7 3-6.6 6.7-6.6z"/>
			<path id="path282" fill-rule="evenodd" class="s9" d="m3028.3 1799h129.9v190.8h-129.9c-7.4 0-13.3-6-13.3-13.3v-164.2c0-7.3 5.9-13.3 13.3-13.3z"/>
			<path id="path284" class="s3" d="m3138.6 1866.8l-61.5 60.2-5 5-4.9-5-32.3-32.6 9.6-9.7 28 27.6 56.2-55.5z"/>
			<path id="path286" fill-rule="evenodd" class="s12" d="m4198.4 1713.5c75.5 0 137.3-61.8 137.3-137.2 0 75.4 61.8 137.2 137.3 137.2-75.5 0-137.3 61.6-137.3 137 0-75.4-61.8-137-137.3-137z"/>
			<path id="path288" fill-rule="evenodd" class="s12" d="m4442.1 1820.3c52.8 0 96.4-43.3 96.4-96.4 0 53.1 43.5 96.4 96.4 96.4-52.9 0-96.4 43.5-96.4 96.7 0-53.2-43.6-96.7-96.4-96.7z"/>
			<path id="path290" fill-rule="evenodd" class="s7" d="m1610.5 3356.4c0 0 112-118.3 55.8-118.3-56.5 0-83.4 56.5-139.9 38.8-56.2-17.9 60.8-101 7.6-113.6-87.1-20.3-115.7 78.4-153.9 87.4-38.2 8.6-29.6-124-110.7-108.7-31.9 6 13.3 98.7-17 115.3-46.8 25-70.1-102-95-91-35.3 15.9 16.9 96.7-74.5 77.4-91.1-18.9 34.2 47.5-39.9 55.9-74.1 8.3 12.3 56.8 12.3 56.8z"/>
			<path id="path292" fill-rule="evenodd" class="s6" d="m1295.7 3155.9c0 0-32.9-48.8-47.9-64.1-15.3-15-22.3-31.6-31.9-51.5-9.7-20-26.6-39.6-34.6-43.3-8-3.9-11.6-7.3-5.3 6 6.3 13.7 25.9 39.6 31.9 59.5 6 20 15.3 47.6 19.9 55.9 5 8.3 19.7 23.9 31.6 32.6 12 8.6 24.3 15.6 30.3 20.6 6 5 29.9 19.6 6-15.7z"/>
			<path id="path294" class="s8" d="m1179 2998.7c0 0 14.3 10.6 24.9 33.6 24.3 61.5 40.9 80.4 55.5 97 2.4 2.7 4.3 5.4 6.7 8l3.3 3.4c16 14.9 45.5 43.5 60.2 70.4l1.3-1.3c-14.6-26.9-44.5-55.9-60.5-70.8l-3.3-3.3c-2-2.7-4.3-5-6.7-7.7-14.3-16.6-30.9-35.5-54.8-96.7-5-12-16.6-27.3-26-33.9-5.3-3.3-6.6-4-0.6 1.3z"/>
			<path id="path296" fill-rule="evenodd" class="s6" d="m1466.9 3187.2c0 0 49.2-113.7 78.1-153.3 28.6-39.8 34.2-74.4 43.5-117.6 9.7-43.2 39.9-92.1 58.2-105.7 18.6-13.7 25.6-22.7 19.3 6.3-6.3 28.9-37.6 91.4-37.6 131.3 0 39.5-2 95.4-8.3 114-6 18.9-33.6 58.5-58.8 84.1-25.3 25.6-52.6 48.5-64.9 62.5-12.3 14.3-65.1 60.5-29.5-21.6z"/>
			<path id="path298" class="s8" d="m1654.3 2811.9c0 0-30.2 31.2-40.2 80.1-15.3 127.7-44.8 175.9-70.1 217.4-4 6.3-8 12.6-11.7 19.3h-0.3v0.3l-6.3 8.7c-30.2 39.9-87.4 116-105 175.2l-4.4-1c17.6-59.9 75.2-136.3 105.4-176.2l6.3-8.7c3.7-6.3 7.7-12.9 11.7-19.6 25.2-41.2 54.5-88.7 69.8-215.7 3.6-25.3 22.6-61.9 42.5-81.8 10.7-10.3 14-12.6 2.3 2z"/>
			<path id="path300" fill-rule="evenodd" class="s6" d="m1420.3 3160.6c0 0 26-17.9 23.3-49.5-3-31.3-0.7-43.2 15.3-108.4 15.9-65.5 11-127.3-17-172.9-27.9-45.8-23.6-45.5-31.6-62.8-7.9-17.3-14.6-32.2-14.9-5.6 0 26.9 14.9 133.3 7.3 154.2-8 21.3-41.2 76.5-28.6 104.1 13 27.5 26.9 49.2 25.9 65.1-0.6 14.3 0.4 76.8 14.3 78.5-2 35.5 0 95.7 24.6 170.2l4.7-1.4c-25.3-75.4-26.6-135.9-24.3-170.5z"/>
			<path id="path302" fill-rule="evenodd" class="s8" d="m1429.3 3076.8c0 0 19.3-3 26.3-21.6 6.9-18.3 11.3-24.6 37.5-56.8 26.3-32.3 40.2-68.2 36.9-101.4-3.3-33.3-1-31.6-1-43.6 0-11.9 0.4-22.2-7-6.9-7.3 14.9-26.9 78.4-37.2 88-10 10-43.5 32-43.5 50.9-0.4 19 1.6 34.9-3 43.6-4.4 7.6-20.6 43.2-13 47.5-10.6 19.6-45.2 231.7-51.2 279.9h3c6.3-48.9 40.9-260.6 51.2-279.6z"/>
			<path id="path304" fill-rule="evenodd" class="s16" d="m1389.7 3126c1.4-2.6 8-16.6 0-28.9-8.6-13.3-17.9-16.6-21.6-27.9-4-11.3-12.3-28.6-23.2-38.6-11-9.6-21-26.9-19-14.9 2.3 11.6 6.7 30.5 7 38.2 0.3 7.6 3.3 30.6 12.3 40.6 8.6 9.6 23.9 41.5 42.2 33.2 5.7 13.6 32.3 164.9 26.3 228.7h3.3c6.3-65.2-21.6-216.7-27.3-230.4z"/>
			<path id="path306" fill-rule="evenodd" class="s16" d="m1338.9 3184.2c0 0-20.3-88.4-34.6-120.3-14.3-32-14.6-58.2-16.6-91.1-2-32.9-16.3-71.5-26.3-83.1-10.3-11.7-13.9-19-12.6 3.3 1.3 21.9 14.9 71.1 11.6 100.7-3.6 29.6-7.3 71.5-5.3 85.8 2 14.3 15.6 46.2 28.9 67.1 13.3 21 28.3 39.9 34.6 51.6 6.3 11.6 34.9 49.8 20.3-14z"/>
			<path id="path308" class="s6" d="m1256.4 2890c0 0 16 25.6 17.7 62.8-2 96.4 11.9 134.7 23.9 167.6 2 5 4 9.9 5.6 15.3l3.4 7c14.9 32.2 43.5 93 49.2 138.6l2.6-0.4c-5.3-45.8-34.2-107.3-49.2-139.2l-3.3-7c-1.7-5-3.3-10.3-5.3-15.3-12-32.9-25.9-70.5-24-166.6 0-18.9-8.3-47.5-18.9-64.1-5.7-8.7-7.6-10.3-1.7 1.3z"/>
			<path id="path310" fill-rule="evenodd" class="s8" d="m1300.6 3228.7c0.4-2.3 0-19.2-13.6-27.2-14.6-8.7-24.6-7.7-33.6-16.3-9.3-9-25.2-21.6-40.2-25.6-14.9-4.3-32.6-15.6-24.9-5.7 7.6 10.4 20.6 26.3 24.6 33.3 4 7 17.6 27.3 30.9 32.6 12.6 5 41.9 27.9 55.2 11.6 9.6 5.7 26.9 20.3 36.9 56.2 14.3 51.5 16.9 68.8 16.9 68.8l3-0.3c0 0-2.3-17.6-16.9-69.5-10-36.6-27.9-51.9-38.3-57.9z"/>
			<path id="path312" fill-rule="evenodd" class="s16" d="m1159.7 3356.4c0 0-54.9-57.8-27.3-57.8 27.6 0 40.9 27.5 68.5 18.9 27.6-9-29.9-49.5-3.6-55.5 42.5-10 56.8 38.2 75.4 42.5 18.6 4.4 14.3-60.8 54.2-53.2 15.6 3-6.6 48.6 8.3 56.6 23 12.3 34.3-49.9 46.6-44.6 17.2 7.7-8.3 47.2 36.5 37.9 44.6-9.3-16.9 23.3 19.3 27.3 36.6 4.3-5.6 27.9-5.6 27.9z"/>
			<path id="path314" fill-rule="evenodd" class="s6" d="m2469.8 1972.2c-13.6-5.7-29.3 1-34.9 14.6l-73.2 177.2-164.8-42.2c-14.7-3.7-33.3 4.3-33.3 19.3 0 14.6 5 28.2 19.3 32.9l199.5 59.5c13.9 4.6 27.2-5.4 32.9-19l80.4-195.8c5.7-13.9-12-40.9-25.9-46.5z"/>
			<path id="path316" fill-rule="evenodd" class="s17" d="m2731.1 3349.7l90.4-156.5-69.2-28.9-33.9 62.1-1 127.7c0 5.6 10.7 0.6 13.7-4.4z"/>
			<path id="path318" fill-rule="evenodd" class="s16" d="m2523 2276.3c-7.7 1.7-128 354.7-148.6 418.2l328.4 545.6 94.4-57.2-285.5-508.3 206.7-337.7-70.8-91.5z"/>
			<path id="path320" fill-rule="evenodd" class="s7" d="m2748.4 2262.1c0 0 22.9 87 15.6 129.9-23.3 141-56.2 191.2-54.2 313.8l9.6 576.1-106 2.7-55.5-599.4c-9.3-34.9 20.9-270.6 34.6-408.5z"/>
			<path id="path322" fill-rule="evenodd" class="s16" d="m2751.7 2274.7c5.6 29.2 16.6 91.4 12.3 117.3-2.7 16.7-5.7 31.9-8.3 46.2l-27.3-41.9-26.6-54.5-40.2-62.5c0 0 64.5-3.3 90.1-4.6z"/>
			<path id="path324" fill-rule="evenodd" class="s17" d="m2531 3356.4h181.1l-9.6-74.1-70.8 1.6-111 62.9c-5 2.6 4.6 9.6 10.3 9.6z"/>
			<path id="path326" fill-rule="evenodd" class="s17" d="m1652.7 2839.5c0 0-28.6-144.3-60.5-214.1-31.9-69.8-88.4-142.9-63.8-203.1 58.8-143 470.3-181.9 448.1 47.2-9.3 96.7-2.4 208.1 30.9 262.3 32.9 54.5 66.1 106.3 66.1 106.3z"/>
			<path id="path328" fill-rule="evenodd" class="s18" d="m2203.5 2799.9h-286.5c-25.3 0-46.6 20.6-50.9 47.2h388.6c-4.3-26.6-25.6-47.2-51.2-47.2z"/>
			<path id="path330" fill-rule="evenodd" class="s19" d="m1917 2799.9h-215.1c-25.3 0-46.9 20.6-50.9 47.2h317.2c-4.4-26.6-25.6-47.2-51.2-47.2z"/>
			<path id="path332" class="s17" d="m1886.4 3348.4c-0.3 4 3 7.7 7 8h1.3c3.6-0.3 6.6-3 7-6.7l42.5-494.9h303.5l42.6 494.9c0.3 3.7 3.3 6.4 7 6.7h1.3c4-0.3 7.3-4 7-8l-43.6-501.9c0-4-3.3-7-7.3-7h-317.5c-3.6 0-6.9 3-7.3 7z"/>
			<path id="path334" class="s17" d="m1600.2 3348.4c-0.4 4 2.6 7.7 6.6 8h1.3c3.7-0.3 6.7-3 7-6.7l42.9-494.9h303.2l42.5 494.9c0.4 3.7 3.4 6.4 7 6.7h1.3c4.4-0.3 7.3-4 7-8l-43.2-501.9c-0.3-4-3.7-7-7.6-7h-317.2c-4 0-7.3 3-7.6 7z"/>
			<path id="path336" fill-rule="evenodd" class="s16" d="m1832.9 2249.4c10.3-5 19.6-12.3 27.2-22.3 24.6-31.5 17.3-80.7-5.3-100.3-22.9-20-52.2-12.7-73.8-3.7-15 20.9-22.9 36.2-18.9 51.9 7.6 29.9 46.5 53.5 70.8 74.4z"/>
			<path id="path338" fill-rule="evenodd" class="s16" d="m2250.1 3356.4h-172.2l8.9-70.5 67.5 1.7 105.7 59.5c4.7 2.6-4.6 9.3-9.9 9.3z"/>
			<path id="path340" fill-rule="evenodd" class="s16" d="m1919 2531c2.6 0.3 11.3 25.3 22.6 47.2 8.6 17.3 17.9 32.2 33.5 34.6 151 9.9 252.7 43.8 252.7 43.8l-47.2 638-111.4-6.3 25.3-488.4-248.7 2.7z"/>
			<path id="path342" fill-rule="evenodd" class="s20" d="m1970.8 3151.6l0.7 155.6v49.2h55.2l39.5-39.6-34.2-14.6 13.3-142.3z"/>
			<path id="path344" fill-rule="evenodd" class="s7" d="m1760.7 2512.7c0 0-20.3 70.8-33.2 110-29.3 85.8 6 179.9 46.2 179.9 58.8 0 181.8 0 181.8 0l-4.6 483 101 2.3 32.6-601.3c-11-20.7-167.9-56.2-228-63.9l12.9-97.4z"/>
			<path id="path346" fill-rule="evenodd" class="s6" d="m1918.3 2290c13.6-5.7 29.6 1 35.2 14.6l72.8 177.5 123.7-33.2c14.3-3.7 28.9 4.6 32.9 18.9 0 15-5 28.6-18.9 33.3l-157.9 50.5c-14.3 4.3-27.3-5.3-33-19.3l-80.7-195.8c-5.7-13.6 12.3-40.9 25.9-46.5z"/>
			<path id="path348" fill-rule="evenodd" class="s6" d="m1906 2268.4h-146.3c-17.9-2-38.5 7.6-43.2 25.9l-27.2 104 42.8 12-19.6 205.5c-0.3 3.9 3.4 7.3 7 6.9l236.7-20.9c4-0.3 7.6-3 7-7l-21.6-184.5c8.6-1 16.3-5.6 21.6-12l24.6-10.3-38.6-93.7c-4.6-11-13.3-19-23.3-23.3-3.6-1.6-7.6-2.6-11.9-2.6q-4-0.5-8 0z"/>
			<path id="path350" fill-rule="evenodd" class="s6" d="m1786 2410.3l-25.3-12-28.6 12v167.9h53.9z"/>
			<path id="path352" fill-rule="evenodd" class="s16" d="m1829.9 2050.3c-37.9 14.3-59.2 51.2-47.6 82.1 12 30.9 52.2 44.2 90.1 29.9 38.3-14.3 59.5-51.2 47.6-82.1-11.7-30.9-51.9-44.5-90.1-29.9z"/>
			<path id="path354" fill-rule="evenodd" class="s21" d="m1844.2 2109.1c-17.7 0-31.9 14.7-31.9 32.3v115.7l37.5 74.4c0 0 23.9-68.1 23.9-68.4l2.7-121.7c0.3-17.6-14.6-32.3-32.2-32.3z"/>
			<path id="path356" fill-rule="evenodd" class="s1" d="m1873.7 2263.1l-23.9 68.4 23.3-32.9 33.6-18.6z"/>
			<path id="path358" fill-rule="evenodd" class="s20" d="m1818.6 2076.2c-34.6 8-57.9 26-40.9 69.8l12.3 32.9c11.9 31.3 61.1 62.9 99.4 58.9l28.6-10c1.3-14.9-9.3-172.9-99.4-151.6z"/>
			<path id="path360" fill-rule="evenodd" class="s16" d="m1758.7 2129.1l3.4 45.9c10.6 3.6 25.9 14.6 52.1 10.9 11.7-1.3 9.3-32.2 6.4-48.8-5.7-34 22.9-52.2 53.8-46.6 11 2-12.3-26.6-48.5-38.5-39.9 6.3-69.8 40.5-67.2 77.1z"/>
			<path id="path362" fill-rule="evenodd" class="s16" d="m2129.1 3356.4h-172.2l8.9-70.5 67.5 1.7 105.7 59.5c4.7 2.6-4.6 9.3-9.9 9.3z"/>
			<path id="path364" fill-rule="evenodd" class="s6" d="m1916 2507.1l2.6 47.2c0.4 2.6-245.3 50.5-256.9 47.5-11.7-3-21.6-15.6-15-40.9 31.2-115.7 37.9-147.3 69.8-266.6l28.9 139.6-22.6 96.4z"/>
			<path id="path366" fill-rule="evenodd" class="s3" d="m1812.3 2257.1l37.5 74.4-30.6-33.2-31.9-0.3z"/>
			<path id="path368" fill-rule="evenodd" class="s6" d="m1963.2 2398.3l37.5 87.8 25.6-4-38.5-94.1c0 0-25 10.3-24.6 10.3z"/>
			<path id="path370" fill-rule="evenodd" class="s20" d="m1783.3 2165.7c8-3 20.3 1.9 27 10.9 6.6 9.3 5.3 19.3-3 22.3-8.3 3.3-20.3-1.7-27-11-6.6-9-5.3-18.9 3-22.2z"/>
			<path id="path372" fill-rule="evenodd" class="s8" d="m1722.8 2530.3c0 0-37.2 19-38.2 24-1 4.9 204.1-23.3 204.1-23.3-0.7-12.3 20.6-20 32.9-21.6z"/>
			<path id="path374" fill-rule="evenodd" class="s21" d="m2165.9 2453.9c0 0 24.6-22 34.3-24.3 10-2 34.2-12.3 34.2-12.3 0 0 15.3-0.7 5.3 9.3-9.9 10-15.2 8.7-20.6 14-5 5.6-11.9 17.3-11.9 17.3 0 0-52.5 2.9-41.3-4z"/>
			<path id="path376" fill-rule="evenodd" class="s21" d="m2141 2464.2c0 0 28.6-23.6 42.9-24 8.3-0.3 15 0.4 22.3 2 4.6 0.7 9.6 2.4 15.6 4 15.3 5 75.1-1.3 75.1-1.3 0 0 8.3 4 1.7 8-7 4.3-41.2 26.2-63.2 26.2-21.9 0-75.4 11.3-75.4 11.3z"/>
			<path id="path378" fill-rule="evenodd" class="s16" d="m3208.1 2840.8c0 0 29.3-149.3 62.5-221.1 32.9-72.1 91.4-147.9 65.8-210-60.5-147.6-486-188.2-463 48.5 9.9 100.4 2.6 215.1-31.6 271.2-34.3 56.2-68.5 110.1-68.5 110.1z"/>
			<path id="path380" fill-rule="evenodd" class="s7" d="m2656.9 2801.3h285.6c25.6 0 46.9 20.2 50.9 46.8h-387.3c4-26.6 25.2-46.8 50.8-46.8z"/>
			<path id="path382" fill-rule="evenodd" class="s16" d="m2942.5 2801.3h214.7c25.6 0 46.9 20.2 50.9 46.8h-316.5c4.4-26.6 25.6-46.8 50.9-46.8z"/>
			<path id="path384" class="s16" d="m2973.1 3348.4c0.3 4-2.7 7.7-6.7 8h-1.3c-3.7-0.3-6.6-3-7-6.7l-42.5-493.9h-302.9l-42.5 493.9c-0.3 3.7-3.3 6.4-6.7 6.7h-1.3c-4.3-0.3-7.3-4-7-8l43.2-500.6c0.4-4 3.4-7 7.7-7h316.4c3.7 0 7 3 7.4 6.7z"/>
			<path id="path386" class="s16" d="m3259 3348.4c0.3 4-2.7 7.7-7 8h-1.3c-3.7-0.3-6.4-3-6.7-6.7l-42.9-493.9h-302.5l-42.5 493.9c-0.4 3.7-3.4 6.4-7 6.7h-1.3c-4-0.3-7-4-6.7-8l43.2-500.6c0-4 3.4-7 7.3-7h316.5c4 0 7.3 3 7.6 6.7z"/>
			<path id="path388" fill-rule="evenodd" class="s21" d="m2707.5 3152l-0.4 155.2v49.2h-55.5l-39.2-39.6 34.2-14.6-13.3-141.9z"/>
			<path id="path390" fill-rule="evenodd" class="s16" d="m2549.6 3356.4h157.5v-49.2l-53.2 27.3-41.5-17.7-72.5 30.3c-5 2.3 4.4 9.3 9.7 9.3z"/>
			<path id="path392" fill-rule="evenodd" class="s16" d="m2878.3 2533c-2.6 0.3-11.3 25.2-22.2 47.2-9 16.9-18.3 32.2-33.6 34.6-102.1 15.3-252 43.5-252 43.5l50.5 519.3 97.8-10-16-374 248.3 10.3z"/>
			<path id="path394" fill-rule="evenodd" class="s20" d="m2826.5 3152l-0.4 155.2v49.2h-55.5l-39.2-39.6 34.3-14.6-13.4-141.9z"/>
			<path id="path396" fill-rule="evenodd" class="s7" d="m3036.2 2514.7c0 0 15.3 26.3 28.6 65.5 28.9 85.4 43.6 223.7 3.4 223.7-58.9 0-226.4 0-226.4 0l-10 388.6h-87.1l-31.6-504.3 144-36.2c11.3-2.3 34.2-17.3 29.9-49.5l-8.7-69.5z"/>
			<path id="path398" fill-rule="evenodd" class="s21" d="m2755.3 3192.5c5 0 71.2 0 71.2 0v23.3l-68.8 1c0 0-3-24.3-2.4-24.3z"/>
			<path id="path400" fill-rule="evenodd" class="s16" d="m3020.6 2087.2l29.3 99.1c9.6 33.2-20.3 69.8-66.8 81.1-46.6 11.3-138.3-5.3-136.7-39.9l5-99.1c1.7-34.6 20-69.8 66.5-81.1 46.5-11.3 92.7 6.7 102.7 39.9z"/>
			<path id="path402" fill-rule="evenodd" class="s6" d="m2879 2292.6c-13.6-5.6-29.6 1-34.9 14.7l-72.8 176.8-123.3-32.9c-14.3-4-28.9 4.7-32.9 18.9 0 14.7 4.9 28.3 18.9 33l157.6 50.2c13.9 4.6 27.2-5.4 32.9-19l80.4-195.5c5.7-13.6-12.3-40.5-25.9-46.2z"/>
			<path id="path404" fill-rule="evenodd" class="s20" d="m3047.2 2316.9c13.6-5.6 29.6 1 35.3 14.6l96.7 235.4c5.6 13.6-1 29.2-14.6 34.9-13.7 5.6-29.3-1-34.9-14.6l-97.1-235.1c-5.7-13.9 1-29.5 14.6-35.2z"/>
			<path id="path406" fill-rule="evenodd" class="s21" d="m3047.2 2316.9c13.6-5.6 29.6 1 35.3 14.6l31.9 77.8-49.6 20.3-32.2-77.5c-5.7-13.9 1-29.5 14.6-35.2z"/>
			<path id="path408" fill-rule="evenodd" class="s8" d="m2891.3 2270.7h145.9c18-1.7 35.9 8.6 43.3 25.9l38.5 93.8-54.2 22.2v160.6c0 3.7-3.3 7-6.9 7h-195.2c-3.6 0-6.6-3.3-6.6-7v-160.6c-8.7-1.3-16.7-5.6-21.6-12.3l-24.6-9.9 38.2-93.8c4.6-10.6 13.3-18.9 23.3-22.9 3.6-1.7 7.9-2.7 11.9-3q4 0 8 0z"/>
			<path id="path410" fill-rule="evenodd" class="s6" d="m3011 2412.3l25.2-11.6 28.6 11.6v167.9h-53.8z"/>
			<path id="path412" fill-rule="evenodd" class="s16" d="m2916.6 2052.3c44.5 0 80.7 36.2 80.7 80.8 0 44.8-36.2 80.8-80.7 80.8-44.6 0-80.8-36-80.8-80.8 0-44.6 36.2-80.8 80.8-80.8z"/>
			<path id="path414" fill-rule="evenodd" class="s21" d="m2952.8 2112.1c17.6 0 32.3 14.3 32.3 32.3v115.3l-37.6 74.2-24.3-68.2-2.3-121.3c-0.3-18 14.3-32.3 31.9-32.3z"/>
			<path id="path416" fill-rule="evenodd" class="s1" d="m2920.9 2230.8l26.6 103.1-23.6-32.6-33.3-18.6z"/>
			<path id="path418" fill-rule="evenodd" class="s20" d="m2936.9 2073.6c34.8-4.7 62.8 3.6 62.8 50.8v35.3c0 33.2-34.6 79.8-71.8 89.7l-30 1c-6.6-13.6-52.8-164.5 39-176.8z"/>
			<path id="path420" fill-rule="evenodd" class="s16" d="m3011.3 2125.8l13 64.5c-8.3 10.9-19 18.9-31.3 23.2-38.9 14-78.8-16.6-89.4-67.8-6.6-33.6 1-67.8 17.6-91.4 39.6-12 79.5 19.6 90.1 71.5z"/>
			<path id="path422" fill-rule="evenodd" class="s20" d="m3178.2 2576.9c0 14.6-12 26.6-26.6 26.6h-151.6c-14.9 0-26.9-12-26.9-26.6 0-15 12-27 26.9-27h151.6c14.6 0 26.6 12 26.6 27z"/>
			<path id="path424" fill-rule="evenodd" class="s6" d="m2961.4 2603.5l-3.9-22.6c-25.6-1-77.5-2.7-77.5 22.6z"/>
			<path id="path426" fill-rule="evenodd" class="s16" d="m2998 2603.5c0-12.3-18.3-22.6-40.5-22.6-22.6 0-40.9 10.3-40.9 22.6z"/>
			<path id="path428" class="s16" d="m2925.9 2580.2c0.3 0 0.6 0 0.6 0.3 0 0.4-0.3 0.7-0.6 0.7-6 1-11.7 2.6-16.3 5.6-3.7 2.7-6.7 6-8 10.3 0 0.4-0.3 0.4-0.7 0.4-0.3 0-0.3-0.4-0.3-0.7 1-4.7 4.3-8.3 8.3-11 4.7-3 10.7-4.9 17-5.6z"/>
			<path id="path430" fill-rule="evenodd" class="s19" d="m2901.9 2595.8c0.7 0.7 0.7 1.7 0.4 2.3-0.7 1-1.4 1.4-2 0.7-1-0.3-1-1.3-0.7-2 0.7-1 1.7-1.3 2.3-1z"/>
			<path id="path432" fill-rule="evenodd" class="s20" d="m2935.9 2562.6c0 3-2.4 5.9-5.4 6.6l-15.9 4c-3 0.7-5.7-1.3-5.7-4.3-0.3-3 2-6 5-6.7l16-4c3-0.6 5.6 1.4 6 4.4z"/>
			<path id="path434" fill-rule="evenodd" class="s20" d="m2917.9 2565.9c1 3-0.3 6.6-3 8l-14.3 7.9c-2.7 1.7-5.6 0.4-6.6-2.3-1-3 0.3-6.6 3-8l14.3-7.9c2.6-1.7 5.6-0.4 6.6 2.3z"/>
			<path id="path436" fill-rule="evenodd" class="s20" d="m3004.7 2558.9c8.3 10.3 6.3 21.3-5 23.6l-30.9 6.7c-12.3 2.6-38.3-17-40.3-22.6l-2-6.7c1.4-1 27-12 29.3-12l24.3 1.4c13.3 0.6 16.2-1 24.6 9.6z"/>
			<path id="path438" fill-rule="evenodd" class="s20" d="m2959.1 2575.2c0 3-2.6 6-5.6 6.3l-16.3 2.7c-3 0.3-5.3-1.7-5.3-5 0-3 2.6-5.7 5.6-6.3l16.3-2.4c3-0.3 5.3 1.7 5.3 4.7z"/>
			<path id="path440" fill-rule="evenodd" class="s20" d="m2955.1 2579.9c2 2.3 1.7 6.3-0.3 8.6l-11.3 12c-2 2.3-5.3 2-7-0.4-2-2.3-1.6-6.3 0.4-8.6l11.2-12c2-2.3 5.4-2 7 0.4z"/>
			<path id="path442" fill-rule="evenodd" class="s20" d="m2982.1 2581.8c0 3-2.7 6-5.7 6.4l-16.3 2.3c-3 0.7-5.3-1.7-5.3-4.7 0-3 2.7-5.9 5.7-6.3l16.2-2.3c3-0.7 5.4 1.7 5.4 4.6z"/>
			<path id="path444" fill-rule="evenodd" class="s20" d="m2971.1 2580.5c1.6 2.7 1.6 6.3-0.7 8.7l-10.9 11.9c-2.4 2.4-5.4 2-7.4-0.3-1.6-2.3-1.6-6.3 0.7-8.7l11-11.9c2-2 5.3-2 7.3 0.3z"/>
			<path id="path446" fill-rule="evenodd" class="s20" d="m2939.5 2576.2c2 2.3 1.7 6.3-0.3 8.3l-11.3 12c-2 2.3-5.4 2.3-7 0-2-2.7-1.7-6.3 0.3-8.7l11.3-11.9c2-2.4 5.3-2.4 7 0.3z"/>
			<path id="path448" fill-rule="evenodd" class="s6" d="m3036.2 2400.7c-1.6 24.6-21.9 44.2-46.8 44.2h-107.7c-25 0-45.6-19.6-47.2-44.2 5.9 7.3 15.2 11.9 25.6 11.9h150.9c10.3 0 19.3-4.6 25.2-11.9z"/>
			<path id="path450" fill-rule="evenodd" class="s16" d="m2668.9 3356.4h157.2v-49.2l-53.1 27.3-41.6-17.7-72.5 30.3c-5 2.3 4.4 9.3 10 9.3z"/>
			<path id="path452" fill-rule="evenodd" class="s8" d="m3010 2546.6c0 0 14.3 62.8 14.3 59.8 0-2.9 132 2.7 143.6-0.3 11.6-3 21.6-15.6 14.9-40.9-6.9-25.2-63.8-174.8-63.8-174.8l-21.9-53.2-60.9 63.5 72.5 149.2z"/>
			<path id="path454" fill-rule="evenodd" class="s3" d="m2985.1 2230.8l-37.6 103.1 30.2-33.3 32-0.3z"/>
			<path id="path456" fill-rule="evenodd" class="s8" d="m2834.5 2400.3l-37.9 87.8-25.3-4 38.6-93.7c0 0 24.6 10.3 24.6 9.9z"/>
			<path id="path458" class="s16" d="m1977.8 3348.1c0.3 4.3-2.7 8-7 8.3h-0.3-0.4c-3.9 0-7.3-3-7.6-7l-61.8-717h-405.6l-62.2 717c-0.3 4-3.3 7-7.3 7h-0.3-0.3c-4.3-0.3-7.3-4-7-8.3l62.5-724c0-4 3.3-7.4 7.6-7.4h419.6c3.9 0 7.3 3 7.6 7z"/>
			<path id="path460" fill-rule="evenodd" class="s6" d="m1480.5 2603.5h1789.8v20.9h-1789.8z"/>
			<path id="path462" fill-rule="evenodd" class="s16" d="m2831.8 2603.5h438.5v20.9h-438.5z"/>
			<path id="path464" class="s16" d="m3340.4 3348.1c0.3 4.3-2.7 8-7 8.3-0.3 0-0.3 0-0.6 0h-0.4c-3.6 0-6.9-3-7.3-7l-61.8-717h-405.6l-62.1 717c-0.4 4-3.7 7-7.3 7h-0.4c-0.3 0-0.3 0-0.6 0-4-0.3-7.4-4-7-8.3l62.5-724c0.3-4 3.6-7.4 7.6-7.4h419.9c4 0 7.3 3 7.6 7z"/>
			<path id="path466" fill-rule="evenodd" class="s4" d="m2382 2603.5h471.1c2.6 0 5-2 5-5 0-2.7-2.4-5-5-5h-471.1c-2.6 0-5 2.3-5 5 0 3 2.4 5 5 5z"/>
			<path id="path468" fill-rule="evenodd" class="s12" d="m2319.2 2387.7h328.1c3.7 0 7.3 3 8.3 6.3l54.5 203.1c1 3.7-1.3 6.4-5 6.4h-328.1c-3.6 0-7.3-2.7-8.3-6.4l-54.2-203.1c-1-3.3 1-6.3 4.7-6.3z"/>
			<path id="path470" fill-rule="evenodd" class="s5" d="m2319.2 2387.7h328.1c-64.5 86.4-152.9 153.6-285.2 185.2l-47.6-178.9c-1-3.3 1-6.3 4.7-6.3z"/>
			<path id="path472" fill-rule="evenodd" class="s6" d="m2471.5 1948.6l123.3-32.9c17.6-4.7 44.2-7.4 51.5 14.3l118 349.3c1.4 4-1 9-5 9l-248.3 12.3c-4 0.3-8-1.3-8.6-5l-67.5-308.8c-4.7-19.3 17.3-34.9 36.6-38.2z"/>
			<path id="path474" fill-rule="evenodd" class="s8" d="m2471.5 1948.6l123.3-32.9c17.6-4.7 50.2-8.3 51.5 14.3l5 88.4-75.8 189.5 2.7 74.8-67.2 17.9c-4 0.3-8-1.3-8.6-5l-67.5-308.8c-3.7-16.3 11-29.9 27.2-35.6z"/>
			<path id="path476" fill-rule="evenodd" class="s16" d="m2555.6 1900.4c-9.7 4.6-21 7-33 6.6-37.9-1-69.8-35.5-70.4-64.1-1-28.6 21.9-45.9 41.5-56.6 24.3 1.7 40.2 5 49.2 17.3 17.6 23.6 11.7 66.5 12.7 96.8z"/>
			<path id="path478" fill-rule="evenodd" class="s17" d="m2520 1775.7c4.6 1 8.3 3 10.3 6.7 4.3 7.6 0.3 17.6-8.6 22.9-5.7 3.3-11.7 3.7-16.7 2 5 24.9-9.6 53.8-37.5 70.1-5.7 3.4-11.7 5.7-17.7 7.7-1.3 4-4.3 7.6-8.6 10-8 4.6-17.9 2.9-21.6-3.7q-0.5-1-1-2l-0.7 0.3c-8 4.7-17.9 3-21.6-3.6-0.3-0.4-0.6-1-1-1.7-6.6 2-13.6 0-16.6-5.3-2-3.3-2-7.3-0.7-11-6.3 0.7-11.9-2-14.6-6.6-4-7-1-16.6 7-22-2.3-1.3-4.3-3-5.7-5.3-4-7.3-0.3-17.3 8.4-22.6-1-0.7-1.7-1.6-2.4-3-4.3-7.3-0.3-17.6 8.7-22.9 3-1.7 6.6-2.7 9.6-2.7 1-5.3 4.7-10.3 10.3-13.6 3-1.7 6.3-2.7 9.7-3 1.3-4.7 4.6-9 9.6-12 6.3-3.6 13.6-3.6 18.6-1 1.3-1.3 3-2.6 4.7-3.6 7.3-4 15.9-4 20.9 0.3 6.7-2.6 14-1.3 18.3 2.7 9-5.3 19.9-3.7 23.9 3.6 1 1.4 1.4 3 1.7 4.4 5 0.3 9.3 2.9 12 6.9 1.3 2.4 1.6 5.4 1.3 8z"/>
			<path id="path480" fill-rule="evenodd" class="s21" d="m2482.8 1785c17.9-5 36.5 5.7 41.2 23.6l31.6 117.4-18 85.7c0 0.4-43.2-62.5-43.2-62.8l-35.6-122.7c-5-17.9 6-36.5 24-41.2z"/>
			<path id="path482" fill-rule="evenodd" class="s6" d="m2494.4 1948.9l43.2 62.8-34.9-8.3-22.3 4z"/>
			<path id="path484" fill-rule="evenodd" class="s20" d="m2436.5 1786c26.6-20.6 53.6-26.9 76.2 11.7l16.6 28.9c16 27.6 9.6 82.4-16.3 108.3l-24.6 15.3c-11.6-8.3-121.7-110.7-51.9-164.2z"/>
			<path id="path486" fill-rule="evenodd" class="s16" d="m2511.3 1773.7l31.6 29.9c-3.3 10-4.6 28-22.9 44.9-8 8-29.3-12.3-39.9-24.6-21.6-24.6-51.9-14.3-66.5 11.6-5 9.4-12.3-24.9 0.7-58.8 28.6-25.3 71.8-26.9 97-3z"/>
			<path id="path488" fill-rule="evenodd" class="s6" d="m2555.6 1926l-18 85.7 29.9-30.2 35.3-9z"/>
			<path id="path490" fill-rule="evenodd" class="s20" d="m2523.6 1813.6c-7.3 4.3-10.9 16-7.9 26.3 2.6 10.6 10.9 15.6 17.9 11.3 7.3-4.3 11-16 8.3-26.3-3-10.3-10.9-15.6-18.3-11.3z"/>
			<path id="path492" fill-rule="evenodd" class="s8" d="m2555.6 1926l-18 85.7 19.9-44.8 27.6-1z"/>
			<path id="path494" fill-rule="evenodd" class="s8" d="m2494.4 1948.9l3.6 43.6-17.6 14.9z"/>
			<path id="path496" fill-rule="evenodd" class="s10" d="m2523 1990.1l19.9-3.6 9.7 9.9-15 15.3-15-3.6z"/>
			<path id="path498" fill-rule="evenodd" class="s10" d="m2532.3 2007.7l11.3-3.3 47.9 231.1-13.3 47.2-25.6-41.9z"/>
			<path id="path500" fill-rule="evenodd" class="s12" d="m2394.7 2296l-116.4-201.5c-1-2-4-3.3-6.6-3.3h-154c-2.6 0-3.6 1.3-2.6 3.3l116.3 201.5c1.4 2 4 3.6 6.7 3.6h153.9c2.7 0 3.7-1.6 2.7-3.6z"/>
			<path id="path502" fill-rule="evenodd" class="s5" d="m2233.4 2096.2l-5.9-10.3c-0.7-1.4-3-2.4-5-2.4h-64.5c-1.7 0-2.7 1-1.7 2.4l5.7 10.3c1 1.3 3 2.6 4.9 2.6h64.5c1.7 0 2.7-1.3 2-2.6z"/>
			<path id="path504" fill-rule="evenodd" class="s20" d="m2403 2250.7c0 0-55.9 4.7-71.8 10-16 5.7-32.6 7.3-39.9-0.3-7.3-7.7-34.3-27.9-30.3-36.2 3.7-7.7 15 6.9 55.5-10 9-3.7 28.3-4.3 28.3-4.3 0 0-13-11.3-16.3-18.3-3.3-6.7 7.7-6.3 7.7-6.3 0 0 6.6 5.9 19.6 7.6 13.3 1.3 51.2 29.9 51.2 29.9z"/>
			<path id="path506" fill-rule="evenodd" class="s8" d="m2395.7 2210.9l5.3 46.5 174.5-49.5c43.2-12.3 46.2-90.1-21.6-62.2z"/>
			<path id="path508" fill-rule="evenodd" class="s8" d="m2621.4 2167l41.2-179.9c5.7-23.6-4.7-60.8-21.3-65.4-16.3-5-31.2 0-36.5 23.6l-50.2 210c-12.7 53.2 53.8 68.9 66.8 11.7z"/>
			<path id="path510" fill-rule="evenodd" class="s9" d="m1913.3 2602.5l116.4-201.5c1-2 3.9-3.7 6.6-3.7h153.9c2.7 0 3.7 1.7 2.7 3.7l-116.4 201.5c-1.3 2-4 3.3-6.6 3.3h-153.9c-2.7 0-3.7-1.3-2.7-3.3z"/>
			<path id="path512" fill-rule="evenodd" class="s11" d="m2074.5 2402.7l6-10.3c0.7-1.4 3-2.7 5-2.7h64.5c1.7 0 2.7 1.3 1.7 2.7l-5.7 10.3c-1 1.3-3 2.3-5 2.3h-64.5c-1.6 0-2.6-1-2-2.3z"/>
			<path id="path514" fill-rule="evenodd" class="s20" d="m1905 2556.9c0 0 55.8 5 71.8 10.3 16 5.3 32.2 7 39.9-0.3 7.3-7.7 34.2-27.9 30.2-36.2-3.6-8-14.9 6.9-55.5-10-8.9-4-28.2-4.7-28.2-4.7 0 0 12.9-10.9 16.3-17.9 3.3-6.7-7.7-6.3-7.7-6.3 0 0-6.6 5.6-19.9 7.3-13 1.6-50.9 30.2-50.9 30.2z"/>
			<path id="path516" fill-rule="evenodd" class="s7" d="m4394.5 3356.4c0 0 183.9-194.1 91.4-194.1-92.4 0-136.9 92.7-229.7 63.5-92.4-29.6 100.1-165.9 12.3-186.5-142.9-33.6-189.8 128.6-252.6 143.2-62.5 14.7-48.2-203.7-181.5-178.5-52.5 10 21.6 162.6-28.3 189.5-76.8 41.2-115-167.5-155.9-149.2-57.8 25.9 27.6 158.5-122.3 126.9-149.6-31.2 56.2 78.2-65.5 91.8-121.7 13.6 20 93.4 20 93.4z"/>
			<path id="path518" fill-rule="evenodd" class="s6" d="m3877.6 3027c0 0-54.2-80.1-79.1-105.1-24.9-24.9-36.6-51.8-52.2-84.8-16-32.9-43.9-65.1-56.8-71.1-13.3-6.3-19-12-8.7 10 10.7 22.3 42.6 65.1 52.5 97.7 10 32.9 25 78.1 32.6 91.8 8 13.6 32.3 39.2 51.9 53.2 19.6 14.2 39.9 25.6 49.8 33.9 10 8.6 48.9 32.2 10-25.6z"/>
			<path id="path520" class="s8" d="m3685.8 2769c0 0 23.6 17.3 40.9 55.2 39.9 100.7 67.5 132 91.1 159.5 3.6 4 7.3 8.4 10.9 12.7v0.3l5.7 5.3c25.9 24.6 74.8 71.8 98.7 115.7l2-2c-23.9-44.5-73.1-91.7-99-116.7l-5.7-5.3c-3.3-4-7-8.3-11-12.6-23.6-27.3-50.5-58.5-90.4-158.6-8-19.9-27.2-44.5-42.5-55.8-8.3-5.7-10.3-6.7-0.7 2.3z"/>
			<path id="path522" fill-rule="evenodd" class="s6" d="m4158.5 3078.5c0 0 81.1-186.5 128.3-252 47.2-65.1 56.2-122.3 71.8-193.1 15.7-70.8 65.2-151.3 95.4-173.6 30.6-22.6 41.6-37.5 31.6 10.3-10 47.6-61.8 150.3-61.8 215.5 0 65.5-3.3 156.9-13.6 187.8-10 30.6-54.9 96.1-96.4 137.9-41.6 42.3-86.8 79.5-106.8 102.8-20.2 23.2-107 99-48.5-35.6z"/>
			<path id="path524" class="s8" d="m4466.7 2461.8c-0.4 0-49.9 51.2-66.2 132-25.2 209.8-73.4 288.2-115.3 356.7-6.7 10.6-13 21.3-19.3 31.9v0.3h-0.4l-10.6 14.3c-49.5 65.5-143.3 190.5-171.8 287.9l-7.7-1.6c28.9-98.4 123.3-223.8 173.2-289.9l10.3-14c6-10.3 12.6-20.9 19.3-31.9 41.5-67.8 89.4-145.9 114.7-354.7 5.6-41.2 37.2-101.4 69.8-133.9 17.6-17.3 22.9-21 4 2.9z"/>
			<path id="path526" fill-rule="evenodd" class="s6" d="m4082.1 3034.9c0 0 42.5-29.5 38.2-81.4-4.7-51.9-1-71.5 24.9-178.5 26.3-107.1 18.3-208.4-27.6-283.9-45.9-75.1-38.5-74.1-51.8-102.7-13-28.3-24.3-53.2-24.3-9-0.3 43.9 24.6 218.4 11.6 253-12.9 34.9-67.8 125.3-46.8 170.8 21.2 45.3 44.2 80.8 42.8 107.1-1.3 23.6 0.4 126.3 23.3 128.6-3.6 58.5-0.3 157.3 40.6 279.9l7.3-2.6c-41.2-123.7-43.9-223.1-39.9-279.9z"/>
			<path id="path528" fill-rule="evenodd" class="s8" d="m4096.7 2897c0 0 31.9-5 43.2-35.3 11.3-30.2 18.6-40.2 61.8-93.4 43.2-53.2 66.2-112 60.5-166.5-5.6-54.5-2-52.2-1.6-71.5 0.3-19.6 0.6-36.5-11.3-12-12 25-44.6 129.4-61.2 145.3-16.3 16-71.5 52.2-71.8 83.5-0.3 30.9 3 57.1-4.7 71.4-6.9 12.7-33.5 70.8-21.2 78.2-17.7 31.9-74.2 380.2-84.1 459.7h5c9.9-80.5 66.8-428.2 84-459.1z"/>
			<path id="path530" fill-rule="evenodd" class="s16" d="m4032.2 2978.1c2-4.3 12.6-27.3-0.3-47.5-14.3-22.3-29.3-27.6-35.6-45.9-6.7-18.6-20.3-47.2-38.2-63.2-17.7-16.3-34.6-44.5-31-24.9 3.7 19.3 11 50.5 11.3 63.2 0.4 12.6 5.7 50.1 20.7 66.4 13.9 16 38.8 67.9 68.8 54.6 9.3 22.6 53.2 270.9 43.2 375.6h5.6c10-107-35.5-356.4-44.5-378.3z"/>
			<path id="path532" fill-rule="evenodd" class="s16" d="m3948.1 3073.5c0 0-33.3-145.3-56.5-197.5-23.3-52.5-24-95.4-27.3-149.5-3.3-54.2-26.6-117.7-43.5-136.7-16.7-18.9-22.3-30.9-20.3 5.3 2 36.3 24.6 116.7 18.9 165.6-5.9 48.5-12.3 117-8.6 140.9 3.3 23.6 25.3 75.8 47.5 110.4 22 34.2 46.2 65.5 56.9 84.4 10.3 19 57.2 81.8 32.9-22.9z"/>
			<path id="path534" class="s6" d="m3812.8 2590.5c0.3 0 26.6 41.9 29.2 103-3.3 158.6 19.7 220.8 39.3 275 3.3 8.6 6.3 16.6 8.9 25.2h0.4v0.4l5.3 11.3c24.6 52.8 71.8 152.9 80.8 227.7l4.6-0.7c-8.9-75.5-56.2-176.2-81.1-229l-5.3-11.3c-2.7-8.4-5.6-16.7-9-25.3-19.6-53.9-42.2-115.7-39.2-273.3 0.3-31.2-14-78.1-30.9-105.3-9.7-14-12.3-17-3 2.3z"/>
			<path id="path536" fill-rule="evenodd" class="s8" d="m3885.6 3147c0.3-4.3 0-31.9-22.3-45.2-24.2-14.3-40.5-12.3-55.5-27-15-14.6-41.2-34.9-65.8-41.9-24.6-6.9-53.5-25.6-40.9-8.9 12.3 16.6 33.9 42.9 40.2 54.5 6.3 11.6 28.9 44.9 50.9 53.5 20.9 8.3 68.5 45.9 90.7 19 15.7 9.3 44.2 33.2 60.5 92 23.6 84.8 28 113.4 28 113.4l4.9-0.7c0 0-4.3-28.6-27.9-114-16.6-59.8-46.2-85.1-62.8-94.7z"/>
			<path id="path538" fill-rule="evenodd" class="s16" d="m3653.9 3356.4c0 0-90.1-95.1-44.6-95.1 45.3 0 67.2 45.6 112.4 30.9 45.6-14.3-48.9-81.1-6-91 70.2-16.7 93.1 62.8 123.7 70.1 30.9 7 23.9-99.7 89.1-87.4 25.6 4.6-10.7 79.4 13.9 92.7 37.6 20.3 56.2-82.1 76.2-73.1 28.5 12.6-13.3 77.8 60.1 62.1 73.2-15.2-27.6 38.3 31.9 44.9 59.9 7-9.6 45.9-9.6 45.9z"/>
			<path id="path540" fill-rule="evenodd" class="s12" d="m420.4 1824.6c75.4 0 137.3 61.8 137.3 137.3 0-75.5 61.8-137.3 137.3-137.3-75.5 0-137.3-61.9-137.3-137.3 0 75.4-61.9 137.3-137.3 137.3z"/>
			<path id="path542" fill-rule="evenodd" class="s12" d="m663.7 1717.5c53.2 0 96.8 43.6 96.8 96.8 0-53.2 43.2-96.8 96.4-96.8-53.2 0-96.4-43.2-96.4-96.4 0 53.2-43.6 96.4-96.8 96.4z"/>
			<path id="path544" fill-rule="evenodd" class="s0" d="m3771.2 1207.3c415.9-79.2 607.7 30.6 737.7 343.4 16.6-365.4-348.1-487.7-737.7-343.4z"/>
			<path id="path546" fill-rule="evenodd" class="s0" d="m680 3296.2c-260.9-223.4-358.7-504.3-268.6-763.9-284.5 230.1-97.4 567.5 268.6 763.9z"/>
		</g>
	</g>
</svg>